SplineFontDB: 3.2
FontName: RobotoLegacy-Thin
FullName: Roboto Legacy Thin
FamilyName: Roboto Legacy Thin
Weight: Thin
Copyright: Font data copyright Google 2011
Version: 1.00000; 2011
ItalicAngle: 0
UnderlinePosition: -200
UnderlineWidth: 100
Ascent: 1536
Descent: 512
InvalidEm: 0
sfntRevision: 0x00010000
LayerCount: 2
Layer: 0 1 "Back" 1
Layer: 1 1 "Fore" 0
XUID: [1021 474 -1613799265 13689]
StyleMap: 0x0000
FSType: 4
OS2Version: 3
OS2_WeightWidthSlopeOnly: 0
OS2_UseTypoMetrics: 0
CreationTime: 1221222574
ModificationTime: 1744075756
PfmFamily: 81
TTFWeight: 100
TTFWidth: 5
LineGap: 0
VLineGap: 0
Panose: 0 0 0 0 0 0 0 0 0 0
OS2TypoAscent: 1536
OS2TypoAOffset: 0
OS2TypoDescent: -512
OS2TypoDOffset: 0
OS2TypoLinegap: 102
OS2WinAscent: 1946
OS2WinAOffset: 0
OS2WinDescent: 512
OS2WinDOffset: 0
HheadAscent: 1900
HheadAOffset: 0
HheadDescent: -500
HheadDOffset: 0
OS2SubXSize: 1434
OS2SubYSize: 1331
OS2SubXOff: 0
OS2SubYOff: 287
OS2SupXSize: 1434
OS2SupYSize: 1331
OS2SupXOff: 0
OS2SupYOff: 977
OS2StrikeYSize: 102
OS2StrikeYPos: 512
OS2CapHeight: 1456
OS2XHeight: 1082
OS2Vendor: 'pyrs'
OS2CodePages: 2000019f.4f010000
OS2UnicodeRanges: e00002ef.5000205b.00000020.00000000
Lookup: 1 0 0 "'smcp' Lowercase to Small Capitals lookup 0" { "'smcp' Lowercase to Small Capitals lookup 0 subtable"  } ['smcp' ('DFLT' <'dflt' > ) ]
Lookup: 4 0 1 "'liga' Standard Ligatures lookup 1" { "'liga' Standard Ligatures lookup 1 subtable"  } ['liga' ('DFLT' <'dflt' > ) ]
Lookup: 258 0 0 "'kern' Horizontal Kerning lookup 0" { "'kern' Horizontal Kerning lookup 0 per glyph data 0"  "'kern' Horizontal Kerning lookup 0 per glyph data 1"  "'kern' Horizontal Kerning lookup 0 per glyph data 2"  "'kern' Horizontal Kerning lookup 0 kerning class 3"  } ['kern' ('DFLT' <'dflt' > ) ]
MarkAttachClasses: 1
DEI: 91125
KernClass2: 32+ 29 "'kern' Horizontal Kerning lookup 0 kerning class 3"

StartChar: exclam
Encoding: 33 33 4
Width: 397
GlyphClass: 1
Flags: W
LayerCount: 2
Fore
SplineSet
221 478 m 1,0,-1
 167 478 l 1,1,-1
 167 1456 l 1,2,-1
 221 1456 l 1,3,-1
 221 478 l 1,0,-1
242 0 m 1,4,-1
 147 0 l 1,5,-1
 147 134 l 1,6,-1
 242 134 l 1,7,-1
 242 0 l 1,4,-1
EndSplineSet
Validated: 1
EndChar

StartChar: quotedbl
Encoding: 34 34 5
Width: 610
GlyphClass: 1
Flags: W
LayerCount: 2
Fore
SplineSet
256 1289 m 1,0,-1
 206 1018 l 1,1,-1
 156 1018 l 1,2,-1
 201 1286 l 1,3,-1
 201 1456 l 1,4,-1
 256 1456 l 1,5,-1
 256 1289 l 1,0,-1
437 1289 m 1,6,-1
 387 1018 l 1,7,-1
 337 1018 l 1,8,-1
 383 1286 l 1,9,-1
 383 1456 l 1,10,-1
 437 1456 l 1,11,-1
 437 1289 l 1,6,-1
EndSplineSet
Validated: 1
EndChar

StartChar: numbersign
Encoding: 35 35 6
Width: 1265
GlyphClass: 1
Flags: W
LayerCount: 2
Fore
SplineSet
756 410 m 1,0,-1
 392 410 l 1,1,-1
 318 0 l 1,2,-1
 262 0 l 1,3,-1
 336 410 l 1,4,-1
 65 410 l 1,5,-1
 65 462 l 1,6,-1
 346 462 l 1,7,-1
 441 986 l 1,8,-1
 141 986 l 1,9,-1
 141 1040 l 1,10,-1
 451 1040 l 1,11,-1
 526 1456 l 1,12,-1
 582 1456 l 1,13,-1
 506 1040 l 1,14,-1
 871 1040 l 1,15,-1
 947 1456 l 1,16,-1
 1003 1456 l 1,17,-1
 927 1040 l 1,18,-1
 1181 1040 l 1,19,-1
 1181 986 l 1,20,-1
 917 986 l 1,21,-1
 821 462 l 1,22,-1
 1106 462 l 1,23,-1
 1106 410 l 1,24,-1
 812 410 l 1,25,-1
 737 0 l 1,26,-1
 681 0 l 1,27,-1
 756 410 l 1,0,-1
402 462 m 1,28,-1
 765 462 l 1,29,-1
 861 986 l 1,30,-1
 496 986 l 1,31,-1
 402 462 l 1,28,-1
EndSplineSet
Validated: 1
EndChar

StartChar: dollar
Encoding: 36 36 7
Width: 1121
GlyphClass: 1
Flags: W
LayerCount: 2
Fore
SplineSet
947 344 m 0,0,1
 947 474 947 474 868 549.5 c 128,-1,2
 789 625 789 625 576 702 c 1,3,4
 361 773 361 773 264.5 858 c 128,-1,5
 168 943 168 943 168 1110 c 0,6,7
 168 1270 168 1270 272.5 1369.5 c 128,-1,8
 377 1469 377 1469 554 1476 c 1,9,-1
 554 1663 l 1,10,-1
 609 1663 l 1,11,-1
 609 1476 l 1,12,13
 790 1466 790 1466 890.5 1355.5 c 128,-1,14
 991 1245 991 1245 988 1052 c 1,15,-1
 986 1047 l 1,16,-1
 939 1047 l 1,17,18
 939 1213 939 1213 844 1318.5 c 128,-1,19
 749 1424 749 1424 579 1424 c 0,20,21
 405 1424 405 1424 313.5 1332.5 c 128,-1,22
 222 1241 222 1241 222 1112 c 0,23,24
 222 981 222 981 295.5 904 c 128,-1,25
 369 827 369 827 593 754 c 1,26,27
 803 681 803 681 902 596 c 128,-1,28
 1001 511 1001 511 1001 346 c 0,29,30
 1001 185 1001 185 897 87.5 c 128,-1,31
 793 -10 793 -10 620 -20 c 1,32,-1
 620 -208 l 1,33,-1
 565 -208 l 1,34,-1
 565 -21 l 1,35,36
 376 -15 376 -15 249 87 c 128,-1,37
 122 189 122 189 127 403 c 1,38,-1
 129 409 l 1,39,-1
 175 409 l 1,40,41
 175 210 175 210 296.5 121 c 128,-1,42
 418 32 418 32 586 32 c 0,43,44
 749 32 749 32 848 124 c 128,-1,45
 947 216 947 216 947 344 c 0,0,1
EndSplineSet
Validated: 33
EndChar

StartChar: percent
Encoding: 37 37 8
Width: 1527
GlyphClass: 1
Flags: W
LayerCount: 2
Fore
SplineSet
114 1176 m 2,0,1
 114 1302 114 1302 190 1389.5 c 128,-1,2
 266 1477 266 1477 386 1477 c 0,3,4
 505 1477 505 1477 581 1389.5 c 128,-1,5
 657 1302 657 1302 657 1176 c 2,6,-1
 657 1099 l 2,7,8
 657 973 657 973 581.5 886.5 c 128,-1,9
 506 800 506 800 388 800 c 0,10,11
 266 800 266 800 190 886.5 c 128,-1,12
 114 973 114 973 114 1099 c 2,13,-1
 114 1176 l 2,0,1
169 1099 m 2,14,15
 169 999 169 999 225.5 927 c 128,-1,16
 282 855 282 855 388 855 c 0,17,18
 490 855 490 855 546 927 c 128,-1,19
 602 999 602 999 602 1099 c 2,20,-1
 602 1176 l 2,21,22
 602 1276 602 1276 545.5 1349 c 128,-1,23
 489 1422 489 1422 386 1422 c 256,24,25
 283 1422 283 1422 226 1348.5 c 128,-1,26
 169 1275 169 1275 169 1176 c 2,27,-1
 169 1099 l 2,14,15
870 357 m 2,28,29
 870 482 870 482 945.5 569.5 c 128,-1,30
 1021 657 1021 657 1141 657 c 256,31,32
 1261 657 1261 657 1337 570 c 128,-1,33
 1413 483 1413 483 1413 357 c 2,34,-1
 1413 279 l 2,35,36
 1413 153 1413 153 1337.5 66 c 128,-1,37
 1262 -21 1262 -21 1143 -21 c 0,38,39
 1022 -21 1022 -21 946 66 c 128,-1,40
 870 153 870 153 870 279 c 2,41,-1
 870 357 l 2,28,29
925 279 m 2,42,43
 925 178 925 178 981 106 c 128,-1,44
 1037 34 1037 34 1143 34 c 0,45,46
 1246 34 1246 34 1302 106 c 128,-1,47
 1358 178 1358 178 1358 279 c 2,48,-1
 1358 357 l 2,49,50
 1358 463 1358 463 1302 532.5 c 128,-1,51
 1246 602 1246 602 1141 602 c 0,52,53
 1038 602 1038 602 981.5 532 c 128,-1,54
 925 462 925 462 925 357 c 2,55,-1
 925 279 l 2,42,43
462 131 m 1,56,-1
 417 162 l 1,57,-1
 1128 1300 l 1,58,-1
 1173 1269 l 1,59,-1
 462 131 l 1,56,-1
EndSplineSet
Validated: 1
EndChar

StartChar: ampersand
Encoding: 38 38 9
Width: 1247
GlyphClass: 1
Flags: W
LayerCount: 2
Fore
SplineSet
422 803 m 1,0,1
 340 906 340 906 301 991 c 128,-1,2
 262 1076 262 1076 262 1167 c 0,3,4
 262 1316 262 1316 343.5 1396.5 c 128,-1,5
 425 1477 425 1477 567 1477 c 0,6,7
 699 1477 699 1477 771 1405 c 128,-1,8
 843 1333 843 1333 843 1215 c 0,9,10
 843 1131 843 1131 804.5 1072.5 c 128,-1,11
 766 1014 766 1014 696 958 c 2,12,-1
 494 797 l 1,13,-1
 969 257 l 1,14,15
 1023 333 1023 333 1053.5 428 c 128,-1,16
 1084 523 1084 523 1084 632 c 1,17,-1
 1139 632 l 1,18,19
 1139 507 1139 507 1104 404.5 c 128,-1,20
 1069 302 1069 302 1006 216 c 1,21,-1
 1191 5 l 1,22,-1
 1189 0 l 1,23,-1
 1129 0 l 1,24,-1
 972 177 l 1,25,26
 967 172 967 172 964 169 c 128,-1,27
 961 166 961 166 960 164 c 0,28,29
 870 75 870 75 771.5 27 c 128,-1,30
 673 -21 673 -21 549 -21 c 0,31,32
 347 -21 347 -21 231 79.5 c 128,-1,33
 115 180 115 180 115 352 c 0,34,35
 115 466 115 466 182.5 563 c 128,-1,36
 250 660 250 660 371 762 c 2,37,-1
 422 803 l 1,0,1
549 33 m 0,38,39
 659 33 659 33 760 80.5 c 128,-1,40
 861 128 861 128 937 216 c 1,41,-1
 488 725 l 2,42,43
 480 733 480 733 472.5 742 c 128,-1,44
 465 751 465 751 454 764 c 1,45,-1
 402 723 l 1,46,47
 265 605 265 605 217 517.5 c 128,-1,48
 169 430 169 430 169 352 c 0,49,50
 169 218 169 218 267 125.5 c 128,-1,51
 365 33 365 33 549 33 c 0,38,39
317 1169 m 0,52,53
 317 1090 317 1090 352 1006 c 128,-1,54
 387 922 387 922 462 834 c 1,55,-1
 671 1000 l 2,56,57
 731 1050 731 1050 759 1103.5 c 128,-1,58
 787 1157 787 1157 787 1215 c 0,59,60
 787 1309 787 1309 730.5 1366 c 128,-1,61
 674 1423 674 1423 567 1423 c 0,62,63
 447 1423 447 1423 382 1350.5 c 128,-1,64
 317 1278 317 1278 317 1169 c 0,52,53
EndSplineSet
Validated: 1
EndChar

StartChar: quotesingle
Encoding: 39 39 10
Width: 406
GlyphClass: 1
Flags: W
LayerCount: 2
Fore
SplineSet
256 1287 m 1,0,-1
 206 1018 l 1,1,-1
 156 1018 l 1,2,-1
 201 1285 l 1,3,-1
 201 1456 l 1,4,-1
 256 1456 l 1,5,-1
 256 1287 l 1,0,-1
EndSplineSet
Validated: 1
EndChar

StartChar: parenleft
Encoding: 40 40 11
Width: 607
GlyphClass: 1
Flags: W
LayerCount: 2
Fore
SplineSet
148 586 m 2,0,1
 148 924 148 924 268.5 1218.5 c 128,-1,2
 389 1513 389 1513 559 1616 c 1,3,-1
 565 1616 l 1,4,-1
 581 1580 l 1,5,6
 428 1479 428 1479 315 1192.5 c 128,-1,7
 202 906 202 906 202 590 c 2,8,-1
 202 564 l 2,9,10
 202 247 202 247 315 -39.5 c 128,-1,11
 428 -326 428 -326 581 -427 c 1,12,-1
 565 -463 l 1,13,-1
 559 -463 l 1,14,15
 387 -358 387 -358 267.5 -72.5 c 128,-1,16
 148 213 148 213 148 566 c 2,17,-1
 148 586 l 2,0,1
EndSplineSet
Validated: 1
EndChar

StartChar: parenright
Encoding: 41 41 12
Width: 623
GlyphClass: 1
Flags: W
LayerCount: 2
Fore
SplineSet
461 566 m 2,0,1
 461 213 461 213 341 -72.5 c 128,-1,2
 221 -358 221 -358 50 -463 c 1,3,-1
 44 -463 l 1,4,-1
 28 -427 l 1,5,6
 180 -326 180 -326 293.5 -39.5 c 128,-1,7
 407 247 407 247 407 564 c 2,8,-1
 407 590 l 2,9,10
 407 906 407 906 293.5 1192.5 c 128,-1,11
 180 1479 180 1479 28 1580 c 1,12,-1
 44 1616 l 1,13,-1
 50 1616 l 1,14,15
 219 1513 219 1513 340 1218.5 c 128,-1,16
 461 924 461 924 461 586 c 2,17,-1
 461 566 l 2,0,1
EndSplineSet
Validated: 1
EndChar

StartChar: asterisk
Encoding: 42 42 13
Width: 856
GlyphClass: 1
Flags: W
LayerCount: 2
Fore
SplineSet
393 715 m 1,0,-1
 90 799 l 1,1,-1
 108 853 l 1,2,-1
 410 760 l 1,3,-1
 403 1084 l 1,4,-1
 459 1082 l 1,5,-1
 460 757 l 1,6,-1
 752 862 l 1,7,-1
 772 809 l 1,8,-1
 472 712 l 1,9,-1
 661 455 l 1,10,-1
 614 422 l 1,11,-1
 432 684 l 1,12,-1
 254 419 l 1,13,-1
 209 451 l 1,14,-1
 393 715 l 1,0,-1
EndSplineSet
Validated: 1
EndChar

StartChar: plus
Encoding: 43 43 14
Width: 1151
GlyphClass: 1
Flags: W
LayerCount: 2
Fore
SplineSet
590 702 m 1,0,-1
 1071 702 l 1,1,-1
 1071 649 l 1,2,-1
 590 649 l 1,3,-1
 590 146 l 1,4,-1
 535 146 l 1,5,-1
 535 649 l 1,6,-1
 73 649 l 1,7,-1
 73 702 l 1,8,-1
 535 702 l 1,9,-1
 535 1206 l 1,10,-1
 590 1206 l 1,11,-1
 590 702 l 1,0,-1
EndSplineSet
Validated: 1
EndChar

StartChar: comma
Encoding: 44 44 15
Width: 383
GlyphClass: 1
Flags: W
LayerCount: 2
Fore
SplineSet
235 -8 m 1,0,-1
 165 -258 l 1,1,-1
 114 -258 l 1,2,-1
 181 -12 l 1,3,-1
 181 159 l 1,4,-1
 235 159 l 1,5,-1
 235 -8 l 1,0,-1
EndSplineSet
Validated: 1
EndChar

StartChar: hyphen
Encoding: 45 45 16
Width: 807
GlyphClass: 1
Flags: W
LayerCount: 2
Fore
SplineSet
689 599 m 1,0,-1
 99 599 l 1,1,-1
 99 653 l 1,2,-1
 689 653 l 1,3,-1
 689 599 l 1,0,-1
EndSplineSet
Validated: 1
EndChar

StartChar: period
Encoding: 46 46 17
Width: 439
GlyphClass: 1
Flags: W
LayerCount: 2
Fore
SplineSet
259 0 m 1,0,-1
 173 0 l 1,1,-1
 173 130 l 1,2,-1
 259 130 l 1,3,-1
 259 0 l 1,0,-1
EndSplineSet
Validated: 1
EndChar

StartChar: slash
Encoding: 47 47 18
Width: 782
GlyphClass: 1
Flags: W
LayerCount: 2
Fore
SplineSet
101 -125 m 1,0,-1
 42 -125 l 1,1,-1
 650 1456 l 1,2,-1
 709 1456 l 1,3,-1
 101 -125 l 1,0,-1
EndSplineSet
Validated: 1
EndChar

StartChar: zero
Encoding: 48 48 19
Width: 1121
GlyphClass: 1
Flags: W
LayerCount: 2
Fore
SplineSet
1004 514 m 2,0,1
 1004 263 1004 263 888 121 c 128,-1,2
 772 -21 772 -21 562 -21 c 0,3,4
 353 -21 353 -21 235 121.5 c 128,-1,5
 117 264 117 264 117 514 c 2,6,-1
 117 942 l 2,7,8
 117 1192 117 1192 233.5 1334.5 c 128,-1,9
 350 1477 350 1477 560 1477 c 0,10,11
 769 1477 769 1477 886.5 1334.5 c 128,-1,12
 1004 1192 1004 1192 1004 942 c 2,13,-1
 1004 514 l 2,0,1
950 942 m 2,14,15
 950 1162 950 1162 849 1292.5 c 128,-1,16
 748 1423 748 1423 560 1423 c 0,17,18
 371 1423 371 1423 271 1292.5 c 128,-1,19
 171 1162 171 1162 171 942 c 2,20,-1
 171 516 l 2,21,22
 171 299 171 299 272.5 166 c 128,-1,23
 374 33 374 33 562 33 c 0,24,25
 749 33 749 33 849.5 165.5 c 128,-1,26
 950 298 950 298 950 516 c 2,27,-1
 950 942 l 2,14,15
EndSplineSet
Validated: 1
EndChar

StartChar: one
Encoding: 49 49 20
Width: 1121
GlyphClass: 1
Flags: W
LayerCount: 2
Fore
SplineSet
616 0 m 1,0,-1
 562 0 l 1,1,-1
 562 1425 l 1,2,-1
 194 1347 l 1,3,-1
 194 1393 l 1,4,-1
 616 1477 l 1,5,-1
 616 0 l 1,0,-1
EndSplineSet
Validated: 1
EndChar

StartChar: two
Encoding: 50 50 21
Width: 1121
GlyphClass: 1
Flags: W
LayerCount: 2
Fore
SplineSet
1027 0 m 1,0,-1
 156 0 l 1,1,-1
 156 54 l 1,2,-1
 653 626 l 2,3,4
 786 780 786 780 840 883.5 c 128,-1,5
 894 987 894 987 894 1086 c 0,6,7
 894 1248 894 1248 812 1335.5 c 128,-1,8
 730 1423 730 1423 559 1423 c 0,9,10
 380 1423 380 1423 282 1318 c 128,-1,11
 184 1213 184 1213 184 1046 c 1,12,-1
 138 1046 l 1,13,-1
 136 1052 l 1,14,15
 131 1229 131 1229 247.5 1353 c 128,-1,16
 364 1477 364 1477 559 1477 c 0,17,18
 738 1477 738 1477 843.5 1375 c 128,-1,19
 949 1273 949 1273 949 1086 c 0,20,21
 949 965 949 965 870.5 839 c 128,-1,22
 792 713 792 713 649 546 c 2,23,-1
 232 59 l 1,24,-1
 234 54 l 1,25,-1
 1027 54 l 1,26,-1
 1027 0 l 1,0,-1
EndSplineSet
Validated: 33
EndChar

StartChar: three
Encoding: 51 51 22
Width: 1121
GlyphClass: 1
Flags: W
LayerCount: 2
Fore
SplineSet
528 771 m 2,0,1
 711 771 711 771 816 862 c 128,-1,2
 921 953 921 953 921 1086 c 0,3,4
 921 1233 921 1233 830.5 1328 c 128,-1,5
 740 1423 740 1423 564 1423 c 0,6,7
 402 1423 402 1423 295 1328 c 128,-1,8
 188 1233 188 1233 188 1075 c 1,9,-1
 142 1075 l 1,10,-1
 140 1081 l 1,11,12
 135 1258 135 1258 258.5 1367.5 c 128,-1,13
 382 1477 382 1477 564 1477 c 0,14,15
 752 1477 752 1477 863.5 1370.5 c 128,-1,16
 975 1264 975 1264 975 1082 c 0,17,18
 975 967 975 967 902.5 876 c 128,-1,19
 830 785 830 785 707 745 c 1,20,21
 849 710 849 710 928 618 c 128,-1,22
 1007 526 1007 526 1007 386 c 0,23,24
 1007 196 1007 196 886 87.5 c 128,-1,25
 765 -21 765 -21 573 -21 c 0,26,27
 388 -21 388 -21 246 88.5 c 128,-1,28
 104 198 104 198 109 399 c 1,29,-1
 111 405 l 1,30,-1
 157 405 l 1,31,32
 157 243 157 243 275.5 138 c 128,-1,33
 394 33 394 33 573 33 c 0,34,35
 753 33 753 33 853 125.5 c 128,-1,36
 953 218 953 218 953 382 c 0,37,38
 953 552 953 552 838.5 633.5 c 128,-1,39
 724 715 724 715 528 715 c 2,40,-1
 417 715 l 1,41,-1
 417 771 l 1,42,-1
 528 771 l 2,0,1
EndSplineSet
Validated: 33
EndChar

StartChar: four
Encoding: 52 52 23
Width: 1121
GlyphClass: 1
Flags: W
LayerCount: 2
Fore
SplineSet
832 451 m 1,0,-1
 1084 451 l 1,1,-1
 1084 397 l 1,2,-1
 832 397 l 1,3,-1
 832 0 l 1,4,-1
 778 0 l 1,5,-1
 778 397 l 1,6,-1
 72 397 l 1,7,-1
 72 427 l 1,8,-1
 767 1456 l 1,9,-1
 832 1456 l 1,10,-1
 832 451 l 1,0,-1
156 451 m 1,11,-1
 778 451 l 1,12,-1
 778 1380 l 1,13,-1
 772 1382 l 1,14,-1
 694 1253 l 1,15,-1
 156 451 l 1,11,-1
EndSplineSet
Validated: 1
EndChar

StartChar: five
Encoding: 53 53 24
Width: 1121
GlyphClass: 1
Flags: W
LayerCount: 2
Fore
SplineSet
197 662 m 1,0,-1
 275 1456 l 1,1,-1
 965 1456 l 1,2,-1
 965 1403 l 1,3,-1
 324 1403 l 1,4,-1
 263 785 l 1,5,6
 326 848 326 848 400.5 880 c 128,-1,7
 475 912 475 912 620 916 c 0,8,9
 794 921 794 921 907 797 c 128,-1,10
 1020 673 1020 673 1020 464 c 0,11,12
 1020 241 1020 241 915 110 c 128,-1,13
 810 -21 810 -21 590 -21 c 0,14,15
 413 -21 413 -21 296 79.5 c 128,-1,16
 179 180 179 180 184 377 c 1,17,-1
 186 383 l 1,18,-1
 233 383 l 1,19,20
 233 211 233 211 329 122 c 128,-1,21
 425 33 425 33 590 33 c 0,22,23
 784 33 784 33 874.5 140 c 128,-1,24
 965 247 965 247 965 462 c 0,25,26
 965 646 965 646 874.5 752 c 128,-1,27
 784 858 784 858 621 858 c 0,28,29
 461 858 461 858 369.5 804.5 c 128,-1,30
 278 751 278 751 238 646 c 1,31,-1
 197 662 l 1,0,-1
EndSplineSet
Validated: 33
EndChar

StartChar: six
Encoding: 54 54 25
Width: 1121
GlyphClass: 1
Flags: W
LayerCount: 2
Fore
SplineSet
613 1477 m 0,0,1
 691 1477 691 1477 768 1460.5 c 128,-1,2
 845 1444 845 1444 908 1407 c 1,3,-1
 887 1356 l 1,4,5
 822 1393 822 1393 760.5 1408 c 128,-1,6
 699 1423 699 1423 613 1423 c 0,7,8
 447 1423 447 1423 335.5 1296.5 c 128,-1,9
 224 1170 224 1170 224 961 c 2,10,-1
 224 662 l 1,11,12
 273 772 273 772 379.5 844.5 c 128,-1,13
 486 917 486 917 624 917 c 0,14,15
 822 917 822 917 928.5 790.5 c 128,-1,16
 1035 664 1035 664 1035 440 c 0,17,18
 1035 236 1035 236 914.5 107.5 c 128,-1,19
 794 -21 794 -21 604 -21 c 256,20,21
 414 -21 414 -21 292 124.5 c 128,-1,22
 170 270 170 270 170 512 c 2,23,-1
 170 960 l 2,24,25
 170 1188 170 1188 297 1332.5 c 128,-1,26
 424 1477 424 1477 613 1477 c 0,0,1
224 516 m 1,27,-1
 224 513 l 2,28,29
 224 297 224 297 330 164.5 c 128,-1,30
 436 32 436 32 604 32 c 0,31,32
 773 32 773 32 877 149 c 128,-1,33
 981 266 981 266 981 440 c 0,34,35
 981 646 981 646 891 754.5 c 128,-1,36
 801 863 801 863 617 863 c 0,37,38
 463 863 463 863 344 760 c 128,-1,39
 225 657 225 657 225 516 c 1,40,-1
 224 516 l 1,27,-1
EndSplineSet
Validated: 1
EndChar

StartChar: seven
Encoding: 55 55 26
Width: 1121
GlyphClass: 1
Flags: W
LayerCount: 2
Fore
SplineSet
1017 1402 m 1,0,1
 798 1156 798 1156 652 841 c 128,-1,2
 506 526 506 526 506 131 c 2,3,-1
 506 0 l 1,4,-1
 452 0 l 1,5,-1
 452 131 l 2,6,7
 452 493 452 493 586 814 c 128,-1,8
 720 1135 720 1135 952 1402 c 1,9,-1
 87 1402 l 1,10,-1
 87 1456 l 1,11,-1
 1017 1456 l 1,12,-1
 1017 1402 l 1,0,1
EndSplineSet
Validated: 1
EndChar

StartChar: eight
Encoding: 56 56 27
Width: 1121
GlyphClass: 1
Flags: W
LayerCount: 2
Fore
SplineSet
984 1096 m 0,0,1
 984 974 984 974 910.5 883 c 128,-1,2
 837 792 837 792 719 755 c 1,3,4
 855 717 855 717 940.5 619 c 128,-1,5
 1026 521 1026 521 1026 389 c 0,6,7
 1026 197 1026 197 896 88 c 128,-1,8
 766 -21 766 -21 573 -21 c 0,9,10
 367 -21 367 -21 232.5 87.5 c 128,-1,11
 98 196 98 196 98 389 c 0,12,13
 98 521 98 521 185.5 619.5 c 128,-1,14
 273 718 273 718 416 755 c 1,15,16
 291 792 291 792 215 883 c 128,-1,17
 139 974 139 974 139 1096 c 0,18,19
 139 1278 139 1278 261 1377.5 c 128,-1,20
 383 1477 383 1477 571 1477 c 0,21,22
 748 1477 748 1477 866 1377 c 128,-1,23
 984 1277 984 1277 984 1096 c 0,0,1
971 384 m 0,24,25
 971 537 971 537 854.5 632.5 c 128,-1,26
 738 728 738 728 571 728 c 0,27,28
 393 728 393 728 272.5 632.5 c 128,-1,29
 152 537 152 537 152 384 c 0,30,31
 152 223 152 223 272 128 c 128,-1,32
 392 33 392 33 573 33 c 0,33,34
 741 33 741 33 856 128.5 c 128,-1,35
 971 224 971 224 971 384 c 0,24,25
930 1101 m 0,36,37
 930 1243 930 1243 825 1333 c 128,-1,38
 720 1423 720 1423 571 1423 c 0,39,40
 408 1423 408 1423 300.5 1336.5 c 128,-1,41
 193 1250 193 1250 193 1101 c 0,42,43
 193 956 193 956 301.5 869 c 128,-1,44
 410 782 410 782 573 782 c 0,45,46
 723 782 723 782 826.5 869.5 c 128,-1,47
 930 957 930 957 930 1101 c 0,36,37
EndSplineSet
Validated: 1
EndChar

StartChar: nine
Encoding: 57 57 28
Width: 1121
GlyphClass: 1
Flags: W
LayerCount: 2
Fore
SplineSet
532 33 m 0,0,1
 707 33 707 33 809 146 c 128,-1,2
 911 259 911 259 911 458 c 2,3,-1
 911 750 l 1,4,5
 855 646 855 646 752.5 587 c 128,-1,6
 650 528 650 528 523 528 c 0,7,8
 334 528 334 528 214.5 661 c 128,-1,9
 95 794 95 794 95 988 c 0,10,11
 95 1194 95 1194 217.5 1335.5 c 128,-1,12
 340 1477 340 1477 531 1477 c 0,13,14
 727 1477 727 1477 850 1344 c 128,-1,15
 973 1211 973 1211 973 963 c 2,16,-1
 973 460 l 2,17,18
 973 236 973 236 852 107.5 c 128,-1,19
 731 -21 731 -21 532 -21 c 0,20,21
 461 -21 461 -21 388 -5 c 128,-1,22
 315 11 315 11 239 42 c 1,23,-1
 255 92 l 1,24,25
 321 60 321 60 384.5 46.5 c 128,-1,26
 448 33 448 33 532 33 c 0,0,1
523 581 m 0,27,28
 672 581 672 581 772 660.5 c 128,-1,29
 872 740 872 740 911 854 c 1,30,-1
 911 962 l 2,31,32
 911 1184 911 1184 806.5 1303.5 c 128,-1,33
 702 1423 702 1423 535 1423 c 0,34,35
 367 1423 367 1423 262 1293.5 c 128,-1,36
 157 1164 157 1164 157 988 c 0,37,38
 157 819 157 819 256.5 700 c 128,-1,39
 356 581 356 581 523 581 c 0,27,28
EndSplineSet
Validated: 1
EndChar

StartChar: less
Encoding: 60 60 31
Width: 1053
GlyphClass: 1
Flags: W
LayerCount: 2
Fore
SplineSet
258 577 m 1,0,-1
 139 540 l 1,1,-1
 139 534 l 1,2,-1
 258 498 l 1,3,-1
 919 195 l 1,4,-1
 919 136 l 1,5,-1
 82 515 l 1,6,-1
 82 565 l 1,7,-1
 919 943 l 1,8,-1
 919 885 l 1,9,-1
 258 577 l 1,0,-1
EndSplineSet
Validated: 1
EndChar

StartChar: equal
Encoding: 61 61 32
Width: 1142
GlyphClass: 1
Flags: W
LayerCount: 2
Fore
SplineSet
981 843 m 1,0,-1
 147 843 l 1,1,-1
 147 897 l 1,2,-1
 981 897 l 1,3,-1
 981 843 l 1,0,-1
981 436 m 1,4,-1
 147 436 l 1,5,-1
 147 490 l 1,6,-1
 981 490 l 1,7,-1
 981 436 l 1,4,-1
EndSplineSet
Validated: 1
EndChar

StartChar: greater
Encoding: 62 62 33
Width: 1053
GlyphClass: 1
Flags: W
LayerCount: 2
Fore
SplineSet
114 886 m 1,0,-1
 114 944 l 1,1,-1
 950 566 l 1,2,-1
 950 516 l 1,3,-1
 114 137 l 1,4,-1
 114 196 l 1,5,-1
 774 503 l 1,6,-1
 892 539 l 1,7,-1
 892 545 l 1,8,-1
 774 582 l 1,9,-1
 114 886 l 1,0,-1
EndSplineSet
Validated: 1
EndChar

StartChar: question
Encoding: 63 63 34
Width: 893
GlyphClass: 1
Flags: W
LayerCount: 2
Fore
SplineSet
395 400 m 1,0,1
 396 517 396 517 415.5 565.5 c 128,-1,2
 435 614 435 614 520 692 c 0,3,4
 641 808 641 808 694 889.5 c 128,-1,5
 747 971 747 971 747 1112 c 0,6,7
 747 1258 747 1258 669 1341 c 128,-1,8
 591 1424 591 1424 448 1424 c 0,9,10
 306 1424 306 1424 228 1339.5 c 128,-1,11
 150 1255 150 1255 147 1116 c 1,12,-1
 101 1116 l 1,13,-1
 98 1122 l 1,14,15
 96 1292 96 1292 194.5 1384.5 c 128,-1,16
 293 1477 293 1477 448 1477 c 0,17,18
 612 1477 612 1477 706.5 1376 c 128,-1,19
 801 1275 801 1275 801 1110 c 0,20,21
 801 969 801 969 738.5 867 c 128,-1,22
 676 765 676 765 548 650 c 1,23,24
 479 597 479 597 464 548.5 c 128,-1,25
 449 500 449 500 449 400 c 1,26,-1
 395 400 l 1,0,1
473 0 m 1,27,-1
 391 0 l 1,28,-1
 391 106 l 1,29,-1
 473 106 l 1,30,-1
 473 0 l 1,27,-1
EndSplineSet
Validated: 33
EndChar

StartChar: at
Encoding: 64 64 35
Width: 1902
GlyphClass: 1
Flags: W
LayerCount: 2
Fore
SplineSet
1767 523 m 0,0,1
 1757 304 1757 304 1653 141.5 c 128,-1,2
 1549 -21 1549 -21 1357 -21 c 0,3,4
 1274 -21 1274 -21 1222 40 c 128,-1,5
 1170 101 1170 101 1161 209 c 1,6,7
 1106 95 1106 95 1022 37 c 128,-1,8
 938 -21 938 -21 829 -21 c 0,9,10
 693 -21 693 -21 626 98 c 128,-1,11
 559 217 559 217 578 416 c 0,12,13
 601 666 601 666 722 817 c 128,-1,14
 843 968 843 968 1015 968 c 0,15,16
 1098 968 1098 968 1150 940.5 c 128,-1,17
 1202 913 1202 913 1265 858 c 1,18,-1
 1216 293 l 2,19,20
 1205 141 1205 141 1252.5 87.5 c 128,-1,21
 1300 34 1300 34 1360 34 c 0,22,23
 1518 34 1518 34 1608.5 168.5 c 128,-1,24
 1699 303 1699 303 1710 523 c 0,25,26
 1730 919 1730 919 1556 1136.5 c 128,-1,27
 1382 1354 1382 1354 997 1354 c 0,28,29
 661 1354 661 1354 432.5 1114.5 c 128,-1,30
 204 875 204 875 184 478 c 0,31,32
 164 95 164 95 358.5 -151.5 c 128,-1,33
 553 -398 553 -398 910 -398 c 0,34,35
 997 -398 997 -398 1087.5 -376 c 128,-1,36
 1178 -354 1178 -354 1240 -318 c 1,37,-1
 1264 -364 l 1,38,39
 1202 -404 1202 -404 1100 -428.5 c 128,-1,40
 998 -453 998 -453 906 -453 c 0,41,42
 526 -453 526 -453 318 -203.5 c 128,-1,43
 110 46 110 46 129 478 c 0,44,45
 147 905 147 905 384.5 1158 c 128,-1,46
 622 1411 622 1411 1001 1411 c 0,47,48
 1403 1411 1403 1411 1593.5 1177 c 128,-1,49
 1784 943 1784 943 1767 523 c 0,0,1
632 416 m 0,50,51
 613 249 613 249 663.5 141 c 128,-1,52
 714 33 714 33 827 33 c 0,53,54
 935 33 935 33 1021 99.5 c 128,-1,55
 1107 166 1107 166 1165 345 c 1,56,-1
 1207 831 l 1,57,58
 1173 870 1173 870 1124.5 891.5 c 128,-1,59
 1076 913 1076 913 1012 913 c 0,60,61
 870 913 870 913 764 786.5 c 128,-1,62
 658 660 658 660 632 416 c 0,50,51
EndSplineSet
Validated: 33
EndChar

StartChar: A
Encoding: 65 65 36
Width: 1223
GlyphClass: 1
Flags: W
LayerCount: 2
Fore
SplineSet
967 435 m 1,0,-1
 256 435 l 1,1,-1
 93 0 l 1,2,-1
 34 0 l 1,3,-1
 578 1456 l 1,4,-1
 644 1456 l 1,5,-1
 1189 0 l 1,6,-1
 1130 0 l 1,7,-1
 967 435 l 1,0,-1
276 489 m 1,8,-1
 947 489 l 1,9,-1
 642 1304 l 1,10,-1
 614 1389 l 1,11,-1
 608 1389 l 1,12,-1
 581 1304 l 1,13,-1
 276 489 l 1,8,-1
EndSplineSet
Validated: 1
Substitution2: "'smcp' Lowercase to Small Capitals lookup 0 subtable" A.smcp
EndChar

StartChar: B
Encoding: 66 66 37
Width: 1230
GlyphClass: 1
Flags: W
LayerCount: 2
Fore
SplineSet
200 0 m 1,0,-1
 200 1456 l 1,1,-1
 583 1456 l 2,2,3
 809 1456 809 1456 934 1363 c 128,-1,4
 1059 1270 1059 1270 1059 1083 c 0,5,6
 1059 961 1059 961 999.5 875 c 128,-1,7
 940 789 940 789 831 760 c 1,8,-1
 830 754 l 1,9,10
 959 737 959 737 1047 635.5 c 128,-1,11
 1135 534 1135 534 1135 401 c 0,12,13
 1135 210 1135 210 1011.5 105 c 128,-1,14
 888 0 888 0 685 0 c 2,15,-1
 200 0 l 1,0,-1
254 719 m 1,16,-1
 254 54 l 1,17,-1
 685 54 l 2,18,19
 869 54 869 54 975 145 c 128,-1,20
 1081 236 1081 236 1081 399 c 0,21,22
 1081 543 1081 543 974 631 c 128,-1,23
 867 719 867 719 685 719 c 2,24,-1
 254 719 l 1,16,-1
254 773 m 1,25,-1
 622 773 l 2,26,27
 811 776 811 776 907.5 854 c 128,-1,28
 1004 932 1004 932 1004 1087 c 0,29,30
 1004 1243 1004 1243 897.5 1322.5 c 128,-1,31
 791 1402 791 1402 583 1402 c 2,32,-1
 254 1402 l 1,33,-1
 254 773 l 1,25,-1
EndSplineSet
Validated: 1
Substitution2: "'smcp' Lowercase to Small Capitals lookup 0 subtable" B.smcp
EndChar

StartChar: C
Encoding: 67 67 38
Width: 1327
GlyphClass: 1
Flags: W
LayerCount: 2
Fore
SplineSet
1172 446 m 1,0,-1
 1174 440 l 1,1,2
 1178 216 1178 216 1038.5 97.5 c 128,-1,3
 899 -21 899 -21 671 -21 c 0,4,5
 432 -21 432 -21 288 155.5 c 128,-1,6
 144 332 144 332 144 619 c 2,7,-1
 144 837 l 2,8,9
 144 1123 144 1123 288 1300 c 128,-1,10
 432 1477 432 1477 671 1477 c 0,11,12
 899 1477 899 1477 1038.5 1358 c 128,-1,13
 1178 1239 1178 1239 1174 1018 c 1,14,-1
 1172 1012 l 1,15,-1
 1126 1012 l 1,16,17
 1126 1209 1126 1209 1003.5 1316 c 128,-1,18
 881 1423 881 1423 671 1423 c 0,19,20
 458 1423 458 1423 328 1262 c 128,-1,21
 198 1101 198 1101 198 839 c 2,22,-1
 198 619 l 2,23,24
 198 354 198 354 328 193.5 c 128,-1,25
 458 33 458 33 671 33 c 0,26,27
 881 33 881 33 1003.5 136 c 128,-1,28
 1126 239 1126 239 1126 446 c 1,29,-1
 1172 446 l 1,0,-1
EndSplineSet
Validated: 33
Substitution2: "'smcp' Lowercase to Small Capitals lookup 0 subtable" C.smcp
EndChar

StartChar: D
Encoding: 68 68 39
Width: 1370
GlyphClass: 1
Flags: W
LayerCount: 2
Fore
SplineSet
200 0 m 1,0,-1
 200 1456 l 1,1,-1
 633 1456 l 2,2,3
 884 1456 884 1456 1059 1276 c 128,-1,4
 1234 1096 1234 1096 1234 817 c 2,5,-1
 1234 639 l 2,6,7
 1234 359 1234 359 1059 179.5 c 128,-1,8
 884 0 884 0 633 0 c 2,9,-1
 200 0 l 1,0,-1
254 1402 m 1,10,-1
 254 54 l 1,11,-1
 633 54 l 2,12,13
 860 54 860 54 1020 220 c 128,-1,14
 1180 386 1180 386 1180 639 c 2,15,-1
 1180 820 l 2,16,17
 1180 1070 1180 1070 1020 1236 c 128,-1,18
 860 1402 860 1402 633 1402 c 2,19,-1
 254 1402 l 1,10,-1
EndSplineSet
Validated: 1
Substitution2: "'smcp' Lowercase to Small Capitals lookup 0 subtable" D.smcp
EndChar

StartChar: E
Encoding: 69 69 40
Width: 1129
GlyphClass: 1
Flags: W
LayerCount: 2
Fore
SplineSet
954 732 m 1,0,-1
 254 732 l 1,1,-1
 254 54 l 1,2,-1
 1056 54 l 1,3,-1
 1056 0 l 1,4,-1
 200 0 l 1,5,-1
 200 1456 l 1,6,-1
 1056 1456 l 1,7,-1
 1056 1402 l 1,8,-1
 254 1402 l 1,9,-1
 254 786 l 1,10,-1
 954 786 l 1,11,-1
 954 732 l 1,0,-1
EndSplineSet
Validated: 1
Substitution2: "'smcp' Lowercase to Small Capitals lookup 0 subtable" E.smcp
EndChar

StartChar: F
Encoding: 70 70 41
Width: 1127
GlyphClass: 1
Flags: W
LayerCount: 2
Fore
SplineSet
970 716 m 1,0,-1
 254 716 l 1,1,-1
 254 0 l 1,2,-1
 200 0 l 1,3,-1
 200 1456 l 1,4,-1
 1072 1456 l 1,5,-1
 1072 1402 l 1,6,-1
 254 1402 l 1,7,-1
 254 772 l 1,8,-1
 970 772 l 1,9,-1
 970 716 l 1,0,-1
EndSplineSet
Validated: 1
Substitution2: "'smcp' Lowercase to Small Capitals lookup 0 subtable" F.smcp
EndChar

StartChar: G
Encoding: 71 71 42
Width: 1429
GlyphClass: 1
Flags: W
LayerCount: 2
Fore
SplineSet
1226 196 m 1,0,1
 1180 118 1180 118 1049.5 48.5 c 128,-1,2
 919 -21 919 -21 729 -21 c 0,3,4
 479 -21 479 -21 323.5 157 c 128,-1,5
 168 335 168 335 168 620 c 2,6,-1
 168 858 l 2,7,8
 168 1132 168 1132 319 1304.5 c 128,-1,9
 470 1477 470 1477 712 1477 c 0,10,11
 945 1477 945 1477 1083.5 1357 c 128,-1,12
 1222 1237 1222 1237 1217 1049 c 1,13,-1
 1215 1043 l 1,14,-1
 1170 1043 l 1,15,16
 1170 1210 1170 1210 1050.5 1316.5 c 128,-1,17
 931 1423 931 1423 712 1423 c 0,18,19
 491 1423 491 1423 356.5 1265.5 c 128,-1,20
 222 1108 222 1108 222 860 c 2,21,-1
 222 620 l 2,22,23
 222 360 222 360 361 196.5 c 128,-1,24
 500 33 500 33 729 33 c 0,25,26
 904 33 904 33 1017.5 90 c 128,-1,27
 1131 147 1131 147 1172 221 c 1,28,-1
 1172 635 l 1,29,-1
 727 635 l 1,30,-1
 727 690 l 1,31,-1
 1226 690 l 1,32,-1
 1226 196 l 1,0,1
EndSplineSet
Validated: 33
Substitution2: "'smcp' Lowercase to Small Capitals lookup 0 subtable" G.smcp
EndChar

StartChar: H
Encoding: 72 72 43
Width: 1438
GlyphClass: 1
Flags: W
LayerCount: 2
Fore
SplineSet
1238 0 m 1,0,-1
 1184 0 l 1,1,-1
 1184 695 l 1,2,-1
 254 695 l 1,3,-1
 254 0 l 1,4,-1
 200 0 l 1,5,-1
 200 1456 l 1,6,-1
 254 1456 l 1,7,-1
 254 749 l 1,8,-1
 1184 749 l 1,9,-1
 1184 1456 l 1,10,-1
 1238 1456 l 1,11,-1
 1238 0 l 1,0,-1
EndSplineSet
Validated: 1
Substitution2: "'smcp' Lowercase to Small Capitals lookup 0 subtable" H.smcp
EndChar

StartChar: I
Encoding: 73 73 44
Width: 534
GlyphClass: 1
Flags: W
LayerCount: 2
Fore
SplineSet
294 0 m 1,0,-1
 240 0 l 1,1,-1
 240 1456 l 1,2,-1
 294 1456 l 1,3,-1
 294 0 l 1,0,-1
EndSplineSet
Validated: 1
Substitution2: "'smcp' Lowercase to Small Capitals lookup 0 subtable" I.smcp
EndChar

StartChar: J
Encoding: 74 74 45
Width: 1122
GlyphClass: 1
Flags: W
LayerCount: 2
Fore
SplineSet
873 1456 m 1,0,-1
 927 1456 l 1,1,-1
 927 422 l 2,2,3
 927 219 927 219 813 99 c 128,-1,4
 699 -21 699 -21 519 -21 c 0,5,6
 319 -21 319 -21 203.5 85 c 128,-1,7
 88 191 88 191 93 395 c 1,8,-1
 95 401 l 1,9,-1
 141 401 l 1,10,11
 141 212 141 212 236.5 122.5 c 128,-1,12
 332 33 332 33 519 33 c 0,13,14
 672 33 672 33 772.5 138 c 128,-1,15
 873 243 873 243 873 422 c 2,16,-1
 873 1456 l 1,0,-1
EndSplineSet
Validated: 33
Substitution2: "'smcp' Lowercase to Small Capitals lookup 0 subtable" J.smcp
EndChar

StartChar: K
Encoding: 75 75 46
Width: 1227
GlyphClass: 1
Flags: W
LayerCount: 2
Fore
SplineSet
437 721 m 1,0,-1
 254 721 l 1,1,-1
 254 0 l 1,2,-1
 200 0 l 1,3,-1
 200 1456 l 1,4,-1
 254 1456 l 1,5,-1
 254 774 l 1,6,-1
 452 774 l 1,7,-1
 1050 1456 l 1,8,-1
 1114 1456 l 1,9,-1
 1116 1451 l 1,10,-1
 497 740 l 1,11,-1
 1192 6 l 1,12,-1
 1189 0 l 1,13,-1
 1126 0 l 1,14,-1
 437 721 l 1,0,-1
EndSplineSet
Validated: 1
Substitution2: "'smcp' Lowercase to Small Capitals lookup 0 subtable" K.smcp
EndChar

StartChar: L
Encoding: 76 76 47
Width: 1130
GlyphClass: 1
Flags: W
LayerCount: 2
Fore
SplineSet
255 54 m 1,0,-1
 1042 54 l 1,1,-1
 1042 0 l 1,2,-1
 200 0 l 1,3,-1
 200 1456 l 1,4,-1
 255 1456 l 1,5,-1
 255 54 l 1,0,-1
EndSplineSet
Validated: 1
Substitution2: "'smcp' Lowercase to Small Capitals lookup 0 subtable" L.smcp
EndChar

StartChar: M
Encoding: 77 77 48
Width: 1756
GlyphClass: 1
Flags: W
LayerCount: 2
Fore
SplineSet
881 86 m 1,0,-1
 887 86 l 1,1,-1
 1495 1456 l 1,2,-1
 1556 1456 l 1,3,-1
 1556 0 l 1,4,-1
 1502 0 l 1,5,-1
 1502 1323 l 1,6,-1
 1496 1324 l 1,7,-1
 906 0 l 1,8,-1
 863 0 l 1,9,-1
 260 1353 l 1,10,-1
 254 1352 l 1,11,-1
 254 0 l 1,12,-1
 200 0 l 1,13,-1
 200 1456 l 1,14,-1
 275 1456 l 1,15,-1
 881 86 l 1,0,-1
EndSplineSet
Validated: 1
Substitution2: "'smcp' Lowercase to Small Capitals lookup 0 subtable" M.smcp
EndChar

StartChar: N
Encoding: 78 78 49
Width: 1449
GlyphClass: 1
Flags: W
LayerCount: 2
Fore
SplineSet
1249 0 m 1,0,-1
 1195 0 l 1,1,-1
 261 1356 l 1,2,-1
 255 1354 l 1,3,-1
 255 0 l 1,4,-1
 200 0 l 1,5,-1
 200 1456 l 1,6,-1
 255 1456 l 1,7,-1
 1189 103 l 1,8,-1
 1195 105 l 1,9,-1
 1195 1456 l 1,10,-1
 1249 1456 l 1,11,-1
 1249 0 l 1,0,-1
EndSplineSet
Validated: 1
Substitution2: "'smcp' Lowercase to Small Capitals lookup 0 subtable" N.smcp
EndChar

StartChar: O
Encoding: 79 79 50
Width: 1364
GlyphClass: 1
Flags: W
LayerCount: 2
Fore
SplineSet
1231 619 m 2,0,1
 1231 324 1231 324 1085 151.5 c 128,-1,2
 939 -21 939 -21 683 -21 c 0,3,4
 426 -21 426 -21 279.5 151.5 c 128,-1,5
 133 324 133 324 133 619 c 2,6,-1
 133 837 l 2,7,8
 133 1131 133 1131 278.5 1304 c 128,-1,9
 424 1477 424 1477 681 1477 c 0,10,11
 937 1477 937 1477 1084 1304 c 128,-1,12
 1231 1131 1231 1131 1231 837 c 2,13,-1
 1231 619 l 2,0,1
1177 839 m 2,14,15
 1177 1107 1177 1107 1048 1265 c 128,-1,16
 919 1423 919 1423 681 1423 c 0,17,18
 444 1423 444 1423 316 1265 c 128,-1,19
 188 1107 188 1107 188 839 c 2,20,-1
 188 619 l 2,21,22
 188 349 188 349 316.5 191 c 128,-1,23
 445 33 445 33 683 33 c 256,24,25
 921 33 921 33 1049 190.5 c 128,-1,26
 1177 348 1177 348 1177 619 c 2,27,-1
 1177 839 l 2,14,15
EndSplineSet
Validated: 1
Substitution2: "'smcp' Lowercase to Small Capitals lookup 0 subtable" O.smcp
EndChar

StartChar: P
Encoding: 80 80 51
Width: 1230
GlyphClass: 1
Flags: W
LayerCount: 2
Fore
SplineSet
254 625 m 1,0,-1
 254 0 l 1,1,-1
 200 0 l 1,2,-1
 200 1456 l 1,3,-1
 655 1456 l 2,4,5
 881 1456 881 1456 1003 1342.5 c 128,-1,6
 1125 1229 1125 1229 1125 1041 c 0,7,8
 1125 851 1125 851 1003.5 738 c 128,-1,9
 882 625 882 625 655 625 c 2,10,-1
 254 625 l 1,0,-1
254 679 m 1,11,-1
 655 679 l 2,12,13
 862 679 862 679 966.5 782 c 128,-1,14
 1071 885 1071 885 1071 1039 c 0,15,16
 1071 1197 1071 1197 967 1299.5 c 128,-1,17
 863 1402 863 1402 655 1402 c 2,18,-1
 254 1402 l 1,19,-1
 254 679 l 1,11,-1
EndSplineSet
Validated: 1
Substitution2: "'smcp' Lowercase to Small Capitals lookup 0 subtable" P.smcp
EndChar

StartChar: Q
Encoding: 81 81 52
Width: 1364
GlyphClass: 1
Flags: W
LayerCount: 2
Fore
SplineSet
1231 619 m 2,0,1
 1231 468 1231 468 1191.5 347 c 128,-1,2
 1152 226 1152 226 1077 142 c 1,3,-1
 1323 -98 l 1,4,-1
 1284 -133 l 1,5,-1
 1038 103 l 1,6,7
 968 42 968 42 879 10.5 c 128,-1,8
 790 -21 790 -21 683 -21 c 0,9,10
 426 -21 426 -21 279.5 151.5 c 128,-1,11
 133 324 133 324 133 619 c 2,12,-1
 133 837 l 2,13,14
 133 1131 133 1131 278.5 1304 c 128,-1,15
 424 1477 424 1477 681 1477 c 0,16,17
 937 1477 937 1477 1084 1304 c 128,-1,18
 1231 1131 1231 1131 1231 837 c 2,19,-1
 1231 619 l 2,0,1
1177 839 m 2,20,21
 1177 1107 1177 1107 1048 1265 c 128,-1,22
 919 1423 919 1423 681 1423 c 0,23,24
 444 1423 444 1423 316 1265 c 128,-1,25
 188 1107 188 1107 188 839 c 2,26,-1
 188 619 l 2,27,28
 188 349 188 349 316.5 191 c 128,-1,29
 445 33 445 33 683 33 c 256,30,31
 921 33 921 33 1049 190.5 c 128,-1,32
 1177 348 1177 348 1177 619 c 2,33,-1
 1177 839 l 2,20,21
EndSplineSet
Validated: 1
Substitution2: "'smcp' Lowercase to Small Capitals lookup 0 subtable" Q.smcp
EndChar

StartChar: R
Encoding: 82 82 53
Width: 1364
GlyphClass: 1
Flags: W
LayerCount: 2
Fore
SplineSet
249 683 m 1,0,-1
 249 -1 l 1,1,-1
 195 -1 l 1,2,-1
 195 1455 l 1,3,-1
 669 1455 l 2,4,5
 899 1455 899 1455 1023 1355.5 c 128,-1,6
 1147 1256 1147 1256 1147 1065 c 0,7,8
 1147 942 1147 942 1068.5 841.5 c 128,-1,9
 990 741 990 741 854 711 c 1,10,11
 1011 684 1011 684 1079 596 c 128,-1,12
 1147 508 1147 508 1147 371 c 2,13,-1
 1147 234 l 2,14,15
 1147 166 1147 166 1163.5 112 c 128,-1,16
 1180 58 1180 58 1218 24 c 1,17,-1
 1218 -1 l 1,18,-1
 1165 -1 l 1,19,20
 1129 40 1129 40 1111 100.5 c 128,-1,21
 1093 161 1093 161 1093 236 c 2,22,-1
 1093 369 l 2,23,24
 1093 517 1093 517 991.5 600 c 128,-1,25
 890 683 890 683 702 683 c 2,26,-1
 249 683 l 1,0,-1
249 737 m 1,27,-1
 659 737 l 2,28,29
 882 737 882 737 987.5 831 c 128,-1,30
 1093 925 1093 925 1093 1065 c 0,31,32
 1093 1228 1093 1228 986.5 1314.5 c 128,-1,33
 880 1401 880 1401 669 1401 c 2,34,-1
 249 1401 l 1,35,-1
 249 737 l 1,27,-1
EndSplineSet
Validated: 1
Substitution2: "'smcp' Lowercase to Small Capitals lookup 0 subtable" R.smcp
EndChar

StartChar: S
Encoding: 83 83 54
Width: 1223
GlyphClass: 1
Flags: W
LayerCount: 2
Fore
SplineSet
1060 343 m 0,0,1
 1060 468 1060 468 957.5 544.5 c 128,-1,2
 855 621 855 621 608 702 c 1,3,4
 362 777 362 777 245.5 861 c 128,-1,5
 129 945 129 945 129 1110 c 0,6,7
 129 1274 129 1274 265.5 1375.5 c 128,-1,8
 402 1477 402 1477 612 1477 c 0,9,10
 830 1477 830 1477 962.5 1365 c 128,-1,11
 1095 1253 1095 1253 1091 1052 c 1,12,-1
 1089 1046 l 1,13,-1
 1043 1046 l 1,14,15
 1043 1209 1043 1209 923 1316 c 128,-1,16
 803 1423 803 1423 612 1423 c 0,17,18
 415 1423 415 1423 299 1330.5 c 128,-1,19
 183 1238 183 1238 183 1112 c 256,20,21
 183 986 183 986 276.5 907.5 c 128,-1,22
 370 829 370 829 625 754 c 1,23,24
 873 676 873 676 994 592 c 128,-1,25
 1115 508 1115 508 1115 345 c 0,26,27
 1115 179 1115 179 972 79 c 128,-1,28
 829 -21 829 -21 619 -21 c 0,29,30
 400 -21 400 -21 242 81.5 c 128,-1,31
 84 184 84 184 89 404 c 1,32,-1
 91 410 l 1,33,-1
 136 410 l 1,34,35
 136 212 136 212 282 122.5 c 128,-1,36
 428 33 428 33 619 33 c 256,37,38
 810 33 810 33 935 121.5 c 128,-1,39
 1060 210 1060 210 1060 343 c 0,0,1
EndSplineSet
Validated: 33
Substitution2: "'smcp' Lowercase to Small Capitals lookup 0 subtable" S.smcp
EndChar

StartChar: T
Encoding: 84 84 55
Width: 1224
GlyphClass: 1
Flags: W
LayerCount: 2
Fore
SplineSet
1167 1402 m 1,0,-1
 657 1402 l 1,1,-1
 657 0 l 1,2,-1
 603 0 l 1,3,-1
 603 1402 l 1,4,-1
 57 1402 l 1,5,-1
 57 1456 l 1,6,-1
 1167 1456 l 1,7,-1
 1167 1402 l 1,0,-1
EndSplineSet
Validated: 1
Substitution2: "'smcp' Lowercase to Small Capitals lookup 0 subtable" T.smcp
EndChar

StartChar: U
Encoding: 85 85 56
Width: 1365
GlyphClass: 1
Flags: W
LayerCount: 2
Fore
SplineSet
1180 1456 m 1,0,-1
 1180 489 l 2,1,2
 1180 249 1180 249 1041 114 c 128,-1,3
 902 -21 902 -21 683 -21 c 0,4,5
 463 -21 463 -21 324 114.5 c 128,-1,6
 185 250 185 250 185 489 c 2,7,-1
 185 1456 l 1,8,-1
 239 1456 l 1,9,-1
 239 489 l 2,10,11
 239 282 239 282 364.5 157.5 c 128,-1,12
 490 33 490 33 683 33 c 0,13,14
 875 33 875 33 1000.5 157.5 c 128,-1,15
 1126 282 1126 282 1126 489 c 2,16,-1
 1126 1456 l 1,17,-1
 1180 1456 l 1,0,-1
EndSplineSet
Validated: 1
Substitution2: "'smcp' Lowercase to Small Capitals lookup 0 subtable" U.smcp
EndChar

StartChar: V
Encoding: 86 86 57
Width: 1223
GlyphClass: 1
Flags: W
LayerCount: 2
Fore
SplineSet
583 142 m 1,0,-1
 609 63 l 1,1,-1
 615 63 l 1,2,-1
 641 142 l 1,3,-1
 1130 1456 l 1,4,-1
 1189 1456 l 1,5,-1
 645 0 l 1,6,-1
 579 0 l 1,7,-1
 35 1456 l 1,8,-1
 94 1456 l 1,9,-1
 583 142 l 1,0,-1
EndSplineSet
Validated: 1
Substitution2: "'smcp' Lowercase to Small Capitals lookup 0 subtable" V.smcp
EndChar

StartChar: W
Encoding: 87 87 58
Width: 1855
GlyphClass: 1
Flags: W
LayerCount: 2
Fore
SplineSet
423 340 m 1,0,-1
 486 104 l 1,1,-1
 492 104 l 1,2,-1
 555 340 l 1,3,-1
 899 1456 l 1,4,-1
 959 1456 l 1,5,-1
 1301 340 l 1,6,-1
 1363 104 l 1,7,-1
 1369 104 l 1,8,-1
 1434 340 l 1,9,-1
 1734 1456 l 1,10,-1
 1793 1456 l 1,11,-1
 1401 0 l 1,12,-1
 1340 0 l 1,13,-1
 979 1214 l 1,14,-1
 931 1359 l 1,15,-1
 925 1359 l 1,16,-1
 879 1214 l 1,17,-1
 515 0 l 1,18,-1
 454 0 l 1,19,-1
 61 1456 l 1,20,-1
 121 1456 l 1,21,-1
 423 340 l 1,0,-1
EndSplineSet
Validated: 1
Substitution2: "'smcp' Lowercase to Small Capitals lookup 0 subtable" W.smcp
EndChar

StartChar: X
Encoding: 88 88 59
Width: 1223
GlyphClass: 1
Flags: W
LayerCount: 2
Fore
SplineSet
610 785 m 1,0,-1
 1081 1456 l 1,1,-1
 1148 1456 l 1,2,-1
 645 743 l 1,3,-1
 1169 0 l 1,4,-1
 1102 0 l 1,5,-1
 610 701 l 1,6,-1
 119 0 l 1,7,-1
 53 0 l 1,8,-1
 577 743 l 1,9,-1
 73 1456 l 1,10,-1
 141 1456 l 1,11,-1
 610 785 l 1,0,-1
EndSplineSet
Validated: 1
Substitution2: "'smcp' Lowercase to Small Capitals lookup 0 subtable" X.smcp
EndChar

StartChar: Y
Encoding: 89 89 60
Width: 1223
GlyphClass: 1
Flags: W
LayerCount: 2
Fore
SplineSet
583 647 m 1,0,-1
 609 597 l 1,1,-1
 636 647 l 1,2,-1
 1119 1456 l 1,3,-1
 1185 1456 l 1,4,-1
 638 553 l 1,5,-1
 638 0 l 1,6,-1
 583 0 l 1,7,-1
 583 553 l 1,8,-1
 36 1456 l 1,9,-1
 102 1456 l 1,10,-1
 583 647 l 1,0,-1
EndSplineSet
Validated: 1
Substitution2: "'smcp' Lowercase to Small Capitals lookup 0 subtable" Y.smcp
EndChar

StartChar: Z
Encoding: 90 90 61
Width: 1224
GlyphClass: 1
Flags: W
LayerCount: 2
Fore
SplineSet
168 54 m 1,0,-1
 1130 54 l 1,1,-1
 1130 0 l 1,2,-1
 94 0 l 1,3,-1
 94 44 l 1,4,-1
 1023 1403 l 1,5,-1
 134 1403 l 1,6,-1
 134 1456 l 1,7,-1
 1098 1456 l 1,8,-1
 1098 1418 l 1,9,-1
 168 54 l 1,0,-1
EndSplineSet
Validated: 1
Substitution2: "'smcp' Lowercase to Small Capitals lookup 0 subtable" Z.smcp
EndChar

StartChar: bracketleft
Encoding: 91 91 62
Width: 439
GlyphClass: 1
Flags: W
LayerCount: 2
Fore
SplineSet
464 1610 m 1,0,-1
 235 1610 l 1,1,-1
 235 -258 l 1,2,-1
 464 -258 l 1,3,-1
 464 -312 l 1,4,-1
 181 -312 l 1,5,-1
 181 1664 l 1,6,-1
 464 1664 l 1,7,-1
 464 1610 l 1,0,-1
EndSplineSet
Validated: 1
EndChar

StartChar: backslash
Encoding: 92 92 63
Width: 774
GlyphClass: 1
Flags: W
LayerCount: 2
Fore
SplineSet
57 1456 m 1,0,-1
 115 1456 l 1,1,-1
 723 -125 l 1,2,-1
 665 -125 l 1,3,-1
 57 1456 l 1,0,-1
EndSplineSet
Validated: 1
EndChar

StartChar: bracketright
Encoding: 93 93 64
Width: 439
GlyphClass: 1
Flags: W
LayerCount: 2
Fore
SplineSet
-8 1664 m 1,0,-1
 275 1664 l 1,1,-1
 275 -312 l 1,2,-1
 -8 -312 l 1,3,-1
 -8 -258 l 1,4,-1
 220 -258 l 1,5,-1
 220 1610 l 1,6,-1
 -8 1610 l 1,7,-1
 -8 1664 l 1,0,-1
EndSplineSet
Validated: 1
EndChar

StartChar: asciicircum
Encoding: 94 94 65
Width: 849
GlyphClass: 1
Flags: W
LayerCount: 2
Fore
SplineSet
150 729 m 1,0,-1
 91 729 l 1,1,-1
 390 1456 l 1,2,-1
 442 1456 l 1,3,-1
 741 729 l 1,4,-1
 680 729 l 1,5,-1
 458 1272 l 1,6,-1
 418 1386 l 1,7,-1
 412 1386 l 1,8,-1
 369 1272 l 1,9,-1
 150 729 l 1,0,-1
EndSplineSet
Validated: 1
EndChar

StartChar: underscore
Encoding: 95 95 66
Width: 845
GlyphClass: 1
Flags: W
LayerCount: 2
Fore
SplineSet
845 -54 m 1,0,-1
 -1 -54 l 1,1,-1
 -1 0 l 1,2,-1
 845 0 l 1,3,-1
 845 -54 l 1,0,-1
EndSplineSet
Validated: 1
EndChar

StartChar: grave
Encoding: 96 96 67
Width: 537
GlyphClass: 1
Flags: W
LayerCount: 2
Fore
SplineSet
414 1257 m 1,0,-1
 412 1252 l 1,1,-1
 337 1252 l 1,2,-1
 103 1513 l 1,3,-1
 105 1518 l 1,4,-1
 194 1518 l 1,5,-1
 414 1257 l 1,0,-1
EndSplineSet
Validated: 1
EndChar

StartChar: a
Encoding: 97 97 68
Width: 1081
GlyphClass: 1
Flags: W
LayerCount: 2
Fore
SplineSet
851 200 m 1,0,1
 795 102 795 102 684 40.5 c 128,-1,2
 573 -21 573 -21 415 -21 c 0,3,4
 264 -21 264 -21 178 61.5 c 128,-1,5
 92 144 92 144 92 284 c 0,6,7
 92 420 92 420 220.5 512 c 128,-1,8
 349 604 349 604 542 604 c 2,9,-1
 851 604 l 1,10,-1
 851 762 l 2,11,12
 851 897 851 897 764.5 972.5 c 128,-1,13
 678 1048 678 1048 521 1048 c 0,14,15
 374 1048 374 1048 284.5 977 c 128,-1,16
 195 906 195 906 195 794 c 1,17,-1
 150 796 l 1,18,-1
 148 801 l 1,19,20
 142 927 142 927 246 1014.5 c 128,-1,21
 350 1102 350 1102 521 1102 c 0,22,23
 695 1102 695 1102 800 1014 c 128,-1,24
 905 926 905 926 905 760 c 2,25,-1
 905 218 l 2,26,27
 905 161 905 161 911.5 107 c 128,-1,28
 918 53 918 53 933 0 c 1,29,-1
 873 0 l 1,30,31
 860 71 860 71 855.5 106.5 c 128,-1,32
 851 142 851 142 851 183 c 2,33,-1
 851 200 l 1,0,1
415 32 m 0,34,35
 576 32 576 32 687.5 103 c 128,-1,36
 799 174 799 174 851 306 c 1,37,-1
 851 549 l 1,38,-1
 545 549 l 2,39,40
 377 549 377 549 261.5 471.5 c 128,-1,41
 146 394 146 394 146 280 c 0,42,43
 146 171 146 171 219.5 101.5 c 128,-1,44
 293 32 293 32 415 32 c 0,34,35
EndSplineSet
Validated: 33
Substitution2: "'smcp' Lowercase to Small Capitals lookup 0 subtable" A.smcp
EndChar

StartChar: b
Encoding: 98 98 69
Width: 1121
GlyphClass: 1
Flags: W
LayerCount: 2
Fore
SplineSet
999 521 m 2,0,1
 999 271 999 271 891 125 c 128,-1,2
 783 -21 783 -21 593 -21 c 0,3,4
 466 -21 466 -21 371.5 30 c 128,-1,5
 277 81 277 81 224 167 c 1,6,-1
 217 0 l 1,7,-1
 172 0 l 1,8,-1
 172 295 l 2,9,10
 171 298 171 298 170.5 300 c 128,-1,11
 170 302 170 302 170 304 c 2,12,-1
 170 745 l 2,13,14
 170 746 170 746 170 746.5 c 128,-1,15
 170 747 170 747 172 753 c 2,16,-1
 172 1560 l 1,17,-1
 226 1560 l 1,18,-1
 226 892 l 1,19,20
 280 990 280 990 372 1046 c 128,-1,21
 464 1102 464 1102 591 1102 c 0,22,23
 782 1102 782 1102 890.5 950.5 c 128,-1,24
 999 799 999 799 999 542 c 2,25,-1
 999 521 l 2,0,1
943 542 m 2,26,27
 943 767 943 767 853 907.5 c 128,-1,28
 763 1048 763 1048 592 1048 c 0,29,30
 438 1048 438 1048 351.5 971 c 128,-1,31
 265 894 265 894 226 781 c 1,32,-1
 226 263 l 1,33,34
 267 158 267 158 360 95.5 c 128,-1,35
 453 33 453 33 594 33 c 0,36,37
 765 33 765 33 854 165 c 128,-1,38
 943 297 943 297 943 521 c 2,39,-1
 943 542 l 2,26,27
EndSplineSet
Validated: 1
Substitution2: "'smcp' Lowercase to Small Capitals lookup 0 subtable" B.smcp
EndChar

StartChar: c
Encoding: 99 99 70
Width: 1039
GlyphClass: 1
Flags: W
LayerCount: 2
Fore
SplineSet
539 33 m 0,0,1
 676 33 676 33 781 108 c 128,-1,2
 886 183 886 183 886 333 c 1,3,-1
 932 333 l 1,4,-1
 934 327 l 1,5,6
 938 168 938 168 817.5 73.5 c 128,-1,7
 697 -21 697 -21 539 -21 c 0,8,9
 332 -21 332 -21 214.5 128 c 128,-1,10
 97 277 97 277 97 520 c 2,11,-1
 97 562 l 2,12,13
 97 804 97 804 214 953 c 128,-1,14
 331 1102 331 1102 537 1102 c 0,15,16
 705 1102 705 1102 821.5 1003.5 c 128,-1,17
 938 905 938 905 934 726 c 1,18,-1
 932 720 l 1,19,-1
 886 720 l 1,20,21
 886 879 886 879 784 963.5 c 128,-1,22
 682 1048 682 1048 537 1048 c 0,23,24
 347 1048 347 1048 249 912 c 128,-1,25
 151 776 151 776 151 562 c 2,26,-1
 151 520 l 2,27,28
 151 304 151 304 249 168.5 c 128,-1,29
 347 33 347 33 539 33 c 0,0,1
EndSplineSet
Validated: 33
Substitution2: "'smcp' Lowercase to Small Capitals lookup 0 subtable" C.smcp
EndChar

StartChar: d
Encoding: 100 100 71
Width: 1121
GlyphClass: 1
Flags: W
LayerCount: 2
Fore
SplineSet
122 542 m 2,0,1
 122 799 122 799 230 950.5 c 128,-1,2
 338 1102 338 1102 530 1102 c 0,3,4
 656 1102 656 1102 748.5 1045.5 c 128,-1,5
 841 989 841 989 896 891 c 1,6,-1
 896 1560 l 1,7,-1
 950 1560 l 1,8,-1
 950 749 l 2,9,10
 950 747 950 747 950 746 c 128,-1,11
 950 745 950 745 951 745 c 1,12,-1
 951 304 l 2,13,14
 950 302 950 302 950 301 c 128,-1,15
 950 300 950 300 950 299 c 2,16,-1
 950 0 l 1,17,-1
 898 0 l 1,18,-1
 896 167 l 1,19,20
 842 80 842 80 748 29.5 c 128,-1,21
 654 -21 654 -21 528 -21 c 0,22,23
 337 -21 337 -21 229.5 125 c 128,-1,24
 122 271 122 271 122 521 c 2,25,-1
 122 542 l 2,0,1
178 521 m 2,26,27
 178 297 178 297 266.5 165 c 128,-1,28
 355 33 355 33 527 33 c 0,29,30
 668 33 668 33 761 96.5 c 128,-1,31
 854 160 854 160 896 266 c 1,32,-1
 896 778 l 1,33,34
 856 893 856 893 769.5 970.5 c 128,-1,35
 683 1048 683 1048 529 1048 c 0,36,37
 357 1048 357 1048 267.5 907.5 c 128,-1,38
 178 767 178 767 178 542 c 2,39,-1
 178 521 l 2,26,27
EndSplineSet
Validated: 1
Substitution2: "'smcp' Lowercase to Small Capitals lookup 0 subtable" D.smcp
EndChar

StartChar: e
Encoding: 101 101 72
Width: 1039
GlyphClass: 1
Flags: W
LayerCount: 2
Fore
SplineSet
551 -21 m 0,0,1
 360 -21 360 -21 228.5 127 c 128,-1,2
 97 275 97 275 97 500 c 2,3,-1
 97 564 l 2,4,5
 97 799 97 799 227.5 950.5 c 128,-1,6
 358 1102 358 1102 556 1102 c 0,7,8
 736 1102 736 1102 843 983.5 c 128,-1,9
 950 865 950 865 950 660 c 2,10,-1
 950 577 l 1,11,-1
 151 577 l 1,12,-1
 151 564 l 1,13,-1
 151 500 l 2,14,15
 151 302 151 302 263 167.5 c 128,-1,16
 375 33 375 33 551 33 c 0,17,18
 648 33 648 33 737.5 69 c 128,-1,19
 827 105 827 105 883 165 c 1,20,-1
 912 123 l 1,21,22
 855 60 855 60 765 19.5 c 128,-1,23
 675 -21 675 -21 551 -21 c 0,0,1
556 1048 m 0,24,25
 388 1048 388 1048 280.5 931.5 c 128,-1,26
 173 815 173 815 159 637 c 1,27,-1
 162 631 l 1,28,-1
 896 631 l 1,29,-1
 896 664 l 2,30,31
 896 831 896 831 805 939.5 c 128,-1,32
 714 1048 714 1048 556 1048 c 0,24,25
EndSplineSet
Validated: 1
Substitution2: "'smcp' Lowercase to Small Capitals lookup 0 subtable" E.smcp
EndChar

StartChar: f
Encoding: 102 102 73
Width: 645
GlyphClass: 1
Flags: W
LayerCount: 2
Fore
SplineSet
254 0 m 1,0,-1
 254 1027 l 1,1,-1
 66 1027 l 1,2,-1
 66 1082 l 1,3,-1
 254 1082 l 1,4,-1
 254 1260 l 2,5,6
 254 1413 254 1413 328.5 1497 c 128,-1,7
 403 1581 403 1581 537 1581 c 0,8,9
 570 1581 570 1581 602.5 1577 c 128,-1,10
 635 1573 635 1573 665 1564 c 1,11,-1
 657 1512 l 1,12,13
 625 1520 625 1520 600.5 1523.5 c 128,-1,14
 576 1527 576 1527 538 1527 c 0,15,16
 430 1527 430 1527 369 1456 c 128,-1,17
 308 1385 308 1385 308 1260 c 2,18,-1
 308 1082 l 1,19,-1
 594 1082 l 1,20,-1
 594 1027 l 1,21,-1
 308 1027 l 1,22,-1
 308 0 l 1,23,-1
 254 0 l 1,0,-1
EndSplineSet
Validated: 1
Substitution2: "'smcp' Lowercase to Small Capitals lookup 0 subtable" F.smcp
EndChar

StartChar: g
Encoding: 103 103 74
Width: 1121
GlyphClass: 1
Flags: W
LayerCount: 2
Fore
SplineSet
122 542 m 2,0,1
 122 799 122 799 230 950.5 c 128,-1,2
 338 1102 338 1102 530 1102 c 0,3,4
 656 1102 656 1102 748.5 1045 c 128,-1,5
 841 988 841 988 896 889 c 1,6,-1
 904 1082 l 1,7,-1
 950 1082 l 1,8,-1
 950 749 l 2,9,10
 950 747 950 747 950 746 c 128,-1,11
 950 745 950 745 951 745 c 1,12,-1
 951 304 l 2,13,14
 950 302 950 302 950 301 c 128,-1,15
 950 300 950 300 950 299 c 2,16,-1
 950 -6 l 2,17,18
 950 -212 950 -212 841.5 -324.5 c 128,-1,19
 733 -437 733 -437 541 -437 c 0,20,21
 462 -437 462 -437 376.5 -420.5 c 128,-1,22
 291 -404 291 -404 227 -375 c 1,23,-1
 243 -321 l 1,24,25
 316 -353 316 -353 384 -368.5 c 128,-1,26
 452 -384 452 -384 539 -384 c 0,27,28
 714 -384 714 -384 804.5 -286.5 c 128,-1,29
 895 -189 895 -189 895 -6 c 2,30,-1
 895 165 l 1,31,32
 840 79 840 79 746.5 29 c 128,-1,33
 653 -21 653 -21 528 -21 c 0,34,35
 337 -21 337 -21 229.5 125 c 128,-1,36
 122 271 122 271 122 521 c 2,37,-1
 122 542 l 2,0,1
177 521 m 2,38,39
 177 297 177 297 266 165 c 128,-1,40
 355 33 355 33 527 33 c 0,41,42
 666 33 666 33 759 95.5 c 128,-1,43
 852 158 852 158 895 263 c 1,44,-1
 895 781 l 1,45,46
 855 894 855 894 768.5 971 c 128,-1,47
 682 1048 682 1048 529 1048 c 0,48,49
 357 1048 357 1048 267 907.5 c 128,-1,50
 177 767 177 767 177 542 c 2,51,-1
 177 521 l 2,38,39
EndSplineSet
Validated: 1
Substitution2: "'smcp' Lowercase to Small Capitals lookup 0 subtable" G.smcp
EndChar

StartChar: h
Encoding: 104 104 75
Width: 1121
GlyphClass: 1
Flags: W
LayerCount: 2
Fore
SplineSet
226 857 m 1,0,1
 277 973 277 973 374 1037.5 c 128,-1,2
 471 1102 471 1102 610 1102 c 0,3,4
 779 1102 779 1102 866.5 995 c 128,-1,5
 954 888 954 888 954 658 c 2,6,-1
 954 0 l 1,7,-1
 899 0 l 1,8,-1
 899 660 l 2,9,10
 899 873 899 873 820.5 960.5 c 128,-1,11
 742 1048 742 1048 611 1048 c 0,12,13
 439 1048 439 1048 345.5 947 c 128,-1,14
 252 846 252 846 226 688 c 1,15,-1
 226 0 l 1,16,-1
 172 0 l 1,17,-1
 172 554 l 1,18,-1
 170 554 l 1,19,20
 170 575 170 575 170 589 c 128,-1,21
 170 603 170 603 172 617 c 2,22,-1
 172 1560 l 1,23,-1
 226 1560 l 1,24,-1
 226 857 l 1,0,1
EndSplineSet
Validated: 1
Substitution2: "'smcp' Lowercase to Small Capitals lookup 0 subtable" H.smcp
EndChar

StartChar: i
Encoding: 105 105 76
Width: 422
GlyphClass: 1
Flags: W
LayerCount: 2
Fore
SplineSet
239 0 m 1,0,-1
 185 0 l 1,1,-1
 185 1082 l 1,2,-1
 239 1082 l 1,3,-1
 239 0 l 1,0,-1
239 1422 m 1,4,-1
 185 1422 l 1,5,-1
 185 1560 l 1,6,-1
 239 1560 l 1,7,-1
 239 1422 l 1,4,-1
EndSplineSet
Validated: 1
Substitution2: "'smcp' Lowercase to Small Capitals lookup 0 subtable" I.smcp
EndChar

StartChar: j
Encoding: 106 106 77
Width: 445
GlyphClass: 1
Flags: W
LayerCount: 2
Fore
SplineSet
240 1082 m 1,0,-1
 240 -89 l 2,1,2
 240 -256 240 -256 165 -346.5 c 128,-1,3
 90 -437 90 -437 -45 -437 c 0,4,5
 -74 -437 -74 -437 -100 -432 c 128,-1,6
 -126 -427 -126 -427 -157 -417 c 1,7,-1
 -144 -365 l 1,8,9
 -125 -371 -125 -371 -97.5 -377 c 128,-1,10
 -70 -383 -70 -383 -45 -383 c 0,11,12
 65 -383 65 -383 125.5 -306 c 128,-1,13
 186 -229 186 -229 186 -89 c 2,14,-1
 186 1082 l 1,15,-1
 240 1082 l 1,0,-1
234 1426 m 1,16,-1
 180 1426 l 1,17,-1
 180 1560 l 1,18,-1
 234 1560 l 1,19,-1
 234 1426 l 1,16,-1
EndSplineSet
Validated: 1
Substitution2: "'smcp' Lowercase to Small Capitals lookup 0 subtable" J.smcp
EndChar

StartChar: k
Encoding: 107 107 78
Width: 969
GlyphClass: 1
Flags: W
LayerCount: 2
Fore
SplineSet
374 553 m 1,0,-1
 226 553 l 1,1,-1
 226 0 l 1,2,-1
 172 0 l 1,3,-1
 172 1560 l 1,4,-1
 226 1560 l 1,5,-1
 226 607 l 1,6,-1
 353 607 l 1,7,-1
 845 1082 l 1,8,-1
 908 1082 l 1,9,-1
 910 1076 l 1,10,-1
 414 589 l 1,11,-1
 948 5 l 1,12,-1
 946 0 l 1,13,-1
 883 0 l 1,14,-1
 374 553 l 1,0,-1
EndSplineSet
Validated: 1
Substitution2: "'smcp' Lowercase to Small Capitals lookup 0 subtable" K.smcp
EndChar

StartChar: l
Encoding: 108 108 79
Width: 422
GlyphClass: 1
Flags: W
LayerCount: 2
Fore
SplineSet
239 0 m 1,0,-1
 185 0 l 1,1,-1
 185 1560 l 1,2,-1
 239 1560 l 1,3,-1
 239 0 l 1,0,-1
EndSplineSet
Validated: 1
Substitution2: "'smcp' Lowercase to Small Capitals lookup 0 subtable" L.smcp
EndChar

StartChar: m
Encoding: 109 109 80
Width: 1836
GlyphClass: 1
Flags: W
LayerCount: 2
Fore
SplineSet
210 1082 m 1,0,-1
 217 864 l 1,1,2
 267 977 267 977 358 1039.5 c 128,-1,3
 449 1102 449 1102 580 1102 c 0,4,5
 718 1102 718 1102 805 1032.5 c 128,-1,6
 892 963 892 963 926 817 c 1,7,8
 971 952 971 952 1067.5 1027.5 c 128,-1,9
 1164 1103 1164 1103 1308 1103 c 0,10,11
 1487 1103 1487 1103 1580 986 c 128,-1,12
 1673 869 1673 869 1673 618 c 2,13,-1
 1673 1 l 1,14,-1
 1618 1 l 1,15,-1
 1618 620 l 2,16,17
 1618 855 1618 855 1534 952 c 128,-1,18
 1450 1049 1450 1049 1310 1049 c 0,19,20
 1143 1049 1143 1049 1055.5 951 c 128,-1,21
 968 853 968 853 943 697 c 1,22,23
 944 677 944 677 945 656.5 c 128,-1,24
 946 636 946 636 946 615 c 2,25,-1
 946 0 l 1,26,-1
 891 0 l 1,27,-1
 891 554 l 1,28,-1
 888 554 l 1,29,30
 888 573 888 573 888.5 592 c 128,-1,31
 889 611 889 611 891 629 c 0,32,33
 888 859 888 859 805 953.5 c 128,-1,34
 722 1048 722 1048 582 1048 c 0,35,36
 417 1048 417 1048 330.5 952.5 c 128,-1,37
 244 857 244 857 218 705 c 1,38,-1
 218 0 l 1,39,-1
 163 0 l 1,40,-1
 163 554 l 1,41,-1
 161 554 l 1,42,43
 161 568 161 568 161.5 582 c 128,-1,44
 162 596 162 596 163 617 c 2,45,-1
 163 1082 l 1,46,-1
 210 1082 l 1,0,-1
EndSplineSet
Validated: 1
Substitution2: "'smcp' Lowercase to Small Capitals lookup 0 subtable" M.smcp
EndChar

StartChar: n
Encoding: 110 110 81
Width: 1121
GlyphClass: 1
Flags: W
LayerCount: 2
Fore
SplineSet
218 1082 m 1,0,-1
 225 864 l 1,1,2
 275 977 275 977 369 1039.5 c 128,-1,3
 463 1102 463 1102 600 1102 c 0,4,5
 777 1102 777 1102 865.5 990.5 c 128,-1,6
 954 879 954 879 954 637 c 2,7,-1
 954 0 l 1,8,-1
 900 0 l 1,9,-1
 900 639 l 2,10,11
 900 864 900 864 819.5 956 c 128,-1,12
 739 1048 739 1048 601 1048 c 0,13,14
 431 1048 431 1048 341 949 c 128,-1,15
 251 850 251 850 226 694 c 1,16,-1
 226 0 l 1,17,-1
 172 0 l 1,18,-1
 172 554 l 1,19,-1
 169 554 l 1,20,21
 169 573 169 573 169.5 592.5 c 128,-1,22
 170 612 170 612 172 632 c 2,23,-1
 172 1082 l 1,24,-1
 218 1082 l 1,0,-1
EndSplineSet
Validated: 1
Substitution2: "'smcp' Lowercase to Small Capitals lookup 0 subtable" N.smcp
EndChar

StartChar: o
Encoding: 111 111 82
Width: 1121
GlyphClass: 1
Flags: W
LayerCount: 2
Fore
SplineSet
87 562 m 2,0,1
 87 800 87 800 218.5 951 c 128,-1,2
 350 1102 350 1102 560 1102 c 0,3,4
 771 1102 771 1102 902.5 951 c 128,-1,5
 1034 800 1034 800 1034 562 c 2,6,-1
 1034 520 l 2,7,8
 1034 281 1034 281 902.5 130 c 128,-1,9
 771 -21 771 -21 562 -21 c 0,10,11
 351 -21 351 -21 219 130 c 128,-1,12
 87 281 87 281 87 520 c 2,13,-1
 87 562 l 2,0,1
141 520 m 2,14,15
 141 316 141 316 255 174.5 c 128,-1,16
 369 33 369 33 562 33 c 0,17,18
 752 33 752 33 866 175 c 128,-1,19
 980 317 980 317 980 520 c 2,20,-1
 980 562 l 2,21,22
 980 761 980 761 865 904.5 c 128,-1,23
 750 1048 750 1048 560 1048 c 0,24,25
 369 1048 369 1048 255 904.5 c 128,-1,26
 141 761 141 761 141 562 c 2,27,-1
 141 520 l 2,14,15
EndSplineSet
Validated: 1
Substitution2: "'smcp' Lowercase to Small Capitals lookup 0 subtable" O.smcp
EndChar

StartChar: p
Encoding: 112 112 83
Width: 1121
GlyphClass: 1
Flags: W
LayerCount: 2
Fore
SplineSet
999 521 m 2,0,1
 999 271 999 271 891 125 c 128,-1,2
 783 -21 783 -21 593 -21 c 0,3,4
 467 -21 467 -21 373.5 29 c 128,-1,5
 280 79 280 79 226 165 c 1,6,-1
 226 -416 l 1,7,-1
 172 -416 l 1,8,-1
 172 296 l 2,9,10
 171 299 171 299 170.5 301 c 128,-1,11
 170 303 170 303 170 305 c 2,12,-1
 170 745 l 2,13,14
 170 746 170 746 170 746.5 c 128,-1,15
 170 747 170 747 172 753 c 2,16,-1
 172 1082 l 1,17,-1
 214 1082 l 1,18,-1
 225 891 l 1,19,20
 279 989 279 989 372 1045.5 c 128,-1,21
 465 1102 465 1102 591 1102 c 0,22,23
 782 1102 782 1102 890.5 950.5 c 128,-1,24
 999 799 999 799 999 542 c 2,25,-1
 999 521 l 2,0,1
944 542 m 2,26,27
 944 767 944 767 853.5 907.5 c 128,-1,28
 763 1048 763 1048 592 1048 c 0,29,30
 438 1048 438 1048 351.5 971 c 128,-1,31
 265 894 265 894 226 781 c 1,32,-1
 226 264 l 1,33,34
 267 158 267 158 360 95.5 c 128,-1,35
 453 33 453 33 594 33 c 0,36,37
 765 33 765 33 854.5 165 c 128,-1,38
 944 297 944 297 944 521 c 2,39,-1
 944 542 l 2,26,27
EndSplineSet
Validated: 1
Substitution2: "'smcp' Lowercase to Small Capitals lookup 0 subtable" P.smcp
EndChar

StartChar: q
Encoding: 113 113 84
Width: 1121
GlyphClass: 1
Flags: W
LayerCount: 2
Fore
SplineSet
122 542 m 2,0,1
 122 799 122 799 230 950.5 c 128,-1,2
 338 1102 338 1102 530 1102 c 0,3,4
 656 1102 656 1102 748.5 1045.5 c 128,-1,5
 841 989 841 989 896 890 c 1,6,-1
 901 1082 l 1,7,-1
 950 1082 l 1,8,-1
 950 749 l 2,9,10
 950 747 950 747 950 746 c 128,-1,11
 950 745 950 745 951 745 c 1,12,-1
 951 304 l 2,13,14
 950 302 950 302 950 301 c 128,-1,15
 950 300 950 300 950 299 c 2,16,-1
 950 -416 l 1,17,-1
 896 -416 l 1,18,-1
 896 166 l 1,19,20
 841 80 841 80 747 29.5 c 128,-1,21
 653 -21 653 -21 528 -21 c 0,22,23
 337 -21 337 -21 229.5 125 c 128,-1,24
 122 271 122 271 122 521 c 2,25,-1
 122 542 l 2,0,1
178 521 m 2,26,27
 178 297 178 297 266.5 165 c 128,-1,28
 355 33 355 33 527 33 c 0,29,30
 668 33 668 33 761 96.5 c 128,-1,31
 854 160 854 160 896 266 c 1,32,-1
 896 778 l 1,33,34
 856 893 856 893 769.5 970.5 c 128,-1,35
 683 1048 683 1048 529 1048 c 0,36,37
 357 1048 357 1048 267.5 907.5 c 128,-1,38
 178 767 178 767 178 542 c 2,39,-1
 178 521 l 2,26,27
EndSplineSet
Validated: 1
Substitution2: "'smcp' Lowercase to Small Capitals lookup 0 subtable" Q.smcp
EndChar

StartChar: r
Encoding: 114 114 85
Width: 685
GlyphClass: 1
Flags: W
LayerCount: 2
Fore
SplineSet
649 1043 m 1,0,-1
 579 1049 l 1,1,2
 434 1049 434 1049 343.5 955.5 c 128,-1,3
 253 862 253 862 226 709 c 1,4,-1
 226 0 l 1,5,-1
 172 0 l 1,6,-1
 172 1082 l 1,7,-1
 216 1082 l 1,8,-1
 226 894 l 1,9,-1
 226 857 l 1,10,11
 271 973 271 973 360 1037.5 c 128,-1,12
 449 1102 449 1102 579 1102 c 0,13,14
 602 1102 602 1102 621.5 1098.5 c 128,-1,15
 641 1095 641 1095 655 1091 c 1,16,-1
 649 1043 l 1,0,-1
EndSplineSet
Validated: 1
Substitution2: "'smcp' Lowercase to Small Capitals lookup 0 subtable" R.smcp
EndChar

StartChar: s
Encoding: 115 115 86
Width: 1019
GlyphClass: 1
Flags: W
LayerCount: 2
Fore
SplineSet
835 265 m 0,0,1
 835 351 835 351 761.5 421.5 c 128,-1,2
 688 492 688 492 505 532 c 0,3,4
 312 573 312 573 225.5 637.5 c 128,-1,5
 139 702 139 702 139 829 c 0,6,7
 139 945 139 945 237 1023.5 c 128,-1,8
 335 1102 335 1102 501 1102 c 0,9,10
 680 1102 680 1102 783 1018 c 128,-1,11
 886 934 886 934 881 799 c 1,12,-1
 879 793 l 1,13,-1
 833 793 l 1,14,15
 833 899 833 899 743.5 973.5 c 128,-1,16
 654 1048 654 1048 501 1048 c 0,17,18
 349 1048 349 1048 271 982.5 c 128,-1,19
 193 917 193 917 193 831 c 0,20,21
 193 746 193 746 259 686 c 128,-1,22
 325 626 325 626 521 581 c 0,23,24
 702 539 702 539 795.5 466.5 c 128,-1,25
 889 394 889 394 889 264 c 0,26,27
 889 137 889 137 785 58 c 128,-1,28
 681 -21 681 -21 509 -21 c 0,29,30
 320 -21 320 -21 212.5 63.5 c 128,-1,31
 105 148 105 148 112 269 c 1,32,-1
 114 275 l 1,33,-1
 158 275 l 1,34,35
 166 147 166 147 268 90 c 128,-1,36
 370 33 370 33 509 33 c 0,37,38
 659 33 659 33 747 103 c 128,-1,39
 835 173 835 173 835 265 c 0,0,1
EndSplineSet
Validated: 33
Substitution2: "'smcp' Lowercase to Small Capitals lookup 0 subtable" S.smcp
EndChar

StartChar: t
Encoding: 116 116 87
Width: 633
GlyphClass: 1
Flags: W
LayerCount: 2
Fore
SplineSet
284 1374 m 1,0,-1
 284 1082 l 1,1,-1
 550 1082 l 1,2,-1
 550 1027 l 1,3,-1
 284 1027 l 1,4,-1
 284 279 l 2,5,6
 284 146 284 146 329 89.5 c 128,-1,7
 374 33 374 33 448 33 c 0,8,9
 475 33 475 33 496 35 c 128,-1,10
 517 37 517 37 554 42 c 1,11,-1
 564 -7 l 1,12,13
 539 -15 539 -15 512 -18 c 128,-1,14
 485 -21 485 -21 451 -21 c 0,15,16
 342 -21 342 -21 285.5 50 c 128,-1,17
 229 121 229 121 229 279 c 2,18,-1
 229 1027 l 1,19,-1
 29 1027 l 1,20,-1
 29 1082 l 1,21,-1
 229 1082 l 1,22,-1
 229 1374 l 1,23,-1
 284 1374 l 1,0,-1
EndSplineSet
Validated: 1
Substitution2: "'smcp' Lowercase to Small Capitals lookup 0 subtable" T.smcp
EndChar

StartChar: u
Encoding: 117 117 88
Width: 1121
GlyphClass: 1
Flags: W
LayerCount: 2
Fore
SplineSet
897 190 m 1,0,1
 846 90 846 90 752 34.5 c 128,-1,2
 658 -21 658 -21 524 -21 c 0,3,4
 357 -21 357 -21 262.5 97.5 c 128,-1,5
 168 216 168 216 168 465 c 2,6,-1
 168 1082 l 1,7,-1
 222 1082 l 1,8,-1
 222 463 l 2,9,10
 222 243 222 243 303 138 c 128,-1,11
 384 33 384 33 522 33 c 0,12,13
 687 33 687 33 777.5 113.5 c 128,-1,14
 868 194 868 194 895 326 c 1,15,-1
 895 1082 l 1,16,-1
 950 1082 l 1,17,-1
 950 445 l 1,18,-1
 952 445 l 1,19,20
 952 432 952 432 951 420 c 128,-1,21
 950 408 950 408 950 392 c 2,22,-1
 950 0 l 1,23,-1
 905 0 l 1,24,-1
 897 190 l 1,0,1
EndSplineSet
Validated: 1
Substitution2: "'smcp' Lowercase to Small Capitals lookup 0 subtable" U.smcp
EndChar

StartChar: v
Encoding: 118 118 89
Width: 978
GlyphClass: 1
Flags: W
LayerCount: 2
Fore
SplineSet
435 229 m 1,0,-1
 486 83 l 1,1,-1
 492 83 l 1,2,-1
 544 229 l 1,3,-1
 877 1082 l 1,4,-1
 935 1082 l 1,5,-1
 514 1 l 1,6,-1
 515 0 l 1,7,-1
 463 0 l 1,8,-1
 43 1082 l 1,9,-1
 101 1082 l 1,10,-1
 435 229 l 1,0,-1
EndSplineSet
Validated: 1
Substitution2: "'smcp' Lowercase to Small Capitals lookup 0 subtable" V.smcp
EndChar

StartChar: w
Encoding: 119 119 90
Width: 1550
GlyphClass: 1
Flags: W
LayerCount: 2
Fore
SplineSet
366 313 m 1,0,-1
 422 91 l 1,1,-1
 428 90 l 1,2,-1
 499 313 l 1,3,-1
 742 1082 l 1,4,-1
 797 1082 l 1,5,-1
 1039 313 l 1,6,-1
 1109 90 l 1,7,-1
 1115 91 l 1,8,-1
 1173 313 l 1,9,-1
 1393 1082 l 1,10,-1
 1456 1082 l 1,11,-1
 1141 0 l 1,12,-1
 1087 0 l 1,13,-1
 816 813 l 1,14,-1
 771 981 l 1,15,-1
 765 981 l 1,16,-1
 718 813 l 1,17,-1
 451 0 l 1,18,-1
 397 0 l 1,19,-1
 83 1082 l 1,20,-1
 145 1082 l 1,21,-1
 366 313 l 1,0,-1
EndSplineSet
Validated: 1
Substitution2: "'smcp' Lowercase to Small Capitals lookup 0 subtable" W.smcp
EndChar

StartChar: x
Encoding: 120 120 91
Width: 978
GlyphClass: 1
Flags: W
LayerCount: 2
Fore
SplineSet
489 602 m 1,0,-1
 834 1082 l 1,1,-1
 902 1082 l 1,2,-1
 522 555 l 1,3,-1
 922 0 l 1,4,-1
 855 0 l 1,5,-1
 488 508 l 1,6,-1
 122 0 l 1,7,-1
 55 0 l 1,8,-1
 455 555 l 1,9,-1
 75 1082 l 1,10,-1
 143 1082 l 1,11,-1
 489 602 l 1,0,-1
EndSplineSet
Validated: 1
Substitution2: "'smcp' Lowercase to Small Capitals lookup 0 subtable" X.smcp
EndChar

StartChar: y
Encoding: 121 121 92
Width: 978
GlyphClass: 1
Flags: W
LayerCount: 2
Fore
SplineSet
458 196 m 1,0,-1
 498 88 l 1,1,-1
 504 88 l 1,2,-1
 510 104 l 1,3,-1
 884 1082 l 1,4,-1
 944 1082 l 1,5,-1
 463 -180 l 2,6,7
 419 -294 419 -294 360.5 -365.5 c 128,-1,8
 302 -437 302 -437 174 -437 c 0,9,10
 155 -437 155 -437 132 -433.5 c 128,-1,11
 109 -430 109 -430 98 -426 c 1,12,-1
 107 -375 l 1,13,14
 118 -378 118 -378 140 -381 c 128,-1,15
 162 -384 162 -384 174 -384 c 0,16,17
 266 -384 266 -384 317.5 -330 c 128,-1,18
 369 -276 369 -276 409 -170 c 2,19,-1
 474 6 l 1,20,-1
 43 1082 l 1,21,-1
 102 1082 l 1,22,-1
 458 196 l 1,0,-1
EndSplineSet
Validated: 1
Substitution2: "'smcp' Lowercase to Small Capitals lookup 0 subtable" Y.smcp
EndChar

StartChar: z
Encoding: 122 122 93
Width: 978
GlyphClass: 1
Flags: W
LayerCount: 2
Fore
SplineSet
160 54 m 1,0,-1
 930 54 l 1,1,-1
 930 0 l 1,2,-1
 87 0 l 1,3,-1
 87 44 l 1,4,-1
 798 1027 l 1,5,-1
 118 1027 l 1,6,-1
 118 1082 l 1,7,-1
 871 1082 l 1,8,-1
 871 1034 l 1,9,-1
 160 54 l 1,0,-1
EndSplineSet
Validated: 1
Substitution2: "'smcp' Lowercase to Small Capitals lookup 0 subtable" Z.smcp
EndChar

StartChar: braceleft
Encoding: 123 123 94
Width: 660
GlyphClass: 1
Flags: W
LayerCount: 2
Fore
SplineSet
642 -441 m 1,0,1
 469 -386 469 -386 396 -268 c 128,-1,2
 323 -150 323 -150 323 20 c 2,3,-1
 323 265 l 2,4,5
 323 397 323 397 262 470 c 128,-1,6
 201 543 201 543 73 543 c 1,7,-1
 73 609 l 1,8,9
 201 609 201 609 262 681 c 128,-1,10
 323 753 323 753 323 885 c 2,11,-1
 323 1132 l 2,12,13
 323 1303 323 1303 396 1422.5 c 128,-1,14
 469 1542 469 1542 642 1597 c 1,15,-1
 657 1552 l 1,16,17
 514 1506 514 1506 445.5 1396.5 c 128,-1,18
 377 1287 377 1287 377 1132 c 2,19,-1
 377 885 l 2,20,21
 377 765 377 765 325 683 c 128,-1,22
 273 601 273 601 166 576 c 1,23,24
 273 550 273 550 325 467 c 128,-1,25
 377 384 377 384 377 265 c 2,26,-1
 377 20 l 2,27,28
 377 -134 377 -134 447.5 -240 c 128,-1,29
 518 -346 518 -346 662 -395 c 1,30,-1
 642 -441 l 1,0,1
EndSplineSet
Validated: 1
EndChar

StartChar: bar
Encoding: 124 124 95
Width: 406
GlyphClass: 1
Flags: W
LayerCount: 2
Fore
SplineSet
235 -270 m 1,0,-1
 181 -270 l 1,1,-1
 181 1456 l 1,2,-1
 235 1456 l 1,3,-1
 235 -270 l 1,0,-1
EndSplineSet
Validated: 1
EndChar

StartChar: braceright
Encoding: 125 125 96
Width: 660
GlyphClass: 1
Flags: W
LayerCount: 2
Fore
SplineSet
0 -395 m 1,0,1
 143 -346 143 -346 213.5 -240 c 128,-1,2
 284 -134 284 -134 284 20 c 2,3,-1
 284 265 l 2,4,5
 284 384 284 384 335.5 467 c 128,-1,6
 387 550 387 550 495 576 c 1,7,8
 387 601 387 601 335.5 683 c 128,-1,9
 284 765 284 765 284 885 c 2,10,-1
 284 1132 l 2,11,12
 284 1287 284 1287 215.5 1396.5 c 128,-1,13
 147 1506 147 1506 5 1552 c 1,14,-1
 19 1597 l 1,15,16
 191 1542 191 1542 264.5 1422.5 c 128,-1,17
 338 1303 338 1303 338 1132 c 2,18,-1
 338 885 l 2,19,20
 338 753 338 753 399 681 c 128,-1,21
 460 609 460 609 588 609 c 1,22,-1
 588 543 l 1,23,24
 460 543 460 543 399 469.5 c 128,-1,25
 338 396 338 396 338 265 c 2,26,-1
 338 20 l 2,27,28
 338 -151 338 -151 265 -268.5 c 128,-1,29
 192 -386 192 -386 19 -441 c 1,30,-1
 0 -395 l 1,0,1
EndSplineSet
Validated: 1
EndChar

StartChar: asciitilde
Encoding: 126 126 97
Width: 1412
GlyphClass: 1
Flags: W
LayerCount: 2
Fore
SplineSet
1251 740 m 1,0,1
 1251 619 1251 619 1175.5 531 c 128,-1,2
 1100 443 1100 443 987 443 c 0,3,4
 900 443 900 443 828.5 481 c 128,-1,5
 757 519 757 519 666 602 c 0,6,7
 598 661 598 661 538.5 690.5 c 128,-1,8
 479 720 479 720 418 720 c 0,9,10
 329 720 329 720 272 652 c 128,-1,11
 215 584 215 584 215 462 c 1,12,-1
 156 474 l 1,13,14
 156 602 156 602 229.5 688 c 128,-1,15
 303 774 303 774 418 774 c 0,16,17
 504 774 504 774 576.5 734.5 c 128,-1,18
 649 695 649 695 741 614 c 0,19,20
 808 552 808 552 866 524 c 128,-1,21
 924 496 924 496 987 496 c 0,22,23
 1073 496 1073 496 1131.5 566.5 c 128,-1,24
 1190 637 1190 637 1190 753 c 1,25,-1
 1251 740 l 1,0,1
EndSplineSet
Validated: 1
EndChar

StartChar: exclamdown
Encoding: 161 161 99
Width: 406
GlyphClass: 1
Flags: W
LayerCount: 2
Fore
SplineSet
221 -374 m 1,0,-1
 167 -374 l 1,1,-1
 167 604 l 1,2,-1
 221 604 l 1,3,-1
 221 -374 l 1,0,-1
242 918 m 1,4,-1
 147 918 l 1,5,-1
 147 1082 l 1,6,-1
 242 1082 l 1,7,-1
 242 918 l 1,4,-1
EndSplineSet
Validated: 1
EndChar

StartChar: cent
Encoding: 162 162 100
Width: 1110
GlyphClass: 1
Flags: W
LayerCount: 2
Fore
SplineSet
576 33 m 0,0,1
 713 33 713 33 818 108 c 128,-1,2
 923 183 923 183 923 333 c 1,3,-1
 969 333 l 1,4,-1
 971 327 l 1,5,6
 975 175 975 175 865 82 c 128,-1,7
 755 -11 755 -11 604 -20 c 1,8,-1
 604 -245 l 1,9,-1
 549 -245 l 1,10,-1
 549 -20 l 1,11,12
 353 -9 353 -9 243.5 138 c 128,-1,13
 134 285 134 285 134 520 c 2,14,-1
 134 562 l 2,15,16
 134 796 134 796 244 943.5 c 128,-1,17
 354 1091 354 1091 549 1101 c 1,18,-1
 549 1318 l 1,19,-1
 604 1318 l 1,20,-1
 604 1101 l 1,21,22
 762 1091 762 1091 868.5 993.5 c 128,-1,23
 975 896 975 896 972 726 c 1,24,-1
 969 720 l 1,25,-1
 923 720 l 1,26,27
 923 879 923 879 821 963.5 c 128,-1,28
 719 1048 719 1048 574 1048 c 0,29,30
 384 1048 384 1048 286 912 c 128,-1,31
 188 776 188 776 188 562 c 2,32,-1
 188 520 l 2,33,34
 188 304 188 304 286 168.5 c 128,-1,35
 384 33 384 33 576 33 c 0,0,1
EndSplineSet
Validated: 33
EndChar

StartChar: sterling
Encoding: 163 163 101
Width: 1150
GlyphClass: 1
Flags: W
LayerCount: 2
Fore
SplineSet
362 667 m 1,0,-1
 370 466 l 1,1,2
 370 341 370 341 334 230.5 c 128,-1,3
 298 120 298 120 232 54 c 1,4,-1
 1040 54 l 1,5,-1
 1041 0 l 1,6,-1
 129 0 l 1,7,-1
 129 54 l 1,8,-1
 139 54 l 1,9,10
 228 70 228 70 272 199.5 c 128,-1,11
 316 329 316 329 316 466 c 1,12,-1
 308 667 l 1,13,-1
 65 667 l 1,14,-1
 65 721 l 1,15,-1
 306 721 l 1,16,-1
 295 1040 l 1,17,18
 295 1244 295 1244 396 1360.5 c 128,-1,19
 497 1477 497 1477 666 1477 c 0,20,21
 841 1477 841 1477 922 1375 c 128,-1,22
 1003 1273 1003 1273 1000 1095 c 1,23,-1
 998 1090 l 1,24,-1
 951 1090 l 1,25,26
 951 1266 951 1266 877.5 1344.5 c 128,-1,27
 804 1423 804 1423 666 1423 c 0,28,29
 519 1423 519 1423 434 1323 c 128,-1,30
 349 1223 349 1223 349 1040 c 1,31,-1
 360 721 l 1,32,-1
 838 721 l 1,33,-1
 838 667 l 1,34,-1
 362 667 l 1,0,-1
EndSplineSet
Validated: 33
EndChar

StartChar: currency
Encoding: 164 164 102
Width: 1502
GlyphClass: 1
Flags: W
LayerCount: 2
Fore
SplineSet
1159 156 m 1,0,1
 1077 72 1077 72 970.5 26 c 128,-1,2
 864 -20 864 -20 745 -20 c 0,3,4
 625 -20 625 -20 518.5 25.5 c 128,-1,5
 412 71 412 71 330 154 c 1,6,-1
 154 -26 l 1,7,-1
 114 13 l 1,8,-1
 293 195 l 1,9,10
 224 279 224 279 186.5 384.5 c 128,-1,11
 149 490 149 490 149 608 c 0,12,13
 149 730 149 730 189 838.5 c 128,-1,14
 229 947 229 947 303 1032 c 1,15,-1
 114 1225 l 1,16,-1
 154 1264 l 1,17,-1
 342 1072 l 1,18,19
 422 1149 422 1149 525.5 1191.5 c 128,-1,20
 629 1234 629 1234 745 1234 c 0,21,22
 859 1234 859 1234 962.5 1191 c 128,-1,23
 1066 1148 1066 1148 1148 1070 c 1,24,-1
 1339 1265 l 1,25,-1
 1380 1225 l 1,26,-1
 1187 1029 l 1,27,28
 1259 944 1259 944 1299 836 c 128,-1,29
 1339 728 1339 728 1339 608 c 0,30,31
 1339 491 1339 491 1302 386.5 c 128,-1,32
 1265 282 1265 282 1198 199 c 1,33,-1
 1380 13 l 1,34,-1
 1339 -27 l 1,35,-1
 1159 156 l 1,0,1
204 608 m 0,36,37
 204 370 204 370 363 201.5 c 128,-1,38
 522 33 522 33 745 33 c 0,39,40
 966 33 966 33 1125.5 201.5 c 128,-1,41
 1285 370 1285 370 1285 608 c 0,42,43
 1285 845 1285 845 1125.5 1013 c 128,-1,44
 966 1181 966 1181 745 1181 c 0,45,46
 522 1181 522 1181 363 1013 c 128,-1,47
 204 845 204 845 204 608 c 0,36,37
EndSplineSet
Validated: 1
EndChar

StartChar: yen
Encoding: 165 165 103
Width: 1207
GlyphClass: 1
Flags: W
LayerCount: 2
Fore
SplineSet
1079 1456 m 1,0,-1
 1145 1456 l 1,1,-1
 656 676 l 1,2,-1
 1080 676 l 1,3,-1
 1080 621 l 1,4,-1
 628 621 l 1,5,-1
 628 381 l 1,6,-1
 1080 381 l 1,7,-1
 1080 326 l 1,8,-1
 628 326 l 1,9,-1
 628 0 l 1,10,-1
 574 0 l 1,11,-1
 574 326 l 1,12,-1
 124 326 l 1,13,-1
 124 381 l 1,14,-1
 574 381 l 1,15,-1
 574 621 l 1,16,-1
 124 621 l 1,17,-1
 124 676 l 1,18,-1
 545 676 l 1,19,-1
 58 1456 l 1,20,-1
 123 1456 l 1,21,-1
 575 738 l 1,22,-1
 599 687 l 1,23,-1
 604 687 l 1,24,-1
 628 738 l 1,25,-1
 1079 1456 l 1,0,-1
EndSplineSet
Validated: 1
EndChar

StartChar: brokenbar
Encoding: 166 166 104
Width: 398
GlyphClass: 1
Flags: W
LayerCount: 2
Fore
SplineSet
172 -270 m 1,0,-1
 172 482 l 1,1,-1
 226 482 l 1,2,-1
 226 -270 l 1,3,-1
 172 -270 l 1,0,-1
226 698 m 1,4,-1
 172 698 l 1,5,-1
 172 1456 l 1,6,-1
 226 1456 l 1,7,-1
 226 698 l 1,4,-1
EndSplineSet
Validated: 1
EndChar

StartChar: section
Encoding: 167 167 105
Width: 1223
GlyphClass: 1
Flags: W
LayerCount: 2
Fore
SplineSet
1094 431 m 0,0,1
 1094 326 1094 326 1012 255 c 128,-1,2
 930 184 930 184 790 164 c 1,3,4
 921 114 921 114 985.5 42 c 128,-1,5
 1050 -30 1050 -30 1050 -149 c 0,6,7
 1050 -310 1050 -310 928 -402.5 c 128,-1,8
 806 -495 806 -495 600 -495 c 0,9,10
 395 -495 395 -495 255.5 -392.5 c 128,-1,11
 116 -290 116 -290 121 -69 c 1,12,-1
 123 -64 l 1,13,-1
 169 -62 l 1,14,15
 169 -261 169 -261 296 -351 c 128,-1,16
 423 -441 423 -441 600 -441 c 0,17,18
 785 -441 785 -441 890 -360.5 c 128,-1,19
 995 -280 995 -280 995 -151 c 0,20,21
 995 -31 995 -31 914.5 37.5 c 128,-1,22
 834 106 834 106 607 166 c 1,23,24
 362 224 362 224 241.5 308.5 c 128,-1,25
 121 393 121 393 121 551 c 0,26,27
 121 659 121 659 197 730 c 128,-1,28
 273 801 273 801 408 822 c 1,29,30
 286 870 286 870 226 942.5 c 128,-1,31
 166 1015 166 1015 166 1130 c 0,32,33
 166 1287 166 1287 289 1382 c 128,-1,34
 412 1477 412 1477 618 1477 c 0,35,36
 832 1477 832 1477 951 1365.5 c 128,-1,37
 1070 1254 1070 1254 1066 1052 c 1,38,-1
 1064 1046 l 1,39,-1
 1018 1046 l 1,40,41
 1018 1208 1018 1208 911.5 1315.5 c 128,-1,42
 805 1423 805 1423 618 1423 c 0,43,44
 421 1423 421 1423 320.5 1341.5 c 128,-1,45
 220 1260 220 1260 220 1133 c 0,46,47
 220 1007 220 1007 299.5 939 c 128,-1,48
 379 871 379 871 616 804 c 1,49,50
 868 740 868 740 981 663.5 c 128,-1,51
 1094 587 1094 587 1094 431 c 0,0,1
590 766 m 0,52,53
 560 772 560 772 533 779.5 c 128,-1,54
 506 787 506 787 482 796 c 1,55,56
 330 789 330 789 252.5 722 c 128,-1,57
 175 655 175 655 175 553 c 0,58,59
 175 423 175 423 263 357.5 c 128,-1,60
 351 292 351 292 624 215 c 2,61,-1
 693 196 l 1,62,63
 854 197 854 197 947 263 c 128,-1,64
 1040 329 1040 329 1040 428 c 0,65,66
 1040 551 1040 551 944.5 622.5 c 128,-1,67
 849 694 849 694 590 766 c 0,52,53
EndSplineSet
Validated: 33
EndChar

StartChar: dieresis
Encoding: 168 168 106
Width: 906
GlyphClass: 1
Flags: W
LayerCount: 2
Fore
SplineSet
761 1338 m 1,0,-1
 625 1338 l 1,1,-1
 625 1456 l 1,2,-1
 761 1456 l 1,3,-1
 761 1338 l 1,0,-1
292 1338 m 1,4,-1
 155 1338 l 1,5,-1
 155 1456 l 1,6,-1
 292 1456 l 1,7,-1
 292 1338 l 1,4,-1
EndSplineSet
Validated: 1
EndChar

StartChar: copyright
Encoding: 169 169 107
Width: 1666
GlyphClass: 1
Flags: W
LayerCount: 2
Fore
SplineSet
1116 596 m 1,0,-1
 1119 590 l 1,1,2
 1122 440 1122 440 1043.5 361 c 128,-1,3
 965 282 965 282 826 282 c 0,4,5
 682 282 682 282 594 389 c 128,-1,6
 506 496 506 496 506 669 c 2,7,-1
 506 788 l 2,8,9
 506 960 506 960 594.5 1067.5 c 128,-1,10
 683 1175 683 1175 826 1175 c 0,11,12
 965 1175 965 1175 1044 1095.5 c 128,-1,13
 1123 1016 1123 1016 1120 868 c 1,14,-1
 1117 862 l 1,15,-1
 1073 862 l 1,16,17
 1073 991 1073 991 1009 1056.5 c 128,-1,18
 945 1122 945 1122 826 1122 c 0,19,20
 703 1122 703 1122 632 1027 c 128,-1,21
 561 932 561 932 561 789 c 2,22,-1
 561 669 l 2,23,24
 561 524 561 524 631.5 430.5 c 128,-1,25
 702 337 702 337 826 337 c 0,26,27
 946 337 946 337 1009 400.5 c 128,-1,28
 1072 464 1072 464 1072 596 c 1,29,-1
 1116 596 l 1,0,-1
179 729 m 0,30,31
 179 439 179 439 370.5 236.5 c 128,-1,32
 562 34 562 34 833 34 c 0,33,34
 1102 34 1102 34 1294.5 236.5 c 128,-1,35
 1487 439 1487 439 1487 729 c 0,36,37
 1487 1018 1487 1018 1295 1219.5 c 128,-1,38
 1103 1421 1103 1421 833 1421 c 0,39,40
 562 1421 562 1421 370.5 1219.5 c 128,-1,41
 179 1018 179 1018 179 729 c 0,30,31
123 729 m 0,42,43
 123 1044 123 1044 330 1260 c 128,-1,44
 537 1476 537 1476 833 1476 c 0,45,46
 1128 1476 1128 1476 1335.5 1260 c 128,-1,47
 1543 1044 1543 1044 1543 729 c 0,48,49
 1543 413 1543 413 1335.5 196 c 128,-1,50
 1128 -21 1128 -21 833 -21 c 256,51,52
 538 -21 538 -21 330.5 196 c 128,-1,53
 123 413 123 413 123 729 c 0,42,43
EndSplineSet
Validated: 33
EndChar

StartChar: ordfeminine
Encoding: 170 170 108
Width: 898
GlyphClass: 1
Flags: W
LayerCount: 2
Fore
SplineSet
680 706 m 1,0,1
 670 734 670 734 664.5 764.5 c 128,-1,2
 659 795 659 795 658 826 c 1,3,4
 618 768 618 768 551.5 730 c 128,-1,5
 485 692 485 692 397 692 c 0,6,7
 278 692 278 692 213 753 c 128,-1,8
 148 814 148 814 148 920 c 0,9,10
 148 1021 148 1021 222 1077 c 128,-1,11
 296 1133 296 1133 437 1133 c 2,12,-1
 657 1133 l 1,13,-1
 657 1202 l 2,14,15
 657 1307 657 1307 606 1365 c 128,-1,16
 555 1423 555 1423 458 1423 c 0,17,18
 344 1423 344 1423 282.5 1376 c 128,-1,19
 221 1329 221 1329 221 1238 c 1,20,-1
 175 1243 l 1,21,-1
 173 1249 l 1,22,23
 168 1347 168 1347 247.5 1412 c 128,-1,24
 327 1477 327 1477 458 1477 c 0,25,26
 573 1477 573 1477 642.5 1405.5 c 128,-1,27
 712 1334 712 1334 712 1201 c 2,28,-1
 712 887 l 2,29,30
 712 839 712 839 718 794.5 c 128,-1,31
 724 750 724 750 738 706 c 1,32,-1
 680 706 l 1,0,1
398 747 m 0,33,34
 485 747 485 747 561 794.5 c 128,-1,35
 637 842 637 842 657 900 c 1,36,-1
 657 1077 l 1,37,-1
 438 1077 l 2,38,39
 325 1077 325 1077 263.5 1033 c 128,-1,40
 202 989 202 989 202 924 c 0,41,42
 202 840 202 840 250 793.5 c 128,-1,43
 298 747 298 747 398 747 c 0,33,34
EndSplineSet
Validated: 33
EndChar

StartChar: logicalnot
Encoding: 172 172 110
Width: 1101
GlyphClass: 1
Flags: W
LayerCount: 2
Fore
SplineSet
915 396 m 1,0,-1
 861 396 l 1,1,-1
 861 700 l 1,2,-1
 122 700 l 1,3,-1
 122 753 l 1,4,-1
 915 753 l 1,5,-1
 915 396 l 1,0,-1
EndSplineSet
Validated: 1
EndChar

StartChar: registered
Encoding: 174 174 112
Width: 1674
GlyphClass: 1
Flags: W
LayerCount: 2
Fore
SplineSet
115 729 m 0,0,1
 115 1044 115 1044 322 1260 c 128,-1,2
 529 1476 529 1476 825 1476 c 0,3,4
 1120 1476 1120 1476 1327.5 1260 c 128,-1,5
 1535 1044 1535 1044 1535 729 c 0,6,7
 1535 413 1535 413 1327.5 196 c 128,-1,8
 1120 -21 1120 -21 825 -21 c 0,9,10
 529 -21 529 -21 322 196 c 128,-1,11
 115 413 115 413 115 729 c 0,0,1
170 729 m 0,12,13
 170 439 170 439 362 236.5 c 128,-1,14
 554 34 554 34 825 34 c 0,15,16
 1094 34 1094 34 1286.5 236.5 c 128,-1,17
 1479 439 1479 439 1479 729 c 0,18,19
 1479 1018 1479 1018 1287 1219.5 c 128,-1,20
 1095 1421 1095 1421 825 1421 c 0,21,22
 554 1421 554 1421 362 1219.5 c 128,-1,23
 170 1018 170 1018 170 729 c 0,12,13
648 688 m 1,24,-1
 648 316 l 1,25,-1
 593 316 l 1,26,-1
 593 1166 l 1,27,-1
 832 1166 l 2,28,29
 975 1166 975 1166 1048 1105 c 128,-1,30
 1121 1044 1121 1044 1121 926 c 0,31,32
 1121 853 1121 853 1081 801 c 128,-1,33
 1041 749 1041 749 968 720 c 1,34,35
 1038 698 1038 698 1069 644.5 c 128,-1,36
 1100 591 1100 591 1100 515 c 2,37,-1
 1100 459 l 2,38,39
 1100 421 1100 421 1104 387.5 c 128,-1,40
 1108 354 1108 354 1117 332 c 1,41,-1
 1117 316 l 1,42,-1
 1058 316 l 1,43,44
 1048 337 1048 337 1046 377.5 c 128,-1,45
 1044 418 1044 418 1044 460 c 2,46,-1
 1044 514 l 2,47,48
 1044 608 1044 608 1002 648 c 128,-1,49
 960 688 960 688 860 688 c 2,50,-1
 648 688 l 1,24,-1
648 744 m 1,51,-1
 853 744 l 2,52,53
 944 744 944 744 1005 792 c 128,-1,54
 1066 840 1066 840 1066 927 c 0,55,56
 1066 1023 1066 1023 1013.5 1067 c 128,-1,57
 961 1111 961 1111 832 1111 c 2,58,-1
 648 1111 l 1,59,-1
 648 744 l 1,51,-1
EndSplineSet
Validated: 1
EndChar

StartChar: macron
Encoding: 175 175 113
AltUni2: 0002c9.ffffffff.0 0002c9.ffffffff.0
Width: 811
GlyphClass: 1
Flags: W
LayerCount: 2
Fore
SplineSet
719 1403 m 1,0,-1
 92 1403 l 1,1,-1
 92 1456 l 1,2,-1
 719 1456 l 1,3,-1
 719 1403 l 1,0,-1
EndSplineSet
Validated: 1
EndChar

StartChar: degree
Encoding: 176 176 114
Width: 783
GlyphClass: 1
Flags: W
LayerCount: 2
Fore
SplineSet
156 1237 m 0,0,1
 156 1335 156 1335 225 1406 c 128,-1,2
 294 1477 294 1477 392 1477 c 0,3,4
 487 1477 487 1477 555.5 1406 c 128,-1,5
 624 1335 624 1335 624 1237 c 0,6,7
 624 1137 624 1137 555.5 1068.5 c 128,-1,8
 487 1000 487 1000 392 1000 c 0,9,10
 294 1000 294 1000 225 1068.5 c 128,-1,11
 156 1137 156 1137 156 1237 c 0,0,1
211 1237 m 256,12,13
 211 1158 211 1158 262.5 1107 c 128,-1,14
 314 1056 314 1056 392 1056 c 0,15,16
 468 1056 468 1056 518 1107 c 128,-1,17
 568 1158 568 1158 568 1237 c 0,18,19
 568 1317 568 1317 518 1369.5 c 128,-1,20
 468 1422 468 1422 392 1422 c 0,21,22
 314 1422 314 1422 262.5 1369 c 128,-1,23
 211 1316 211 1316 211 1237 c 256,12,13
EndSplineSet
Validated: 1
EndChar

StartChar: plusminus
Encoding: 177 177 115
Width: 1077
GlyphClass: 1
Flags: W
LayerCount: 2
Fore
SplineSet
569 805 m 1,0,-1
 988 805 l 1,1,-1
 988 751 l 1,2,-1
 569 751 l 1,3,-1
 569 289 l 1,4,-1
 515 289 l 1,5,-1
 515 751 l 1,6,-1
 72 751 l 1,7,-1
 72 805 l 1,8,-1
 515 805 l 1,9,-1
 515 1267 l 1,10,-1
 569 1267 l 1,11,-1
 569 805 l 1,0,-1
1075 88 m 1,12,-1
 240 88 l 1,13,-1
 240 142 l 1,14,-1
 1075 142 l 1,15,-1
 1075 88 l 1,12,-1
EndSplineSet
Validated: 1
EndChar

StartChar: twosuperior
Encoding: 178 178 116
Width: 807
GlyphClass: 1
Flags: W
LayerCount: 2
Fore
SplineSet
665 667 m 1,0,-1
 114 667 l 1,1,-1
 114 722 l 1,2,-1
 441 1022 l 2,3,4
 524 1102 524 1102 555.5 1153 c 128,-1,5
 587 1204 587 1204 587 1255 c 0,6,7
 587 1333 587 1333 539 1378.5 c 128,-1,8
 491 1424 491 1424 395 1424 c 0,9,10
 291 1424 291 1424 235 1373 c 128,-1,11
 179 1322 179 1322 179 1242 c 1,12,-1
 131 1242 l 1,13,-1
 128 1248 l 1,14,15
 123 1343 123 1343 197 1411 c 128,-1,16
 271 1479 271 1479 395 1479 c 0,17,18
 510 1479 510 1479 576.5 1421.5 c 128,-1,19
 643 1364 643 1364 643 1254 c 0,20,21
 643 1184 643 1184 593.5 1117.5 c 128,-1,22
 544 1051 544 1051 453 963 c 1,23,-1
 188 728 l 1,24,-1
 190 722 l 1,25,-1
 665 722 l 1,26,-1
 665 667 l 1,0,-1
EndSplineSet
Validated: 33
EndChar

StartChar: threesuperior
Encoding: 179 179 117
Width: 831
GlyphClass: 1
Flags: W
LayerCount: 2
Fore
SplineSet
406 1103 m 2,0,1
 513 1103 513 1103 563.5 1143.5 c 128,-1,2
 614 1184 614 1184 614 1260 c 0,3,4
 614 1333 614 1333 561.5 1378 c 128,-1,5
 509 1423 509 1423 405 1423 c 0,6,7
 313 1423 313 1423 252 1377.5 c 128,-1,8
 191 1332 191 1332 191 1258 c 1,9,-1
 145 1258 l 1,10,-1
 143 1264 l 1,11,12
 137 1358 137 1358 214 1418 c 128,-1,13
 291 1478 291 1478 405 1478 c 0,14,15
 527 1478 527 1478 598 1420.5 c 128,-1,16
 669 1363 669 1363 669 1257 c 0,17,18
 669 1196 669 1196 633 1148 c 128,-1,19
 597 1100 597 1100 532 1076 c 1,20,21
 606 1055 606 1055 644.5 1006.5 c 128,-1,22
 683 958 683 958 683 883 c 0,23,24
 683 776 683 776 605.5 715.5 c 128,-1,25
 528 655 528 655 405 655 c 0,26,27
 290 655 290 655 207 713.5 c 128,-1,28
 124 772 124 772 129 882 c 1,29,-1
 131 888 l 1,30,-1
 179 888 l 1,31,32
 179 810 179 810 241.5 760 c 128,-1,33
 304 710 304 710 405 710 c 0,34,35
 511 710 511 710 569 755.5 c 128,-1,36
 627 801 627 801 627 881 c 0,37,38
 627 967 627 967 571.5 1007 c 128,-1,39
 516 1047 516 1047 406 1047 c 2,40,-1
 292 1047 l 1,41,-1
 292 1103 l 1,42,-1
 406 1103 l 2,0,1
EndSplineSet
Validated: 33
EndChar

StartChar: acute
Encoding: 180 180 118
Width: 511
GlyphClass: 1
Flags: W
LayerCount: 2
Fore
SplineSet
339 1518 m 1,0,-1
 417 1518 l 1,1,-1
 419 1513 l 1,2,-1
 188 1252 l 1,3,-1
 121 1252 l 1,4,-1
 119 1257 l 1,5,-1
 339 1518 l 1,0,-1
EndSplineSet
Validated: 1
EndChar

StartChar: mu
Encoding: 181 181 119
Width: 1121
GlyphClass: 1
Flags: W
LayerCount: 2
Fore
SplineSet
223 1082 m 1,0,-1
 223 440 l 2,1,2
 223 217 223 217 308 125 c 128,-1,3
 393 33 393 33 529 33 c 0,4,5
 713 33 713 33 797 126 c 128,-1,6
 881 219 881 219 899 389 c 1,7,-1
 899 1082 l 1,8,-1
 953 1082 l 1,9,-1
 953 505 l 1,10,-1
 955 505 l 1,11,12
 955 489 955 489 954.5 474.5 c 128,-1,13
 954 460 954 460 953 438 c 2,14,-1
 953 0 l 1,15,-1
 912 0 l 1,16,-1
 901 205 l 1,17,18
 853 96 853 96 763 37.5 c 128,-1,19
 673 -21 673 -21 538 -21 c 0,20,21
 435 -21 435 -21 352.5 24 c 128,-1,22
 270 69 270 69 223 171 c 1,23,-1
 223 -416 l 1,24,-1
 171 -416 l 1,25,-1
 171 1082 l 1,26,-1
 223 1082 l 1,0,-1
EndSplineSet
Validated: 1
EndChar

StartChar: paragraph
Encoding: 182 182 120
Width: 946
GlyphClass: 1
Flags: W
LayerCount: 2
Fore
SplineSet
716 0 m 1,0,-1
 716 520 l 1,1,-1
 591 520 l 2,2,3
 357 520 357 520 228 649.5 c 128,-1,4
 99 779 99 779 99 988 c 0,5,6
 99 1195 99 1195 228.5 1325.5 c 128,-1,7
 358 1456 358 1456 591 1456 c 2,8,-1
 770 1456 l 1,9,-1
 770 0 l 1,10,-1
 716 0 l 1,0,-1
EndSplineSet
Validated: 1
EndChar

StartChar: periodcentered
Encoding: 183 183 121
Width: 472
GlyphClass: 1
Flags: W
LayerCount: 2
Fore
SplineSet
289 624 m 1,0,-1
 171 624 l 1,1,-1
 171 776 l 1,2,-1
 289 776 l 1,3,-1
 289 624 l 1,0,-1
EndSplineSet
Validated: 1
EndChar

StartChar: cedilla
Encoding: 184 184 122
Width: 490
GlyphClass: 1
Flags: W
LayerCount: 2
Fore
SplineSet
207 0 m 1,0,-1
 196 -76 l 1,1,2
 287 -83 287 -83 340 -121.5 c 128,-1,3
 393 -160 393 -160 393 -245 c 0,4,5
 393 -332 393 -332 314 -383.5 c 128,-1,6
 235 -435 235 -435 88 -435 c 1,7,-1
 81 -386 l 1,8,9
 185 -386 185 -386 261.5 -350 c 128,-1,10
 338 -314 338 -314 338 -245 c 0,11,12
 338 -181 338 -181 292.5 -156 c 128,-1,13
 247 -131 247 -131 129 -121 c 1,14,-1
 154 0 l 1,15,-1
 207 0 l 1,0,-1
EndSplineSet
Validated: 1
EndChar

StartChar: onesuperior
Encoding: 185 185 123
Width: 471
GlyphClass: 1
Flags: W
LayerCount: 2
Fore
SplineSet
299 665 m 1,0,-1
 245 665 l 1,1,-1
 245 1412 l 1,2,-1
 79 1398 l 1,3,-1
 79 1454 l 1,4,-1
 299 1477 l 1,5,-1
 299 665 l 1,0,-1
EndSplineSet
Validated: 1
EndChar

StartChar: ordmasculine
Encoding: 186 186 124
Width: 914
GlyphClass: 1
Flags: W
LayerCount: 2
Fore
SplineSet
148 1142 m 2,0,1
 148 1290 148 1290 230 1383.5 c 128,-1,2
 312 1477 312 1477 452 1477 c 256,3,4
 592 1477 592 1477 674.5 1383.5 c 128,-1,5
 757 1290 757 1290 757 1142 c 2,6,-1
 757 1025 l 2,7,8
 757 876 757 876 675 783.5 c 128,-1,9
 593 691 593 691 454 691 c 0,10,11
 313 691 313 691 230.5 783.5 c 128,-1,12
 148 876 148 876 148 1025 c 2,13,-1
 148 1142 l 2,0,1
202 1025 m 2,14,15
 202 900 202 900 265 822.5 c 128,-1,16
 328 745 328 745 454 745 c 0,17,18
 574 745 574 745 639 823.5 c 128,-1,19
 704 902 704 902 704 1025 c 2,20,-1
 704 1142 l 2,21,22
 704 1264 704 1264 639 1343.5 c 128,-1,23
 574 1423 574 1423 452 1423 c 0,24,25
 331 1423 331 1423 266.5 1343.5 c 128,-1,26
 202 1264 202 1264 202 1142 c 2,27,-1
 202 1025 l 2,14,15
EndSplineSet
Validated: 1
EndChar

StartChar: questiondown
Encoding: 191 191 129
Width: 912
GlyphClass: 1
Flags: W
LayerCount: 2
Fore
SplineSet
510 683 m 1,0,1
 508 565 508 565 488.5 516.5 c 128,-1,2
 469 468 469 468 385 391 c 0,3,4
 263 274 263 274 210.5 192.5 c 128,-1,5
 158 111 158 111 158 -29 c 0,6,7
 158 -175 158 -175 235.5 -258 c 128,-1,8
 313 -341 313 -341 457 -341 c 0,9,10
 598 -341 598 -341 676 -256.5 c 128,-1,11
 754 -172 754 -172 758 -33 c 1,12,-1
 804 -33 l 1,13,-1
 807 -39 l 1,14,15
 808 -209 808 -209 709.5 -301.5 c 128,-1,16
 611 -394 611 -394 457 -394 c 0,17,18
 292 -394 292 -394 198 -293 c 128,-1,19
 104 -192 104 -192 104 -27 c 0,20,21
 104 113 104 113 166 215 c 128,-1,22
 228 317 228 317 357 433 c 1,23,24
 425 485 425 485 440.5 533.5 c 128,-1,25
 456 582 456 582 456 683 c 1,26,-1
 510 683 l 1,0,1
432 1083 m 1,27,-1
 514 1083 l 1,28,-1
 514 977 l 1,29,-1
 432 977 l 1,30,-1
 432 1083 l 1,27,-1
EndSplineSet
Validated: 33
EndChar

StartChar: AE
Encoding: 198 198 136
Width: 1816
GlyphClass: 1
Flags: W
LayerCount: 2
Fore
SplineSet
1768 0 m 1,0,-1
 1016 0 l 1,1,-1
 998 425 l 1,2,-1
 370 425 l 1,3,-1
 115 0 l 1,4,-1
 50 0 l 1,5,-1
 931 1456 l 1,6,-1
 1707 1456 l 1,7,-1
 1707 1402 l 1,8,-1
 1011 1402 l 1,9,-1
 1037 786 l 1,10,-1
 1625 786 l 1,11,-1
 1625 732 l 1,12,-1
 1039 732 l 1,13,-1
 1067 54 l 1,14,-1
 1768 54 l 1,15,-1
 1768 0 l 1,0,-1
402 478 m 1,16,-1
 996 478 l 1,17,-1
 957 1402 l 1,18,-1
 952 1403 l 1,19,-1
 895 1298 l 1,20,-1
 402 478 l 1,16,-1
EndSplineSet
Validated: 1
EndChar

StartChar: Eth
Encoding: 208 208 146
Width: 1370
GlyphClass: 1
Flags: W
LayerCount: 2
Fore
SplineSet
200 0 m 1,0,-1
 200 713 l 1,1,-1
 60 713 l 1,2,-1
 60 767 l 1,3,-1
 200 767 l 1,4,-1
 200 1456 l 1,5,-1
 633 1456 l 2,6,7
 884 1456 884 1456 1059 1276 c 128,-1,8
 1234 1096 1234 1096 1234 817 c 2,9,-1
 1234 639 l 2,10,11
 1234 359 1234 359 1059 179.5 c 128,-1,12
 884 0 884 0 633 0 c 2,13,-1
 200 0 l 1,0,-1
647 713 m 1,14,-1
 254 713 l 1,15,-1
 254 54 l 1,16,-1
 633 54 l 2,17,18
 860 54 860 54 1020 220 c 128,-1,19
 1180 386 1180 386 1180 639 c 2,20,-1
 1180 820 l 2,21,22
 1180 1070 1180 1070 1020 1236 c 128,-1,23
 860 1402 860 1402 633 1402 c 2,24,-1
 254 1402 l 1,25,-1
 254 767 l 1,26,-1
 647 767 l 1,27,-1
 647 713 l 1,14,-1
EndSplineSet
Validated: 1
Substitution2: "'smcp' Lowercase to Small Capitals lookup 0 subtable" Eth.smcp
EndChar

StartChar: multiply
Encoding: 215 215 153
Width: 1052
GlyphClass: 1
Flags: W
LayerCount: 2
Fore
SplineSet
98 289 m 1,0,-1
 482 682 l 1,1,-1
 125 1046 l 1,2,-1
 164 1085 l 1,3,-1
 520 721 l 1,4,-1
 877 1085 l 1,5,-1
 916 1046 l 1,6,-1
 559 682 l 1,7,-1
 944 289 l 1,8,-1
 905 252 l 1,9,-1
 521 643 l 1,10,-1
 137 252 l 1,11,-1
 98 289 l 1,0,-1
EndSplineSet
Validated: 1
EndChar

StartChar: Oslash
Encoding: 216 216 154
Width: 1364
GlyphClass: 1
Flags: W
LayerCount: 2
Fore
SplineSet
1231 619 m 2,0,1
 1231 324 1231 324 1085 151.5 c 128,-1,2
 939 -21 939 -21 683 -21 c 0,3,4
 584 -21 584 -21 501.5 5 c 128,-1,5
 419 31 419 31 353 82 c 1,6,-1
 254 -75 l 1,7,-1
 188 -75 l 1,8,-1
 311 118 l 1,9,10
 224 202 224 202 178.5 329.5 c 128,-1,11
 133 457 133 457 133 619 c 2,12,-1
 133 837 l 2,13,14
 133 1131 133 1131 278.5 1304 c 128,-1,15
 424 1477 424 1477 681 1477 c 0,16,17
 802 1477 802 1477 901 1435.5 c 128,-1,18
 1000 1394 1000 1394 1072 1317 c 1,19,-1
 1185 1495 l 1,20,-1
 1251 1495 l 1,21,-1
 1109 1272 l 1,22,23
 1168 1189 1168 1189 1199.5 1078.5 c 128,-1,24
 1231 968 1231 968 1231 837 c 2,25,-1
 1231 619 l 2,0,1
188 619 m 2,26,27
 188 473 188 473 226 358 c 128,-1,28
 264 243 264 243 338 172 c 1,29,-1
 344 171 l 1,30,-1
 1043 1271 l 1,31,32
 978 1344 978 1344 887 1383.5 c 128,-1,33
 796 1423 796 1423 681 1423 c 0,34,35
 444 1423 444 1423 316 1265 c 128,-1,36
 188 1107 188 1107 188 839 c 2,37,-1
 188 619 l 2,26,27
1177 839 m 2,38,39
 1177 954 1177 954 1152.5 1051 c 128,-1,40
 1128 1148 1128 1148 1081 1217 c 1,41,-1
 1075 1218 l 1,42,-1
 382 127 l 1,43,44
 441 80 441 80 516.5 56.5 c 128,-1,45
 592 33 592 33 683 33 c 0,46,47
 921 33 921 33 1049 190.5 c 128,-1,48
 1177 348 1177 348 1177 619 c 2,49,-1
 1177 839 l 2,38,39
EndSplineSet
Validated: 1
EndChar

StartChar: Thorn
Encoding: 222 222 160
Width: 1219
GlyphClass: 1
Flags: W
LayerCount: 2
Fore
SplineSet
254 1456 m 1,0,-1
 254 1143 l 1,1,-1
 625 1143 l 2,2,3
 837 1143 837 1143 956 1030 c 128,-1,4
 1075 917 1075 917 1075 738 c 0,5,6
 1075 558 1075 558 956 446 c 128,-1,7
 837 334 837 334 625 334 c 2,8,-1
 254 334 l 1,9,-1
 254 0 l 1,10,-1
 200 0 l 1,11,-1
 200 1456 l 1,12,-1
 254 1456 l 1,0,-1
254 1089 m 1,13,-1
 254 388 l 1,14,-1
 625 388 l 2,15,16
 820 388 820 388 920.5 492 c 128,-1,17
 1021 596 1021 596 1021 736 c 0,18,19
 1021 880 1021 880 921 984.5 c 128,-1,20
 821 1089 821 1089 625 1089 c 2,21,-1
 254 1089 l 1,13,-1
EndSplineSet
Validated: 1
EndChar

StartChar: germandbls
Encoding: 223 223 161
Width: 1183
GlyphClass: 1
Flags: W
LayerCount: 2
Fore
SplineSet
218 0 m 1,0,-1
 164 0 l 1,1,-1
 164 1082 l 2,2,3
 164 1270 164 1270 253 1372 c 128,-1,4
 342 1474 342 1474 503 1474 c 0,5,6
 626 1474 626 1474 710.5 1401 c 128,-1,7
 795 1328 795 1328 795 1206 c 0,8,9
 795 1105 795 1105 735.5 1001.5 c 128,-1,10
 676 898 676 898 676 800 c 0,11,12
 676 710 676 710 869 568.5 c 128,-1,13
 1062 427 1062 427 1062 277 c 0,14,15
 1062 136 1062 136 948 57.5 c 128,-1,16
 834 -21 834 -21 695 -21 c 0,17,18
 608 -21 608 -21 515.5 5 c 128,-1,19
 423 31 423 31 383 68 c 1,20,-1
 408 117 l 1,21,22
 450 83 450 83 530.5 57.5 c 128,-1,23
 611 32 611 32 687 32 c 0,24,25
 827 32 827 32 917.5 103.5 c 128,-1,26
 1008 175 1008 175 1008 286 c 0,27,28
 1008 399 1008 399 815 538 c 128,-1,29
 622 677 622 677 622 802 c 0,30,31
 622 907 622 907 678.5 1014 c 128,-1,32
 735 1121 735 1121 735 1208 c 0,33,34
 735 1298 735 1298 667.5 1359 c 128,-1,35
 600 1420 600 1420 513 1420 c 0,36,37
 379 1420 379 1420 298.5 1332.5 c 128,-1,38
 218 1245 218 1245 218 1082 c 2,39,-1
 218 0 l 1,0,-1
EndSplineSet
Validated: 1
Substitution2: "'smcp' Lowercase to Small Capitals lookup 0 subtable" germandbls.smcp
EndChar

StartChar: ae
Encoding: 230 230 168
Width: 1802
GlyphClass: 1
Flags: W
LayerCount: 2
Fore
SplineSet
1298 -21 m 0,0,1
 1155 -21 1155 -21 1053 45 c 128,-1,2
 951 111 951 111 898 230 c 1,3,-1
 898 218 l 1,4,-1
 899 218 l 1,5,6
 855 123 855 123 746 51 c 128,-1,7
 637 -21 637 -21 478 -21 c 0,8,9
 309 -21 309 -21 216 61 c 128,-1,10
 123 143 123 143 123 284 c 0,11,12
 123 423 123 423 234 505 c 128,-1,13
 345 587 345 587 553 587 c 2,14,-1
 843 587 l 1,15,-1
 843 720 l 2,16,17
 843 877 843 877 770.5 962.5 c 128,-1,18
 698 1048 698 1048 561 1048 c 0,19,20
 408 1048 408 1048 321 970 c 128,-1,21
 234 892 234 892 234 771 c 1,22,-1
 188 777 l 1,23,-1
 187 783 l 1,24,25
 182 921 182 921 285 1011.5 c 128,-1,26
 388 1102 388 1102 561 1102 c 0,27,28
 692 1102 692 1102 779.5 1028 c 128,-1,29
 867 954 867 954 890 814 c 1,30,31
 943 947 943 947 1047 1024.5 c 128,-1,32
 1151 1102 1151 1102 1283 1102 c 0,33,34
 1471 1102 1471 1102 1579 983.5 c 128,-1,35
 1687 865 1687 865 1687 660 c 2,36,-1
 1687 577 l 1,37,-1
 900 577 l 1,38,-1
 900 564 l 1,39,-1
 900 500 l 2,40,41
 900 292 900 292 999 162.5 c 128,-1,42
 1098 33 1098 33 1298 33 c 0,43,44
 1400 33 1400 33 1484.5 67.5 c 128,-1,45
 1569 102 1569 102 1630 164 c 1,46,-1
 1660 122 l 1,47,48
 1595 56 1595 56 1511.5 17.5 c 128,-1,49
 1428 -21 1428 -21 1298 -21 c 0,0,1
477 31 m 0,50,51
 607 31 607 31 714 96.5 c 128,-1,52
 821 162 821 162 843 225 c 1,53,-1
 843 532 l 1,54,-1
 555 532 l 2,55,56
 370 532 370 532 274 460.5 c 128,-1,57
 178 389 178 389 178 280 c 0,58,59
 178 163 178 163 255.5 97 c 128,-1,60
 333 31 333 31 477 31 c 0,50,51
1283 1048 m 0,61,62
 1124 1048 1124 1048 1022.5 931.5 c 128,-1,63
 921 815 921 815 908 637 c 1,64,-1
 910 632 l 1,65,-1
 1633 632 l 1,66,-1
 1633 664 l 2,67,68
 1633 832 1633 832 1541.5 940 c 128,-1,69
 1450 1048 1450 1048 1283 1048 c 0,61,62
EndSplineSet
Validated: 33
EndChar

StartChar: eth
Encoding: 240 240 178
Width: 1183
GlyphClass: 1
Flags: W
LayerCount: 2
Fore
SplineSet
827 1323 m 1,0,1
 935 1221 935 1221 988 1082.5 c 128,-1,2
 1041 944 1041 944 1041 755 c 2,3,-1
 1041 535 l 2,4,5
 1041 290 1041 290 909.5 134.5 c 128,-1,6
 778 -21 778 -21 579 -21 c 256,7,8
 380 -21 380 -21 251.5 113.5 c 128,-1,9
 123 248 123 248 123 446 c 0,10,11
 123 687 123 687 241.5 820 c 128,-1,12
 360 953 360 953 571 953 c 0,13,14
 708 953 708 953 817.5 902 c 128,-1,15
 927 851 927 851 980 761 c 1,16,-1
 984 766 l 1,17,18
 985 945 985 945 931 1074.5 c 128,-1,19
 877 1204 877 1204 777 1295 c 1,20,-1
 417 1089 l 1,21,-1
 389 1137 l 1,22,-1
 730 1332 l 1,23,24
 676 1372 676 1372 613.5 1405 c 128,-1,25
 551 1438 551 1438 478 1467 c 1,26,-1
 498 1517 l 1,27,28
 583 1483 583 1483 653.5 1444.5 c 128,-1,29
 724 1406 724 1406 782 1362 c 1,30,-1
 1042 1511 l 1,31,-1
 1071 1463 l 1,32,-1
 827 1323 l 1,0,1
583 37 m 0,33,34
 762 37 762 37 874.5 176.5 c 128,-1,35
 987 316 987 316 987 535 c 2,36,-1
 987 663 l 1,37,38
 944 758 944 758 836.5 826.5 c 128,-1,39
 729 895 729 895 571 895 c 0,40,41
 373 895 373 895 275.5 770.5 c 128,-1,42
 178 646 178 646 178 446 c 0,43,44
 178 282 178 282 287.5 159.5 c 128,-1,45
 397 37 397 37 583 37 c 0,33,34
EndSplineSet
Validated: 33
Substitution2: "'smcp' Lowercase to Small Capitals lookup 0 subtable" Eth.smcp
EndChar

StartChar: divide
Encoding: 247 247 185
Width: 1159
GlyphClass: 1
Flags: W
LayerCount: 2
Fore
SplineSet
1071 686 m 1,0,-1
 73 686 l 1,1,-1
 73 738 l 1,2,-1
 1071 738 l 1,3,-1
 1071 686 l 1,0,-1
631 1020 m 1,4,-1
 535 1020 l 1,5,-1
 535 1142 l 1,6,-1
 631 1142 l 1,7,-1
 631 1020 l 1,4,-1
631 241 m 1,8,-1
 535 241 l 1,9,-1
 535 363 l 1,10,-1
 631 363 l 1,11,-1
 631 241 l 1,8,-1
EndSplineSet
Validated: 1
EndChar

StartChar: oslash
Encoding: 248 248 186
Width: 1121
GlyphClass: 1
Flags: W
LayerCount: 2
Fore
SplineSet
87 562 m 2,0,1
 87 800 87 800 218.5 951 c 128,-1,2
 350 1102 350 1102 560 1102 c 0,3,4
 621 1102 621 1102 677.5 1087.5 c 128,-1,5
 734 1073 734 1073 784 1047 c 1,6,-1
 868 1219 l 1,7,-1
 931 1219 l 1,8,-1
 832 1016 l 1,9,10
 927 945 927 945 980.5 827 c 128,-1,11
 1034 709 1034 709 1034 562 c 2,12,-1
 1034 520 l 2,13,14
 1034 281 1034 281 902.5 130 c 128,-1,15
 771 -21 771 -21 562 -21 c 0,16,17
 504 -21 504 -21 451 -9 c 128,-1,18
 398 3 398 3 351 27 c 1,19,-1
 268 -145 l 1,20,-1
 205 -145 l 1,21,-1
 302 56 l 1,22,23
 200 124 200 124 143.5 245 c 128,-1,24
 87 366 87 366 87 520 c 2,25,-1
 87 562 l 2,0,1
141 520 m 2,26,27
 141 390 141 390 189 281.5 c 128,-1,28
 237 173 237 173 324 113 c 1,29,-1
 330 113 l 1,30,-1
 759 995 l 1,31,32
 715 1020 715 1020 665.5 1034 c 128,-1,33
 616 1048 616 1048 560 1048 c 0,34,35
 369 1048 369 1048 255 904.5 c 128,-1,36
 141 761 141 761 141 562 c 2,37,-1
 141 520 l 2,26,27
980 562 m 2,38,39
 980 682 980 682 934.5 788 c 128,-1,40
 889 894 889 894 809 956 c 1,41,-1
 803 957 l 1,42,-1
 375 77 l 1,43,44
 416 55 416 55 463 44 c 128,-1,45
 510 33 510 33 562 33 c 0,46,47
 752 33 752 33 866 175 c 128,-1,48
 980 317 980 317 980 520 c 2,49,-1
 980 562 l 2,38,39
EndSplineSet
Validated: 1
EndChar

StartChar: thorn
Encoding: 254 254 192
Width: 1121
GlyphClass: 1
Flags: W
LayerCount: 2
Fore
SplineSet
999 521 m 2,0,1
 999 271 999 271 891 125 c 128,-1,2
 783 -21 783 -21 593 -21 c 0,3,4
 467 -21 467 -21 374 28.5 c 128,-1,5
 281 78 281 78 227 163 c 1,6,-1
 227 0 l 1,7,-1
 226 0 l 1,8,-1
 226 -416 l 1,9,-1
 172 -416 l 1,10,-1
 172 296 l 2,11,12
 171 299 171 299 170.5 301 c 128,-1,13
 170 303 170 303 170 305 c 2,14,-1
 170 745 l 2,15,16
 170 746 170 746 170 746.5 c 128,-1,17
 170 747 170 747 172 753 c 2,18,-1
 172 1082 l 1,19,-1
 173 1082 l 1,20,-1
 173 1560 l 1,21,-1
 227 1560 l 1,22,-1
 227 894 l 1,23,24
 281 991 281 991 373 1046.5 c 128,-1,25
 465 1102 465 1102 591 1102 c 0,26,27
 782 1102 782 1102 890.5 950.5 c 128,-1,28
 999 799 999 799 999 542 c 2,29,-1
 999 521 l 2,0,1
944 542 m 2,30,31
 944 767 944 767 853.5 907.5 c 128,-1,32
 763 1048 763 1048 592 1048 c 0,33,34
 439 1048 439 1048 352.5 972 c 128,-1,35
 266 896 266 896 227 784 c 1,36,-1
 227 261 l 1,37,38
 269 156 269 156 361.5 94.5 c 128,-1,39
 454 33 454 33 594 33 c 0,40,41
 765 33 765 33 854.5 165 c 128,-1,42
 944 297 944 297 944 521 c 2,43,-1
 944 542 l 2,30,31
EndSplineSet
Validated: 1
EndChar

StartChar: Dcroat
Encoding: 272 272 210
Width: 1370
GlyphClass: 1
Flags: W
LayerCount: 2
Fore
SplineSet
200 0 m 1,0,-1
 200 713 l 1,1,-1
 60 713 l 1,2,-1
 60 767 l 1,3,-1
 200 767 l 1,4,-1
 200 1456 l 1,5,-1
 633 1456 l 2,6,7
 884 1456 884 1456 1059 1276 c 128,-1,8
 1234 1096 1234 1096 1234 817 c 2,9,-1
 1234 639 l 2,10,11
 1234 359 1234 359 1059 179.5 c 128,-1,12
 884 0 884 0 633 0 c 2,13,-1
 200 0 l 1,0,-1
647 713 m 1,14,-1
 254 713 l 1,15,-1
 254 54 l 1,16,-1
 633 54 l 2,17,18
 860 54 860 54 1020 220 c 128,-1,19
 1180 386 1180 386 1180 639 c 2,20,-1
 1180 820 l 2,21,22
 1180 1070 1180 1070 1020 1236 c 128,-1,23
 860 1402 860 1402 633 1402 c 2,24,-1
 254 1402 l 1,25,-1
 254 767 l 1,26,-1
 647 767 l 1,27,-1
 647 713 l 1,14,-1
EndSplineSet
Validated: 1
Substitution2: "'smcp' Lowercase to Small Capitals lookup 0 subtable" Dcroat.smcp
EndChar

StartChar: dcroat
Encoding: 273 273 211
Width: 1121
GlyphClass: 1
Flags: W
LayerCount: 2
Fore
SplineSet
1111 1281 m 1,0,-1
 950 1281 l 1,1,-1
 950 749 l 2,2,3
 950 747 950 747 950 746 c 128,-1,4
 950 745 950 745 951 745 c 1,5,-1
 951 304 l 2,6,7
 950 302 950 302 950 301 c 128,-1,8
 950 300 950 300 950 299 c 2,9,-1
 950 0 l 1,10,-1
 898 0 l 1,11,-1
 896 167 l 1,12,13
 842 80 842 80 748 29.5 c 128,-1,14
 654 -21 654 -21 528 -21 c 0,15,16
 337 -21 337 -21 229.5 125 c 128,-1,17
 122 271 122 271 122 521 c 2,18,-1
 122 542 l 2,19,20
 122 799 122 799 230 950.5 c 128,-1,21
 338 1102 338 1102 530 1102 c 0,22,23
 656 1102 656 1102 748.5 1045.5 c 128,-1,24
 841 989 841 989 896 891 c 1,25,-1
 896 1281 l 1,26,-1
 524 1281 l 1,27,-1
 524 1335 l 1,28,-1
 896 1335 l 1,29,-1
 896 1560 l 1,30,-1
 950 1560 l 1,31,-1
 950 1335 l 1,32,-1
 1111 1335 l 1,33,-1
 1111 1281 l 1,0,-1
178 521 m 2,34,35
 178 297 178 297 266.5 165 c 128,-1,36
 355 33 355 33 527 33 c 0,37,38
 668 33 668 33 761 96.5 c 128,-1,39
 854 160 854 160 896 266 c 1,40,-1
 896 778 l 1,41,42
 856 893 856 893 769.5 970.5 c 128,-1,43
 683 1048 683 1048 529 1048 c 0,44,45
 357 1048 357 1048 267.5 907.5 c 128,-1,46
 178 767 178 767 178 542 c 2,47,-1
 178 521 l 2,34,35
EndSplineSet
Validated: 1
Substitution2: "'smcp' Lowercase to Small Capitals lookup 0 subtable" Dcroat.smcp
EndChar

StartChar: Hbar
Encoding: 294 294 232
Width: 1389
GlyphClass: 1
Flags: W
LayerCount: 2
Fore
SplineSet
1197 1081 m 1,0,-1
 1352 1081 l 1,1,-1
 1352 1028 l 1,2,-1
 1197 1028 l 1,3,-1
 1197 0 l 1,4,-1
 1143 0 l 1,5,-1
 1143 695 l 1,6,-1
 213 695 l 1,7,-1
 213 0 l 1,8,-1
 159 0 l 1,9,-1
 159 1028 l 1,10,-1
 20 1028 l 1,11,-1
 20 1081 l 1,12,-1
 159 1081 l 1,13,-1
 159 1456 l 1,14,-1
 213 1456 l 1,15,-1
 213 1081 l 1,16,-1
 1143 1081 l 1,17,-1
 1143 1456 l 1,18,-1
 1197 1456 l 1,19,-1
 1197 1081 l 1,0,-1
213 749 m 1,20,-1
 1143 749 l 1,21,-1
 1143 1028 l 1,22,-1
 213 1028 l 1,23,-1
 213 749 l 1,20,-1
EndSplineSet
Validated: 1
EndChar

StartChar: hbar
Encoding: 295 295 233
Width: 1121
GlyphClass: 1
Flags: W
LayerCount: 2
Fore
SplineSet
652 1281 m 1,0,-1
 226 1281 l 1,1,-1
 226 857 l 1,2,3
 277 973 277 973 374 1037.5 c 128,-1,4
 471 1102 471 1102 610 1102 c 0,5,6
 779 1102 779 1102 866.5 995 c 128,-1,7
 954 888 954 888 954 658 c 2,8,-1
 954 0 l 1,9,-1
 899 0 l 1,10,-1
 899 660 l 2,11,12
 899 873 899 873 820.5 960.5 c 128,-1,13
 742 1048 742 1048 611 1048 c 0,14,15
 439 1048 439 1048 345.5 947 c 128,-1,16
 252 846 252 846 226 688 c 1,17,-1
 226 0 l 1,18,-1
 172 0 l 1,19,-1
 172 554 l 1,20,-1
 170 554 l 1,21,22
 170 575 170 575 170 589 c 128,-1,23
 170 603 170 603 172 617 c 2,24,-1
 172 1281 l 1,25,-1
 65 1281 l 1,26,-1
 65 1335 l 1,27,-1
 172 1335 l 1,28,-1
 172 1560 l 1,29,-1
 226 1560 l 1,30,-1
 226 1335 l 1,31,-1
 652 1335 l 1,32,-1
 652 1281 l 1,0,-1
EndSplineSet
Validated: 1
EndChar

StartChar: dotlessi
Encoding: 305 305 243
Width: 406
GlyphClass: 1
Flags: W
LayerCount: 2
Fore
SplineSet
235 0 m 1,0,-1
 181 0 l 1,1,-1
 181 1082 l 1,2,-1
 235 1082 l 1,3,-1
 235 0 l 1,0,-1
EndSplineSet
Validated: 1
EndChar

StartChar: kgreenlandic
Encoding: 312 312 250
Width: 1084
GlyphClass: 1
Flags: W
LayerCount: 2
Fore
SplineSet
394 529 m 1,0,-1
 226 529 l 1,1,-1
 226 0 l 1,2,-1
 171 0 l 1,3,-1
 171 1082 l 1,4,-1
 226 1082 l 1,5,-1
 226 582 l 1,6,-1
 404 582 l 1,7,-1
 893 1082 l 1,8,-1
 954 1082 l 1,9,-1
 957 1076 l 1,10,-1
 454 553 l 1,11,-1
 1019 6 l 1,12,-1
 1017 0 l 1,13,-1
 954 0 l 1,14,-1
 394 529 l 1,0,-1
EndSplineSet
Validated: 1
EndChar

StartChar: Lslash
Encoding: 321 321 259
Width: 1061
GlyphClass: 1
Flags: W
LayerCount: 2
Fore
SplineSet
247 791 m 1,0,-1
 598 902 l 1,1,-1
 598 845 l 1,2,-1
 247 734 l 1,3,-1
 247 54 l 1,4,-1
 1034 54 l 1,5,-1
 1034 0 l 1,6,-1
 192 0 l 1,7,-1
 192 716 l 1,8,-1
 8 658 l 1,9,-1
 8 715 l 1,10,-1
 192 773 l 1,11,-1
 192 1456 l 1,12,-1
 247 1456 l 1,13,-1
 247 791 l 1,0,-1
EndSplineSet
Validated: 1
EndChar

StartChar: lslash
Encoding: 322 322 260
Width: 505
GlyphClass: 1
Flags: W
LayerCount: 2
Fore
SplineSet
286 850 m 1,0,-1
 487 930 l 1,1,-1
 487 871 l 1,2,-1
 286 791 l 1,3,-1
 286 0 l 1,4,-1
 232 0 l 1,5,-1
 232 769 l 1,6,-1
 17 684 l 1,7,-1
 17 743 l 1,8,-1
 232 828 l 1,9,-1
 232 1560 l 1,10,-1
 286 1560 l 1,11,-1
 286 850 l 1,0,-1
EndSplineSet
Validated: 1
EndChar

StartChar: Eng
Encoding: 330 330 268
Width: 1450
GlyphClass: 1
Flags: W
LayerCount: 2
Fore
SplineSet
1250 1456 m 1,0,-1
 1250 -89 l 2,1,2
 1250 -256 1250 -256 1174.5 -346.5 c 128,-1,3
 1099 -437 1099 -437 965 -437 c 0,4,5
 935 -437 935 -437 909 -432 c 128,-1,6
 883 -427 883 -427 853 -417 c 1,7,-1
 866 -365 l 1,8,9
 884 -372 884 -372 911 -377.5 c 128,-1,10
 938 -383 938 -383 965 -383 c 0,11,12
 1075 -383 1075 -383 1135.5 -306 c 128,-1,13
 1196 -229 1196 -229 1196 -89 c 2,14,-1
 1196 0 l 1,15,-1
 260 1356 l 1,16,-1
 254 1354 l 1,17,-1
 254 0 l 1,18,-1
 200 0 l 1,19,-1
 200 1456 l 1,20,-1
 254 1456 l 1,21,-1
 1190 101 l 1,22,-1
 1196 103 l 1,23,-1
 1196 1456 l 1,24,-1
 1250 1456 l 1,0,-1
EndSplineSet
Validated: 1
EndChar

StartChar: eng
Encoding: 331 331 269
Width: 1121
GlyphClass: 1
Flags: W
LayerCount: 2
Fore
SplineSet
218 1082 m 1,0,-1
 225 863 l 1,1,2
 275 977 275 977 368.5 1039.5 c 128,-1,3
 462 1102 462 1102 600 1102 c 0,4,5
 777 1102 777 1102 865.5 990.5 c 128,-1,6
 954 879 954 879 954 637 c 2,7,-1
 954 -89 l 2,8,9
 954 -256 954 -256 878.5 -346.5 c 128,-1,10
 803 -437 803 -437 669 -437 c 0,11,12
 633 -437 633 -437 602 -432 c 128,-1,13
 571 -427 571 -427 536 -417 c 1,14,-1
 549 -365 l 1,15,16
 570 -372 570 -372 604 -378 c 128,-1,17
 638 -384 638 -384 669 -384 c 0,18,19
 779 -384 779 -384 839.5 -306.5 c 128,-1,20
 900 -229 900 -229 900 -89 c 2,21,-1
 900 639 l 2,22,23
 900 864 900 864 820 956 c 128,-1,24
 740 1048 740 1048 601 1048 c 0,25,26
 431 1048 431 1048 341.5 949 c 128,-1,27
 252 850 252 850 226 694 c 1,28,-1
 226 0 l 1,29,-1
 172 0 l 1,30,-1
 172 554 l 1,31,-1
 170 554 l 1,32,33
 170 568 170 568 170.5 582 c 128,-1,34
 171 596 171 596 172 617 c 2,35,-1
 172 1082 l 1,36,-1
 218 1082 l 1,0,-1
EndSplineSet
Validated: 1
EndChar

StartChar: OE
Encoding: 338 338 276
Width: 1873
GlyphClass: 1
Flags: W
LayerCount: 2
Fore
SplineSet
1759 0 m 1,0,-1
 961 0 l 1,1,2
 858 -10 858 -10 783 -15.5 c 128,-1,3
 708 -21 708 -21 631 -21 c 0,4,5
 400 -21 400 -21 256 145 c 128,-1,6
 112 311 112 311 112 576 c 2,7,-1
 112 880 l 2,8,9
 112 1145 112 1145 255 1311 c 128,-1,10
 398 1477 398 1477 629 1477 c 0,11,12
 709 1477 709 1477 790.5 1471 c 128,-1,13
 872 1465 872 1465 961 1456 c 1,14,-1
 1759 1456 l 1,15,-1
 1759 1402 l 1,16,-1
 957 1402 l 1,17,-1
 957 786 l 1,18,-1
 1657 786 l 1,19,-1
 1657 732 l 1,20,-1
 957 732 l 1,21,-1
 957 54 l 1,22,-1
 1759 54 l 1,23,-1
 1759 0 l 1,0,-1
631 33 m 0,24,25
 704 33 704 33 774 35.5 c 128,-1,26
 844 38 844 38 903 45 c 1,27,-1
 903 1411 l 1,28,29
 843 1417 843 1417 774.5 1420 c 128,-1,30
 706 1423 706 1423 629 1423 c 0,31,32
 418 1423 418 1423 292 1274 c 128,-1,33
 166 1125 166 1125 166 882 c 2,34,-1
 166 576 l 2,35,36
 166 336 166 336 293.5 184.5 c 128,-1,37
 421 33 421 33 631 33 c 0,24,25
EndSplineSet
Validated: 1
EndChar

StartChar: oe
Encoding: 339 339 277
Width: 1921
GlyphClass: 1
Flags: W
LayerCount: 2
Fore
SplineSet
1441 -21 m 0,0,1
 1291 -21 1291 -21 1174 73 c 128,-1,2
 1057 167 1057 167 1012 324 c 1,3,4
 965 164 965 164 846.5 71.5 c 128,-1,5
 728 -21 728 -21 567 -21 c 0,6,7
 356 -21 356 -21 224 130 c 128,-1,8
 92 281 92 281 92 520 c 2,9,-1
 92 562 l 2,10,11
 92 800 92 800 223.5 951 c 128,-1,12
 355 1102 355 1102 565 1102 c 0,13,14
 729 1102 729 1102 847.5 1008 c 128,-1,15
 966 914 966 914 1013 753 c 1,16,17
 1059 912 1059 912 1175.5 1007 c 128,-1,18
 1292 1102 1292 1102 1446 1102 c 0,19,20
 1626 1102 1626 1102 1733 983.5 c 128,-1,21
 1840 865 1840 865 1840 660 c 2,22,-1
 1840 577 l 1,23,-1
 1041 577 l 1,24,-1
 1041 564 l 1,25,-1
 1041 500 l 2,26,27
 1041 302 1041 302 1153 167.5 c 128,-1,28
 1265 33 1265 33 1441 33 c 0,29,30
 1538 33 1538 33 1627.5 69 c 128,-1,31
 1717 105 1717 105 1773 165 c 1,32,-1
 1802 123 l 1,33,34
 1745 60 1745 60 1655 19.5 c 128,-1,35
 1565 -21 1565 -21 1441 -21 c 0,0,1
146 520 m 2,36,37
 146 316 146 316 260 174.5 c 128,-1,38
 374 33 374 33 567 33 c 0,39,40
 757 33 757 33 871 175 c 128,-1,41
 985 317 985 317 985 520 c 2,42,-1
 985 562 l 2,43,44
 985 761 985 761 870 904.5 c 128,-1,45
 755 1048 755 1048 565 1048 c 0,46,47
 374 1048 374 1048 260 904.5 c 128,-1,48
 146 761 146 761 146 562 c 2,49,-1
 146 520 l 2,36,37
1446 1048 m 0,50,51
 1278 1048 1278 1048 1170.5 931.5 c 128,-1,52
 1063 815 1063 815 1049 637 c 1,53,-1
 1052 631 l 1,54,-1
 1786 631 l 1,55,-1
 1786 664 l 2,56,57
 1786 831 1786 831 1695 939.5 c 128,-1,58
 1604 1048 1604 1048 1446 1048 c 0,50,51
EndSplineSet
Validated: 1
EndChar

StartChar: Tbar
Encoding: 358 358 296
Width: 1224
GlyphClass: 1
Flags: W
LayerCount: 2
Fore
SplineSet
906 847 m 1,0,-1
 657 847 l 1,1,-1
 657 0 l 1,2,-1
 603 0 l 1,3,-1
 603 847 l 1,4,-1
 319 847 l 1,5,-1
 319 901 l 1,6,-1
 603 901 l 1,7,-1
 603 1402 l 1,8,-1
 57 1402 l 1,9,-1
 57 1456 l 1,10,-1
 1167 1456 l 1,11,-1
 1167 1402 l 1,12,-1
 657 1402 l 1,13,-1
 657 901 l 1,14,-1
 906 901 l 1,15,-1
 906 847 l 1,0,-1
EndSplineSet
Validated: 1
Substitution2: "'smcp' Lowercase to Small Capitals lookup 0 subtable" Tbar.smcp
EndChar

StartChar: tbar
Encoding: 359 359 297
Width: 633
GlyphClass: 1
Flags: W
LayerCount: 2
Fore
SplineSet
284 1374 m 1,0,-1
 284 1082 l 1,1,-1
 550 1082 l 1,2,-1
 550 1027 l 1,3,-1
 284 1027 l 1,4,-1
 284 688 l 1,5,-1
 619 688 l 1,6,-1
 619 634 l 1,7,-1
 284 634 l 1,8,-1
 284 279 l 2,9,10
 284 146 284 146 329 89.5 c 128,-1,11
 374 33 374 33 448 33 c 0,12,13
 475 33 475 33 496 35 c 128,-1,14
 517 37 517 37 554 42 c 1,15,-1
 564 -7 l 1,16,17
 539 -15 539 -15 512 -18 c 128,-1,18
 485 -21 485 -21 451 -21 c 0,19,20
 342 -21 342 -21 285.5 50 c 128,-1,21
 229 121 229 121 229 279 c 2,22,-1
 229 634 l 1,23,-1
 32 634 l 1,24,-1
 32 688 l 1,25,-1
 229 688 l 1,26,-1
 229 1027 l 1,27,-1
 29 1027 l 1,28,-1
 29 1082 l 1,29,-1
 229 1082 l 1,30,-1
 229 1374 l 1,31,-1
 284 1374 l 1,0,-1
EndSplineSet
Validated: 1
Substitution2: "'smcp' Lowercase to Small Capitals lookup 0 subtable" Tbar.smcp
EndChar

StartChar: longs
Encoding: 383 383 321
Width: 422
GlyphClass: 1
Flags: W
LayerCount: 2
Fore
SplineSet
174 0 m 1,0,-1
 174 1260 l 2,1,2
 174 1414 174 1414 248 1497.5 c 128,-1,3
 322 1581 322 1581 456 1581 c 0,4,5
 490 1581 490 1581 522.5 1577 c 128,-1,6
 555 1573 555 1573 584 1564 c 1,7,-1
 576 1512 l 1,8,9
 546 1520 546 1520 520.5 1523.5 c 128,-1,10
 495 1527 495 1527 457 1527 c 0,11,12
 349 1527 349 1527 288.5 1456.5 c 128,-1,13
 228 1386 228 1386 228 1260 c 2,14,-1
 228 0 l 1,15,-1
 174 0 l 1,0,-1
EndSplineSet
Validated: 1
EndChar

StartChar: florin
Encoding: 402 402 322
Width: 644
GlyphClass: 1
Flags: W
LayerCount: 2
Fore
SplineSet
593 1027 m 1,0,-1
 307 1027 l 1,1,-1
 307 -89 l 2,2,3
 307 -256 307 -256 232 -346.5 c 128,-1,4
 157 -437 157 -437 22 -437 c 0,5,6
 -7 -437 -7 -437 -33 -432 c 128,-1,7
 -59 -427 -59 -427 -90 -417 c 1,8,-1
 -77 -365 l 1,9,10
 -58 -371 -58 -371 -30.5 -377 c 128,-1,11
 -3 -383 -3 -383 22 -383 c 0,12,13
 132 -383 132 -383 192.5 -306.5 c 128,-1,14
 253 -230 253 -230 253 -89 c 2,15,-1
 253 1027 l 1,16,-1
 65 1027 l 1,17,-1
 65 1082 l 1,18,-1
 253 1082 l 1,19,-1
 253 1260 l 2,20,21
 253 1413 253 1413 327.5 1497 c 128,-1,22
 402 1581 402 1581 536 1581 c 0,23,24
 569 1581 569 1581 601.5 1577 c 128,-1,25
 634 1573 634 1573 664 1564 c 1,26,-1
 656 1512 l 1,27,28
 624 1520 624 1520 599.5 1523.5 c 128,-1,29
 575 1527 575 1527 537 1527 c 0,30,31
 429 1527 429 1527 368 1456 c 128,-1,32
 307 1385 307 1385 307 1260 c 2,33,-1
 307 1082 l 1,34,-1
 593 1082 l 1,35,-1
 593 1027 l 1,0,-1
EndSplineSet
Validated: 1
EndChar

StartChar: Ohorn
Encoding: 416 416 323
Width: 1451
GlyphClass: 1
Flags: W
LayerCount: 2
Fore
SplineSet
1262 619 m 2,0,1
 1262 324 1262 324 1116 151.5 c 128,-1,2
 970 -21 970 -21 714 -21 c 0,3,4
 457 -21 457 -21 310.5 151.5 c 128,-1,5
 164 324 164 324 164 619 c 2,6,-1
 164 837 l 2,7,8
 164 1131 164 1131 309.5 1304 c 128,-1,9
 455 1477 455 1477 712 1477 c 0,10,11
 863 1477 863 1477 978 1415 c 128,-1,12
 1093 1353 1093 1353 1163 1238 c 1,13,14
 1316 1243 1316 1243 1395.5 1336 c 128,-1,15
 1475 1429 1475 1429 1475 1601 c 1,16,-1
 1522 1601 l 1,17,-1
 1525 1596 l 1,18,19
 1527 1410 1527 1410 1439.5 1304 c 128,-1,20
 1352 1198 1352 1198 1191 1186 c 1,21,22
 1225 1112 1225 1112 1243.5 1024 c 128,-1,23
 1262 936 1262 936 1262 837 c 2,24,-1
 1262 619 l 2,0,1
1208 839 m 2,25,26
 1208 1107 1208 1107 1079 1265 c 128,-1,27
 950 1423 950 1423 712 1423 c 0,28,29
 475 1423 475 1423 347 1265 c 128,-1,30
 219 1107 219 1107 219 839 c 2,31,-1
 219 619 l 2,32,33
 219 349 219 349 347.5 191 c 128,-1,34
 476 33 476 33 714 33 c 256,35,36
 952 33 952 33 1080 190.5 c 128,-1,37
 1208 348 1208 348 1208 619 c 2,38,-1
 1208 839 l 2,25,26
EndSplineSet
Validated: 33
EndChar

StartChar: ohorn
Encoding: 417 417 324
Width: 1122
GlyphClass: 1
Flags: W
LayerCount: 2
Fore
SplineSet
87 562 m 2,0,1
 87 800 87 800 218.5 951 c 128,-1,2
 350 1102 350 1102 560 1102 c 0,3,4
 663 1102 663 1102 750 1063 c 128,-1,5
 837 1024 837 1024 901 953 c 1,6,7
 1038 954 1038 954 1110.5 1032.5 c 128,-1,8
 1183 1111 1183 1111 1183 1256 c 1,9,-1
 1231 1256 l 1,10,-1
 1233 1251 l 1,11,12
 1236 1095 1236 1095 1159 1004 c 128,-1,13
 1082 913 1082 913 941 901 c 1,14,15
 985 832 985 832 1009.5 745.5 c 128,-1,16
 1034 659 1034 659 1034 562 c 2,17,-1
 1034 520 l 2,18,19
 1034 281 1034 281 902.5 130 c 128,-1,20
 771 -21 771 -21 562 -21 c 0,21,22
 351 -21 351 -21 219 130 c 128,-1,23
 87 281 87 281 87 520 c 2,24,-1
 87 562 l 2,0,1
141 520 m 2,25,26
 141 316 141 316 255 174.5 c 128,-1,27
 369 33 369 33 562 33 c 0,28,29
 752 33 752 33 866 175 c 128,-1,30
 980 317 980 317 980 520 c 2,31,-1
 980 562 l 2,32,33
 980 761 980 761 865 904.5 c 128,-1,34
 750 1048 750 1048 560 1048 c 0,35,36
 369 1048 369 1048 255 904.5 c 128,-1,37
 141 761 141 761 141 562 c 2,38,-1
 141 520 l 2,25,26
EndSplineSet
Validated: 33
EndChar

StartChar: Uhorn
Encoding: 431 431 325
Width: 1365
GlyphClass: 1
Flags: W
LayerCount: 2
Fore
SplineSet
1580 1621 m 1,0,-1
 1583 1615 l 1,1,2
 1586 1417 1586 1417 1482 1311 c 128,-1,3
 1378 1205 1378 1205 1190 1210 c 1,4,-1
 1184 1212 l 1,5,-1
 1184 1258 l 1,6,7
 1355 1258 1355 1258 1444.5 1351 c 128,-1,8
 1534 1444 1534 1444 1534 1621 c 1,9,-1
 1580 1621 l 1,0,-1
1180 1456 m 1,10,-1
 1180 489 l 2,11,12
 1180 249 1180 249 1041 114 c 128,-1,13
 902 -21 902 -21 683 -21 c 0,14,15
 463 -21 463 -21 324 114.5 c 128,-1,16
 185 250 185 250 185 489 c 2,17,-1
 185 1456 l 1,18,-1
 239 1456 l 1,19,-1
 239 489 l 2,20,21
 239 282 239 282 364.5 157.5 c 128,-1,22
 490 33 490 33 683 33 c 0,23,24
 875 33 875 33 1000.5 157.5 c 128,-1,25
 1126 282 1126 282 1126 489 c 2,26,-1
 1126 1456 l 1,27,-1
 1180 1456 l 1,10,-1
EndSplineSet
Validated: 33
EndChar

StartChar: uhorn
Encoding: 432 432 326
Width: 1121
GlyphClass: 1
Flags: W
LayerCount: 2
Fore
SplineSet
1270 1270 m 1,0,-1
 1272 1265 l 1,1,2
 1275 1096 1275 1096 1190 999.5 c 128,-1,3
 1105 903 1105 903 950 893 c 1,4,-1
 950 445 l 1,5,-1
 952 445 l 1,6,7
 952 432 952 432 951 420 c 128,-1,8
 950 408 950 408 950 392 c 2,9,-1
 950 0 l 1,10,-1
 905 0 l 1,11,-1
 897 190 l 1,12,13
 846 90 846 90 752 34.5 c 128,-1,14
 658 -21 658 -21 524 -21 c 0,15,16
 357 -21 357 -21 262.5 97.5 c 128,-1,17
 168 216 168 216 168 465 c 2,18,-1
 168 1082 l 1,19,-1
 222 1082 l 1,20,-1
 222 463 l 2,21,22
 222 243 222 243 303 138 c 128,-1,23
 384 33 384 33 522 33 c 0,24,25
 687 33 687 33 777.5 113.5 c 128,-1,26
 868 194 868 194 895 326 c 1,27,-1
 895 1082 l 1,28,-1
 950 1082 l 1,29,-1
 950 956 l 1,30,-1
 956 954 l 1,31,32
 1085 959 1085 959 1153.5 1041 c 128,-1,33
 1222 1123 1222 1123 1222 1270 c 1,34,-1
 1270 1270 l 1,0,-1
EndSplineSet
Validated: 33
EndChar

StartChar: uni0237
Encoding: 567 567 336
Width: 422
GlyphClass: 1
Flags: W
LayerCount: 2
Fore
SplineSet
240 1082 m 1,0,-1
 240 -89 l 2,1,2
 240 -256 240 -256 165 -346.5 c 128,-1,3
 90 -437 90 -437 -45 -437 c 0,4,5
 -74 -437 -74 -437 -100 -432 c 128,-1,6
 -126 -427 -126 -427 -157 -417 c 1,7,-1
 -144 -365 l 1,8,9
 -125 -371 -125 -371 -97.5 -377 c 128,-1,10
 -70 -383 -70 -383 -45 -383 c 0,11,12
 65 -383 65 -383 125.5 -306.5 c 128,-1,13
 186 -230 186 -230 186 -89 c 2,14,-1
 186 1082 l 1,15,-1
 240 1082 l 1,0,-1
EndSplineSet
Validated: 1
EndChar

StartChar: circumflex
Encoding: 710 710 338
Width: 796
GlyphClass: 1
Flags: W
LayerCount: 2
Fore
SplineSet
656 1265 m 1,0,-1
 656 1252 l 1,1,-1
 586 1252 l 1,2,-1
 401 1438 l 1,3,-1
 218 1252 l 1,4,-1
 152 1252 l 1,5,-1
 152 1269 l 1,6,-1
 362 1475 l 1,7,-1
 442 1475 l 1,8,-1
 656 1265 l 1,0,-1
EndSplineSet
Validated: 1
EndChar

StartChar: caron
Encoding: 711 711 339
Width: 764
GlyphClass: 1
Flags: W
LayerCount: 2
Fore
SplineSet
386 1288 m 1,0,-1
 570 1475 l 1,1,-1
 637 1475 l 1,2,-1
 637 1459 l 1,3,-1
 425 1252 l 1,4,-1
 346 1252 l 1,5,-1
 132 1461 l 1,6,-1
 132 1475 l 1,7,-1
 203 1475 l 1,8,-1
 386 1288 l 1,0,-1
EndSplineSet
Validated: 1
EndChar

StartChar: breve
Encoding: 728 728 340
Width: 857
GlyphClass: 1
Flags: W
LayerCount: 2
Fore
SplineSet
696 1456 m 1,0,-1
 698 1450 l 1,1,2
 702 1343 702 1343 628 1275.5 c 128,-1,3
 554 1208 554 1208 426 1208 c 0,4,5
 297 1208 297 1208 222.5 1275.5 c 128,-1,6
 148 1343 148 1343 153 1450 c 1,7,-1
 155 1456 l 1,8,-1
 201 1456 l 1,9,10
 201 1370 201 1370 255 1317 c 128,-1,11
 309 1264 309 1264 426 1264 c 0,12,13
 538 1264 538 1264 594 1318 c 128,-1,14
 650 1372 650 1372 650 1456 c 1,15,-1
 696 1456 l 1,0,-1
EndSplineSet
Validated: 33
EndChar

StartChar: dotaccent
Encoding: 729 729 341
Width: 429
GlyphClass: 1
Flags: W
LayerCount: 2
Fore
SplineSet
250 1318 m 1,0,-1
 155 1318 l 1,1,-1
 155 1456 l 1,2,-1
 250 1456 l 1,3,-1
 250 1318 l 1,0,-1
EndSplineSet
Validated: 1
EndChar

StartChar: ring
Encoding: 730 730 342
Width: 660
GlyphClass: 1
Flags: W
LayerCount: 2
Fore
SplineSet
204 1338 m 0,0,1
 204 1394 204 1394 244 1435.5 c 128,-1,2
 284 1477 284 1477 340 1477 c 0,3,4
 394 1477 394 1477 433.5 1436 c 128,-1,5
 473 1395 473 1395 473 1338 c 256,6,7
 473 1281 473 1281 434 1242 c 128,-1,8
 395 1203 395 1203 340 1203 c 0,9,10
 284 1203 284 1203 244 1242 c 128,-1,11
 204 1281 204 1281 204 1338 c 0,0,1
261 1338 m 0,12,13
 261 1304 261 1304 284 1281.5 c 128,-1,14
 307 1259 307 1259 340 1259 c 0,15,16
 372 1259 372 1259 394 1281 c 128,-1,17
 416 1303 416 1303 416 1338 c 256,18,19
 416 1373 416 1373 394 1396.5 c 128,-1,20
 372 1420 372 1420 340 1420 c 0,21,22
 307 1420 307 1420 284 1396.5 c 128,-1,23
 261 1373 261 1373 261 1338 c 0,12,13
EndSplineSet
Validated: 1
EndChar

StartChar: ogonek
Encoding: 731 731 343
Width: 471
GlyphClass: 1
Flags: W
LayerCount: 2
Fore
SplineSet
313 0 m 1,0,1
 237 -69 237 -69 201 -116.5 c 128,-1,2
 165 -164 165 -164 165 -223 c 0,3,4
 165 -246 165 -246 181 -274.5 c 128,-1,5
 197 -303 197 -303 249 -303 c 0,6,7
 284 -303 284 -303 309 -292.5 c 128,-1,8
 334 -282 334 -282 359 -265 c 1,9,-1
 375 -313 l 1,10,11
 351 -331 351 -331 320.5 -344 c 128,-1,12
 290 -357 290 -357 249 -357 c 0,13,14
 188 -357 188 -357 149.5 -321.5 c 128,-1,15
 111 -286 111 -286 111 -223 c 0,16,17
 111 -162 111 -162 153 -99.5 c 128,-1,18
 195 -37 195 -37 261 20 c 1,19,-1
 313 0 l 1,0,1
EndSplineSet
Validated: 1
EndChar

StartChar: tilde
Encoding: 732 732 344
Width: 818
GlyphClass: 1
Flags: W
LayerCount: 2
Fore
SplineSet
714 1472 m 1,0,1
 714 1390 714 1390 663 1338 c 128,-1,2
 612 1286 612 1286 538 1286 c 0,3,4
 462 1286 462 1286 384 1348.5 c 128,-1,5
 306 1411 306 1411 251 1411 c 0,6,7
 199 1411 199 1411 164.5 1374 c 128,-1,8
 130 1337 130 1337 130 1276 c 1,9,-1
 75 1286 l 1,10,11
 75 1366 75 1366 125 1415.5 c 128,-1,12
 175 1465 175 1465 251 1465 c 0,13,14
 323 1465 323 1465 404 1403 c 128,-1,15
 485 1341 485 1341 538 1341 c 0,16,17
 588 1341 588 1341 623.5 1380.5 c 128,-1,18
 659 1420 659 1420 659 1482 c 1,19,-1
 714 1472 l 1,0,1
EndSplineSet
Validated: 1
EndChar

StartChar: hungarumlaut
Encoding: 733 733 345
Width: 783
GlyphClass: 1
Flags: W
LayerCount: 2
Fore
SplineSet
672 1518 m 1,0,-1
 744 1518 l 1,1,-1
 746 1512 l 1,2,-1
 454 1252 l 1,3,-1
 389 1252 l 1,4,-1
 387 1258 l 1,5,-1
 672 1518 l 1,0,-1
402 1518 m 1,6,-1
 470 1518 l 1,7,-1
 473 1512 l 1,8,-1
 225 1252 l 1,9,-1
 163 1252 l 1,10,-1
 161 1257 l 1,11,-1
 402 1518 l 1,6,-1
EndSplineSet
Validated: 1
EndChar

StartChar: uni02F3
Encoding: 755 755 346
Width: 642
GlyphClass: 1
Flags: W
LayerCount: 2
Fore
SplineSet
186 -219 m 0,0,1
 186 -170 186 -170 226.5 -134.5 c 128,-1,2
 267 -99 267 -99 323 -99 c 0,3,4
 377 -99 377 -99 416.5 -134.5 c 128,-1,5
 456 -170 456 -170 456 -219 c 0,6,7
 456 -267 456 -267 417 -301 c 128,-1,8
 378 -335 378 -335 323 -335 c 0,9,10
 267 -335 267 -335 226.5 -301 c 128,-1,11
 186 -267 186 -267 186 -219 c 0,0,1
244 -219 m 0,12,13
 244 -244 244 -244 267 -261.5 c 128,-1,14
 290 -279 290 -279 323 -279 c 0,15,16
 355 -279 355 -279 377 -262 c 128,-1,17
 399 -245 399 -245 399 -219 c 0,18,19
 399 -192 399 -192 377 -174.5 c 128,-1,20
 355 -157 355 -157 323 -157 c 0,21,22
 290 -157 290 -157 267 -174.5 c 128,-1,23
 244 -192 244 -192 244 -219 c 0,12,13
EndSplineSet
Validated: 1
EndChar

StartChar: hook
Encoding: 777 777 350
Width: 0
GlyphClass: 1
Flags: W
LayerCount: 2
Fore
SplineSet
-598 1227 m 1,0,-1
 -598 1326 l 1,1,2
 -497 1334 -497 1334 -453 1359.5 c 128,-1,3
 -409 1385 -409 1385 -409 1440 c 0,4,5
 -409 1497 -409 1497 -479 1523.5 c 128,-1,6
 -549 1550 -549 1550 -645 1550 c 1,7,-1
 -638 1599 l 1,8,9
 -511 1599 -511 1599 -432 1556 c 128,-1,10
 -353 1513 -353 1513 -353 1440 c 0,11,12
 -353 1364 -353 1364 -406.5 1325.5 c 128,-1,13
 -460 1287 -460 1287 -550 1281 c 1,14,-1
 -550 1227 l 1,15,-1
 -598 1227 l 1,0,-1
EndSplineSet
Validated: 1
EndChar

StartChar: uni030F
Encoding: 783 783 351
Width: 0
GlyphClass: 1
Flags: W
LayerCount: 2
Fore
SplineSet
-604 1258 m 1,0,-1
 -606 1252 l 1,1,-1
 -671 1252 l 1,2,-1
 -963 1512 l 1,3,-1
 -961 1518 l 1,4,-1
 -889 1518 l 1,5,-1
 -604 1258 l 1,0,-1
-378 1257 m 1,6,-1
 -380 1252 l 1,7,-1
 -442 1252 l 1,8,-1
 -690 1512 l 1,9,-1
 -687 1518 l 1,10,-1
 -619 1518 l 1,11,-1
 -378 1257 l 1,6,-1
EndSplineSet
Validated: 1
EndChar

StartChar: dotbelow
Encoding: 803 803 352
Width: 0
GlyphClass: 1
Flags: W
LayerCount: 2
Fore
SplineSet
-531 -295 m 1,0,-1
 -626 -295 l 1,1,-1
 -626 -157 l 1,2,-1
 -531 -157 l 1,3,-1
 -531 -295 l 1,0,-1
EndSplineSet
Validated: 1
EndChar

StartChar: tonos
Encoding: 900 900 353
Width: 514
GlyphClass: 1
Flags: W
LayerCount: 2
Fore
SplineSet
262 1516 m 1,0,-1
 368 1516 l 1,1,-1
 262 1335 l 1,2,-1
 229 1335 l 1,3,-1
 262 1516 l 1,0,-1
EndSplineSet
Validated: 1
EndChar

StartChar: dieresistonos
Encoding: 901 901 354
Width: 928
GlyphClass: 1
Flags: W
LayerCount: 2
Fore
SplineSet
771 1348 m 1,0,-1
 645 1348 l 1,1,-1
 645 1456 l 1,2,-1
 771 1456 l 1,3,-1
 771 1348 l 1,0,-1
292 1348 m 1,4,-1
 165 1348 l 1,5,-1
 165 1456 l 1,6,-1
 292 1456 l 1,7,-1
 292 1348 l 1,4,-1
466 1657 m 1,8,-1
 603 1657 l 1,9,-1
 485 1477 l 1,10,-1
 443 1477 l 1,11,-1
 466 1657 l 1,8,-1
EndSplineSet
Validated: 1
EndChar

StartChar: Gamma
Encoding: 915 915 366
Width: 1122
GlyphClass: 1
Flags: W
LayerCount: 2
Fore
SplineSet
1055 1402 m 1,0,-1
 247 1402 l 1,1,-1
 247 0 l 1,2,-1
 193 0 l 1,3,-1
 193 1456 l 1,4,-1
 1055 1456 l 1,5,-1
 1055 1402 l 1,0,-1
EndSplineSet
Validated: 1
EndChar

StartChar: Delta
Encoding: 916 916 367
AltUni2: 002206.ffffffff.0 002206.ffffffff.0
Width: 1411
GlyphClass: 1
Flags: W
LayerCount: 2
Fore
SplineSet
674 1456 m 1,0,-1
 739 1456 l 1,1,-1
 1356 0 l 1,2,-1
 58 0 l 1,3,-1
 674 1456 l 1,0,-1
140 54 m 1,4,-1
 1273 54 l 1,5,-1
 736 1325 l 1,6,-1
 709 1397 l 1,7,-1
 703 1397 l 1,8,-1
 676 1325 l 1,9,-1
 140 54 l 1,4,-1
EndSplineSet
Validated: 1
EndChar

StartChar: Theta
Encoding: 920 920 371
Width: 1364
GlyphClass: 1
Flags: W
LayerCount: 2
Fore
SplineSet
971 691 m 1,0,-1
 380 691 l 1,1,-1
 380 744 l 1,2,-1
 971 744 l 1,3,-1
 971 691 l 1,0,-1
1231 619 m 2,4,5
 1231 324 1231 324 1085 151.5 c 128,-1,6
 939 -21 939 -21 683 -21 c 0,7,8
 426 -21 426 -21 279.5 151.5 c 128,-1,9
 133 324 133 324 133 619 c 2,10,-1
 133 837 l 2,11,12
 133 1131 133 1131 278.5 1304 c 128,-1,13
 424 1477 424 1477 681 1477 c 0,14,15
 937 1477 937 1477 1084 1304 c 128,-1,16
 1231 1131 1231 1131 1231 837 c 2,17,-1
 1231 619 l 2,4,5
1177 839 m 2,18,19
 1177 1107 1177 1107 1048 1265 c 128,-1,20
 919 1423 919 1423 681 1423 c 0,21,22
 444 1423 444 1423 316 1265 c 128,-1,23
 188 1107 188 1107 188 839 c 2,24,-1
 188 619 l 2,25,26
 188 349 188 349 316.5 191 c 128,-1,27
 445 33 445 33 683 33 c 256,28,29
 921 33 921 33 1049 190.5 c 128,-1,30
 1177 348 1177 348 1177 619 c 2,31,-1
 1177 839 l 2,18,19
EndSplineSet
Validated: 1
EndChar

StartChar: Lambda
Encoding: 923 923 374
Width: 1313
GlyphClass: 1
Flags: W
LayerCount: 2
Fore
SplineSet
146 0 m 1,0,-1
 87 0 l 1,1,-1
 621 1456 l 1,2,-1
 686 1456 l 1,3,-1
 1221 0 l 1,4,-1
 1162 0 l 1,5,-1
 683 1304 l 1,6,-1
 656 1388 l 1,7,-1
 650 1388 l 1,8,-1
 623 1304 l 1,9,-1
 146 0 l 1,0,-1
EndSplineSet
Validated: 1
EndChar

StartChar: Xi
Encoding: 926 926 377
Width: 1121
GlyphClass: 1
Flags: W
LayerCount: 2
Fore
SplineSet
112 54 m 1,0,-1
 1017 54 l 1,1,-1
 1017 0 l 1,2,-1
 112 0 l 1,3,-1
 112 54 l 1,0,-1
220 741 m 1,4,-1
 901 741 l 1,5,-1
 901 687 l 1,6,-1
 220 687 l 1,7,-1
 220 741 l 1,4,-1
133 1456 m 1,8,-1
 978 1456 l 1,9,-1
 978 1403 l 1,10,-1
 133 1403 l 1,11,-1
 133 1456 l 1,8,-1
EndSplineSet
Validated: 1
EndChar

StartChar: Pi
Encoding: 928 928 379
Width: 1438
GlyphClass: 1
Flags: W
LayerCount: 2
Fore
SplineSet
1238 0 m 1,0,-1
 1184 0 l 1,1,-1
 1184 1402 l 1,2,-1
 254 1402 l 1,3,-1
 254 0 l 1,4,-1
 200 0 l 1,5,-1
 200 1456 l 1,6,-1
 1238 1456 l 1,7,-1
 1238 0 l 1,0,-1
EndSplineSet
Validated: 1
EndChar

StartChar: Sigma
Encoding: 931 931 381
Width: 1121
GlyphClass: 1
Flags: W
LayerCount: 2
Fore
SplineSet
656 768 m 1,0,-1
 133 54 l 1,1,-1
 1049 54 l 1,2,-1
 1049 0 l 1,3,-1
 57 0 l 1,4,-1
 57 44 l 1,5,-1
 604 787 l 1,6,-1
 57 1412 l 1,7,-1
 57 1456 l 1,8,-1
 94 1456 l 1,9,-1
 96 1453 l 1,10,-1
 96 1456 l 1,11,-1
 989 1456 l 1,12,-1
 989 1403 l 1,13,-1
 147 1403 l 1,14,-1
 145 1398 l 1,15,-1
 656 815 l 1,16,-1
 656 768 l 1,0,-1
EndSplineSet
Validated: 1
EndChar

StartChar: Phi
Encoding: 934 934 384
Width: 1428
GlyphClass: 1
Flags: W
LayerCount: 2
Fore
SplineSet
741 1225 m 1,0,1
 998 1218 998 1218 1152 1074 c 128,-1,2
 1306 930 1306 930 1306 719 c 0,3,4
 1306 506 1306 506 1152 360.5 c 128,-1,5
 998 215 998 215 741 209 c 1,6,-1
 741 0 l 1,7,-1
 686 0 l 1,8,-1
 686 209 l 1,9,10
 429 216 429 216 276.5 360 c 128,-1,11
 124 504 124 504 124 717 c 0,12,13
 124 927 124 927 276.5 1072 c 128,-1,14
 429 1217 429 1217 686 1225 c 1,15,-1
 686 1456 l 1,16,-1
 741 1456 l 1,17,-1
 741 1225 l 1,0,1
1251 719 m 0,18,19
 1251 911 1251 911 1113.5 1037 c 128,-1,20
 976 1163 976 1163 746 1166 c 1,21,-1
 741 1164 l 1,22,-1
 741 270 l 1,23,-1
 746 268 l 1,24,25
 976 270 976 270 1113.5 397 c 128,-1,26
 1251 524 1251 524 1251 719 c 0,18,19
179 717 m 0,27,28
 179 523 179 523 315 397 c 128,-1,29
 451 271 451 271 681 268 c 1,30,-1
 686 270 l 1,31,-1
 686 1164 l 1,32,-1
 681 1166 l 1,33,34
 452 1162 452 1162 315.5 1034.5 c 128,-1,35
 179 907 179 907 179 717 c 0,27,28
EndSplineSet
Validated: 1
EndChar

StartChar: Psi
Encoding: 936 936 386
Width: 1428
GlyphClass: 1
Flags: W
LayerCount: 2
Fore
SplineSet
741 439 m 1,0,-1
 747 436 l 1,1,2
 954 436 954 436 1087 564.5 c 128,-1,3
 1220 693 1220 693 1220 906 c 2,4,-1
 1220 1456 l 1,5,-1
 1274 1456 l 1,6,-1
 1274 906 l 2,7,8
 1274 661 1274 661 1126.5 520.5 c 128,-1,9
 979 380 979 380 741 376 c 1,10,-1
 741 0 l 1,11,-1
 686 0 l 1,12,-1
 686 376 l 1,13,14
 448 382 448 382 302 522 c 128,-1,15
 156 662 156 662 156 906 c 2,16,-1
 156 1456 l 1,17,-1
 211 1456 l 1,18,-1
 211 906 l 2,19,20
 211 695 211 695 342 567 c 128,-1,21
 473 439 473 439 680 437 c 1,22,-1
 686 439 l 1,23,-1
 686 1456 l 1,24,-1
 741 1456 l 1,25,-1
 741 439 l 1,0,-1
EndSplineSet
Validated: 1
EndChar

StartChar: Omega
Encoding: 937 937 387
AltUni2: 002126.ffffffff.0 002126.ffffffff.0
Width: 1321
GlyphClass: 1
Flags: W
LayerCount: 2
Fore
SplineSet
761 78 m 1,0,1
 914 155 914 155 1017 308 c 128,-1,2
 1120 461 1120 461 1120 732 c 2,3,-1
 1120 851 l 2,4,5
 1120 1096 1120 1096 991.5 1259.5 c 128,-1,6
 863 1423 863 1423 655 1423 c 0,7,8
 446 1423 446 1423 319 1259.5 c 128,-1,9
 192 1096 192 1096 192 851 c 2,10,-1
 192 732 l 2,11,12
 192 461 192 461 296.5 308 c 128,-1,13
 401 155 401 155 557 78 c 1,14,-1
 557 0 l 1,15,-1
 122 0 l 1,16,-1
 122 54 l 1,17,-1
 488 54 l 1,18,19
 336 141 336 141 237 306.5 c 128,-1,20
 138 472 138 472 138 732 c 2,21,-1
 138 849 l 2,22,23
 138 1131 138 1131 280.5 1304 c 128,-1,24
 423 1477 423 1477 655 1477 c 0,25,26
 886 1477 886 1477 1030 1304 c 128,-1,27
 1174 1131 1174 1131 1174 849 c 2,28,-1
 1174 732 l 2,29,30
 1174 472 1174 472 1075.5 307.5 c 128,-1,31
 977 143 977 143 827 54 c 1,32,-1
 1195 54 l 1,33,-1
 1195 0 l 1,34,-1
 761 0 l 1,35,-1
 761 78 l 1,0,1
EndSplineSet
Validated: 1
EndChar

StartChar: alpha
Encoding: 945 945 395
Width: 1149
GlyphClass: 1
Flags: W
LayerCount: 2
Fore
SplineSet
950 1081 m 1,0,-1
 950 748 l 2,1,2
 950 747 950 747 950 746 c 128,-1,3
 950 745 950 745 951 745 c 1,4,-1
 951 304 l 2,5,6
 950 302 950 302 950 301 c 128,-1,7
 950 300 950 300 950 299 c 2,8,-1
 950 235 l 2,9,10
 950 123 950 123 982 77.5 c 128,-1,11
 1014 32 1014 32 1073 32 c 0,12,13
 1089 32 1089 32 1100.5 34 c 128,-1,14
 1112 36 1112 36 1138 42 c 1,15,-1
 1149 -7 l 1,16,17
 1132 -15 1132 -15 1114.5 -18 c 128,-1,18
 1097 -21 1097 -21 1076 -21 c 0,19,20
 994 -21 994 -21 950.5 23.5 c 128,-1,21
 907 68 907 68 898 170 c 1,22,23
 844 82 844 82 749 30.5 c 128,-1,24
 654 -21 654 -21 528 -21 c 0,25,26
 337 -21 337 -21 229.5 125 c 128,-1,27
 122 271 122 271 122 521 c 2,28,-1
 122 542 l 2,29,30
 122 799 122 799 230 950.5 c 128,-1,31
 338 1102 338 1102 530 1102 c 0,32,33
 657 1102 657 1102 750 1044 c 128,-1,34
 843 986 843 986 898 885 c 1,35,-1
 915 1081 l 1,36,-1
 950 1081 l 1,0,-1
178 521 m 2,37,38
 178 297 178 297 266.5 165 c 128,-1,39
 355 33 355 33 527 33 c 0,40,41
 668 33 668 33 761 96.5 c 128,-1,42
 854 160 854 160 896 266 c 1,43,-1
 896 778 l 1,44,45
 856 893 856 893 769.5 970.5 c 128,-1,46
 683 1048 683 1048 529 1048 c 0,47,48
 357 1048 357 1048 267.5 907.5 c 128,-1,49
 178 767 178 767 178 542 c 2,50,-1
 178 521 l 2,37,38
EndSplineSet
Validated: 1
EndChar

StartChar: beta
Encoding: 946 946 396
Width: 1213
GlyphClass: 1
Flags: W
LayerCount: 2
Fore
SplineSet
583 1477 m 0,0,1
 759 1477 759 1477 866.5 1372.5 c 128,-1,2
 974 1268 974 1268 974 1103 c 0,3,4
 974 990 974 990 918 901 c 128,-1,5
 862 812 862 812 760 770 c 1,6,7
 916 737 916 737 997.5 633.5 c 128,-1,8
 1079 530 1079 530 1079 385 c 0,9,10
 1079 194 1079 194 957 86.5 c 128,-1,11
 835 -21 835 -21 634 -21 c 0,12,13
 525 -21 525 -21 417 22.5 c 128,-1,14
 309 66 309 66 249 148 c 1,15,-1
 249 -413 l 1,16,-1
 195 -413 l 1,17,-1
 195 284 l 2,18,19
 194 295 194 295 193.5 302.5 c 128,-1,20
 193 310 193 310 193 318 c 1,21,-1
 195 319 l 1,22,-1
 195 1054 l 2,23,24
 195 1236 195 1236 308 1356.5 c 128,-1,25
 421 1477 421 1477 583 1477 c 0,0,1
579 791 m 2,26,27
 754 791 754 791 837 873 c 128,-1,28
 920 955 920 955 920 1108 c 0,29,30
 920 1237 920 1237 833.5 1330 c 128,-1,31
 747 1423 747 1423 583 1423 c 0,32,33
 441 1423 441 1423 345 1318 c 128,-1,34
 249 1213 249 1213 249 1054 c 2,35,-1
 249 244 l 1,36,37
 288 149 288 149 395 91 c 128,-1,38
 502 33 502 33 634 33 c 0,39,40
 823 33 823 33 923.5 124.5 c 128,-1,41
 1024 216 1024 216 1024 381 c 0,42,43
 1024 547 1024 547 919 641 c 128,-1,44
 814 735 814 735 619 735 c 2,45,-1
 476 735 l 1,46,-1
 476 791 l 1,47,-1
 579 791 l 2,26,27
EndSplineSet
Validated: 1
EndChar

StartChar: gamma
Encoding: 947 947 397
Width: 978
GlyphClass: 1
Flags: W
LayerCount: 2
Fore
SplineSet
877 1082 m 1,0,-1
 935 1082 l 1,1,-1
 516 5 l 1,2,-1
 516 -415 l 1,3,-1
 462 -415 l 1,4,-1
 462 2 l 1,5,-1
 43 1082 l 1,6,-1
 101 1082 l 1,7,-1
 435 229 l 1,8,-1
 486 83 l 1,9,-1
 492 83 l 1,10,-1
 544 229 l 1,11,-1
 877 1082 l 1,0,-1
EndSplineSet
Validated: 1
EndChar

StartChar: delta
Encoding: 948 948 398
Width: 1121
GlyphClass: 1
Flags: W
LayerCount: 2
Fore
SplineSet
948 1456 m 1,0,-1
 948 1403 l 1,1,-1
 282 1403 l 1,2,-1
 280 1397 l 1,3,-1
 830 1023 l 2,4,5
 921 961 921 961 977.5 832.5 c 128,-1,6
 1034 704 1034 704 1034 562 c 2,7,-1
 1034 520 l 2,8,9
 1034 281 1034 281 902.5 130 c 128,-1,10
 771 -21 771 -21 562 -21 c 0,11,12
 351 -21 351 -21 219 130 c 128,-1,13
 87 281 87 281 87 520 c 2,14,-1
 87 562 l 2,15,16
 87 800 87 800 218.5 951 c 128,-1,17
 350 1102 350 1102 560 1102 c 0,18,19
 576 1102 576 1102 589.5 1101 c 128,-1,20
 603 1100 603 1100 610 1099 c 1,21,-1
 612 1104 l 1,22,-1
 185 1402 l 1,23,-1
 185 1456 l 1,24,-1
 948 1456 l 1,0,-1
560 1048 m 0,25,26
 369 1048 369 1048 255 904.5 c 128,-1,27
 141 761 141 761 141 562 c 2,28,-1
 141 520 l 2,29,30
 141 316 141 316 255 174.5 c 128,-1,31
 369 33 369 33 562 33 c 0,32,33
 752 33 752 33 866 175 c 128,-1,34
 980 317 980 317 980 520 c 2,35,-1
 980 562 l 2,36,37
 980 761 980 761 865 904.5 c 128,-1,38
 750 1048 750 1048 560 1048 c 0,25,26
EndSplineSet
Validated: 1
EndChar

StartChar: epsilon
Encoding: 949 949 399
Width: 1122
GlyphClass: 1
Flags: W
LayerCount: 2
Fore
SplineSet
116 290 m 0,0,1
 116 393 116 393 178.5 460 c 128,-1,2
 241 527 241 527 365 554 c 1,3,4
 254 585 254 585 194.5 651 c 128,-1,5
 135 717 135 717 135 802 c 0,6,7
 135 944 135 944 246 1021 c 128,-1,8
 357 1098 357 1098 550 1098 c 0,9,10
 730 1098 730 1098 853 1016.5 c 128,-1,11
 976 935 976 935 971 805 c 1,12,-1
 969 799 l 1,13,-1
 925 799 l 1,14,15
 925 909 925 909 817.5 976.5 c 128,-1,16
 710 1044 710 1044 550 1044 c 0,17,18
 369 1044 369 1044 280 978.5 c 128,-1,19
 191 913 191 913 191 805 c 256,20,21
 191 697 191 697 278.5 638.5 c 128,-1,22
 366 580 366 580 553 580 c 2,23,-1
 718 580 l 1,24,-1
 718 525 l 1,25,-1
 553 525 l 2,26,27
 363 525 363 525 266.5 467.5 c 128,-1,28
 170 410 170 410 170 287 c 0,29,30
 170 169 170 169 269 103.5 c 128,-1,31
 368 38 368 38 550 38 c 0,32,33
 724 38 724 38 833 111.5 c 128,-1,34
 942 185 942 185 942 301 c 1,35,-1
 987 301 l 1,36,-1
 989 295 l 1,37,38
 994 145 994 145 862 64 c 128,-1,39
 730 -17 730 -17 550 -17 c 0,40,41
 356 -17 356 -17 236 65 c 128,-1,42
 116 147 116 147 116 290 c 0,0,1
EndSplineSet
Validated: 33
EndChar

StartChar: zeta
Encoding: 950 950 400
Width: 977
GlyphClass: 1
Flags: W
LayerCount: 2
Fore
SplineSet
887 1456 m 1,0,-1
 887 1419 l 1,1,-1
 445 840 l 2,2,3
 321 682 321 682 273.5 563 c 128,-1,4
 226 444 226 444 226 341 c 0,5,6
 226 224 226 224 315 138.5 c 128,-1,7
 404 53 404 53 577 53 c 2,8,-1
 680 53 l 2,9,10
 786 53 786 53 835.5 5.5 c 128,-1,11
 885 -42 885 -42 885 -122 c 0,12,13
 885 -209 885 -209 813.5 -282.5 c 128,-1,14
 742 -356 742 -356 667 -379 c 1,15,-1
 653 -327 l 1,16,17
 714 -306 714 -306 773 -247 c 128,-1,18
 832 -188 832 -188 832 -121 c 0,19,20
 832 -61 832 -61 796 -30.5 c 128,-1,21
 760 0 760 0 681 0 c 2,22,-1
 577 0 l 2,23,24
 379 0 379 0 276 100.5 c 128,-1,25
 173 201 173 201 173 341 c 0,26,27
 173 454 173 454 224.5 581.5 c 128,-1,28
 276 709 276 709 408 879 c 2,29,-1
 806 1403 l 1,30,-1
 38 1403 l 1,31,-1
 38 1456 l 1,32,-1
 887 1456 l 1,0,-1
EndSplineSet
Validated: 1
EndChar

StartChar: eta
Encoding: 951 951 401
Width: 1121
GlyphClass: 1
Flags: W
LayerCount: 2
Fore
SplineSet
218 1082 m 1,0,-1
 225 863 l 1,1,2
 275 977 275 977 368.5 1039.5 c 128,-1,3
 462 1102 462 1102 600 1102 c 0,4,5
 777 1102 777 1102 865.5 990.5 c 128,-1,6
 954 879 954 879 954 637 c 2,7,-1
 954 -416 l 1,8,-1
 900 -416 l 1,9,-1
 900 639 l 2,10,11
 900 864 900 864 820 956 c 128,-1,12
 740 1048 740 1048 601 1048 c 0,13,14
 431 1048 431 1048 341.5 949 c 128,-1,15
 252 850 252 850 226 694 c 1,16,-1
 226 0 l 1,17,-1
 172 0 l 1,18,-1
 172 554 l 1,19,-1
 170 554 l 1,20,21
 170 568 170 568 170.5 582 c 128,-1,22
 171 596 171 596 172 617 c 2,23,-1
 172 1082 l 1,24,-1
 218 1082 l 1,0,-1
EndSplineSet
Validated: 1
EndChar

StartChar: theta
Encoding: 952 952 402
Width: 1181
GlyphClass: 1
Flags: W
LayerCount: 2
Fore
SplineSet
1034 514 m 2,0,1
 1034 263 1034 263 918 121 c 128,-1,2
 802 -21 802 -21 592 -21 c 0,3,4
 383 -21 383 -21 265 121.5 c 128,-1,5
 147 264 147 264 147 514 c 2,6,-1
 147 942 l 2,7,8
 147 1192 147 1192 263.5 1334.5 c 128,-1,9
 380 1477 380 1477 590 1477 c 0,10,11
 799 1477 799 1477 916.5 1334.5 c 128,-1,12
 1034 1192 1034 1192 1034 942 c 2,13,-1
 1034 514 l 2,0,1
201 749 m 1,14,-1
 980 749 l 1,15,-1
 980 942 l 2,16,17
 980 1162 980 1162 879 1292.5 c 128,-1,18
 778 1423 778 1423 590 1423 c 0,19,20
 401 1423 401 1423 301 1292.5 c 128,-1,21
 201 1162 201 1162 201 942 c 2,22,-1
 201 749 l 1,14,-1
980 695 m 1,23,-1
 201 695 l 1,24,-1
 201 516 l 2,25,26
 201 299 201 299 302.5 166 c 128,-1,27
 404 33 404 33 592 33 c 0,28,29
 779 33 779 33 879.5 165.5 c 128,-1,30
 980 298 980 298 980 516 c 2,31,-1
 980 695 l 1,23,-1
EndSplineSet
Validated: 1
EndChar

StartChar: iota
Encoding: 953 953 403
Width: 565
GlyphClass: 1
Flags: W
LayerCount: 2
Fore
SplineSet
225 1081 m 1,0,-1
 225 279 l 2,1,2
 225 144 225 144 273 88.5 c 128,-1,3
 321 33 321 33 410 33 c 0,4,5
 437 33 437 33 458 35 c 128,-1,6
 479 37 479 37 517 42 c 1,7,-1
 526 -8 l 1,8,9
 502 -15 502 -15 473.5 -18 c 128,-1,10
 445 -21 445 -21 413 -21 c 0,11,12
 287 -21 287 -21 228.5 48.5 c 128,-1,13
 170 118 170 118 170 279 c 2,14,-1
 170 1081 l 1,15,-1
 225 1081 l 1,0,-1
EndSplineSet
Validated: 1
EndChar

StartChar: lambda
Encoding: 955 955 405
Width: 1121
GlyphClass: 1
Flags: W
LayerCount: 2
Fore
SplineSet
112 0 m 1,0,-1
 53 0 l 1,1,-1
 484 1075 l 1,2,-1
 419 1252 l 1,3,4
 387 1357 387 1357 345 1410.5 c 128,-1,5
 303 1464 303 1464 226 1464 c 0,6,7
 214 1464 214 1464 191 1461.5 c 128,-1,8
 168 1459 168 1459 158 1457 c 1,9,-1
 149 1508 l 1,10,11
 160 1512 160 1512 183.5 1515 c 128,-1,12
 207 1518 207 1518 225 1518 c 0,13,14
 335 1518 335 1518 385.5 1446 c 128,-1,15
 436 1374 436 1374 473 1260 c 1,16,-1
 834 278 l 2,17,18
 873 169 873 169 913.5 108.5 c 128,-1,19
 954 48 954 48 1011 48 c 0,20,21
 1022 48 1022 48 1045 50 c 128,-1,22
 1068 52 1068 52 1079 55 c 1,23,-1
 1088 4 l 1,24,25
 1076 0 1076 0 1052 -3 c 128,-1,26
 1028 -6 1028 -6 1011 -6 c 0,27,28
 918 -6 918 -6 872.5 64 c 128,-1,29
 827 134 827 134 784 252 c 2,30,-1
 520 978 l 1,31,-1
 514 993 l 1,32,-1
 508 993 l 1,33,-1
 467 887 l 1,34,-1
 112 0 l 1,0,-1
EndSplineSet
Validated: 1
EndChar

StartChar: xi
Encoding: 958 958 408
Width: 1049
GlyphClass: 1
Flags: W
LayerCount: 2
Fore
SplineSet
694 1456 m 1,0,-1
 898 1456 l 1,1,-1
 898 1402 l 1,2,-1
 692 1402 l 2,3,4
 482 1402 482 1402 378 1327 c 128,-1,5
 274 1252 274 1252 274 1128 c 256,6,7
 274 1004 274 1004 371.5 937.5 c 128,-1,8
 469 871 469 871 677 871 c 2,9,-1
 799 871 l 1,10,-1
 799 815 l 1,11,-1
 677 815 l 2,12,13
 465 815 465 815 328.5 717.5 c 128,-1,14
 192 620 192 620 192 422 c 0,15,16
 192 252 192 252 331.5 153 c 128,-1,17
 471 54 471 54 704 54 c 2,18,-1
 747 54 l 2,19,20
 873 54 873 54 933 0.5 c 128,-1,21
 993 -53 993 -53 993 -142 c 0,22,23
 993 -222 993 -222 921 -289.5 c 128,-1,24
 849 -357 849 -357 775 -378 c 1,25,-1
 760 -326 l 1,26,27
 821 -308 821 -308 880.5 -254.5 c 128,-1,28
 940 -201 940 -201 940 -141 c 0,29,30
 940 -70 940 -70 894.5 -34.5 c 128,-1,31
 849 1 849 1 747 1 c 2,32,-1
 704 1 l 2,33,34
 462 0 462 0 299.5 114.5 c 128,-1,35
 137 229 137 229 137 426 c 0,36,37
 137 586 137 586 229 693 c 128,-1,38
 321 800 321 800 481 841 c 1,39,40
 355 874 355 874 287 950 c 128,-1,41
 219 1026 219 1026 219 1124 c 0,42,43
 219 1219 219 1219 264.5 1289.5 c 128,-1,44
 310 1360 310 1360 396 1402 c 1,45,-1
 111 1402 l 1,46,-1
 111 1456 l 1,47,-1
 605 1456 l 2,48,49
 634 1458 634 1458 653.5 1459 c 128,-1,50
 673 1460 673 1460 694 1460 c 1,51,-1
 694 1456 l 1,0,-1
EndSplineSet
Validated: 33
EndChar

StartChar: pi
Encoding: 960 960 410
Width: 1183
GlyphClass: 1
Flags: W
LayerCount: 2
Fore
SplineSet
1110 1027 m 1,0,-1
 925 1027 l 1,1,-1
 925 279 l 2,2,3
 925 144 925 144 973 88.5 c 128,-1,4
 1021 33 1021 33 1110 33 c 0,5,6
 1137 33 1137 33 1158 35 c 128,-1,7
 1179 37 1179 37 1217 42 c 1,8,-1
 1226 -8 l 1,9,10
 1202 -15 1202 -15 1173.5 -18 c 128,-1,11
 1145 -21 1145 -21 1113 -21 c 0,12,13
 987 -21 987 -21 928.5 48.5 c 128,-1,14
 870 118 870 118 870 279 c 2,15,-1
 870 1027 l 1,16,-1
 301 1027 l 1,17,-1
 301 0 l 1,18,-1
 247 0 l 1,19,-1
 247 1027 l 1,20,-1
 82 1027 l 1,21,-1
 82 1082 l 1,22,-1
 1110 1082 l 1,23,-1
 1110 1027 l 1,0,-1
EndSplineSet
Validated: 1
EndChar

StartChar: rho
Encoding: 961 961 411
Width: 1121
GlyphClass: 1
Flags: W
LayerCount: 2
Fore
SplineSet
999 521 m 2,0,1
 999 271 999 271 891 125 c 128,-1,2
 783 -21 783 -21 593 -21 c 0,3,4
 467 -21 467 -21 373 29.5 c 128,-1,5
 279 80 279 80 226 166 c 1,6,-1
 226 -416 l 1,7,-1
 172 -416 l 1,8,-1
 172 300 l 2,9,10
 171 301 171 301 171 302 c 128,-1,11
 171 303 171 303 171 305 c 2,12,-1
 172 620 l 1,13,-1
 172 636 l 2,14,15
 172 857 172 857 289.5 979.5 c 128,-1,16
 407 1102 407 1102 592 1102 c 0,17,18
 782 1102 782 1102 890.5 950.5 c 128,-1,19
 999 799 999 799 999 542 c 2,20,-1
 999 521 l 2,0,1
944 542 m 2,21,22
 944 767 944 767 853.5 907.5 c 128,-1,23
 763 1048 763 1048 592 1048 c 0,24,25
 404 1048 404 1048 315 920 c 128,-1,26
 226 792 226 792 226 615 c 2,27,-1
 226 264 l 1,28,29
 267 158 267 158 360 95.5 c 128,-1,30
 453 33 453 33 594 33 c 0,31,32
 765 33 765 33 854.5 165 c 128,-1,33
 944 297 944 297 944 521 c 2,34,-1
 944 542 l 2,21,22
EndSplineSet
Validated: 1
EndChar

StartChar: sigma1
Encoding: 962 962 412
Width: 1089
GlyphClass: 1
Flags: W
LayerCount: 2
Fore
SplineSet
573 1102 m 0,0,1
 739 1102 739 1102 851.5 1003.5 c 128,-1,2
 964 905 964 905 960 726 c 1,3,-1
 958 720 l 1,4,-1
 912 720 l 1,5,6
 912 879 912 879 814 963.5 c 128,-1,7
 716 1048 716 1048 573 1048 c 0,8,9
 382 1048 382 1048 280 911 c 128,-1,10
 178 774 178 774 178 562 c 2,11,-1
 178 520 l 2,12,13
 178 310 178 310 289 179 c 128,-1,14
 400 48 400 48 608 32 c 0,15,16
 737 21 737 21 795 -28 c 128,-1,17
 853 -77 853 -77 853 -163 c 0,18,19
 853 -243 853 -243 781 -310 c 128,-1,20
 709 -377 709 -377 634 -399 c 1,21,-1
 619 -347 l 1,22,23
 680 -328 680 -328 739.5 -275.5 c 128,-1,24
 799 -223 799 -223 799 -163 c 0,25,26
 799 -95 799 -95 754 -62.5 c 128,-1,27
 709 -30 709 -30 604 -22 c 0,28,29
 379 -5 379 -5 250.5 138.5 c 128,-1,30
 122 282 122 282 122 520 c 2,31,-1
 122 562 l 2,32,33
 122 802 122 802 244 952 c 128,-1,34
 366 1102 366 1102 573 1102 c 0,0,1
EndSplineSet
Validated: 33
EndChar

StartChar: sigma
Encoding: 963 963 413
Width: 1121
GlyphClass: 1
Flags: W
LayerCount: 2
Fore
SplineSet
1117 1027 m 1,0,-1
 772 1027 l 1,1,2
 895 964 895 964 964.5 843.5 c 128,-1,3
 1034 723 1034 723 1034 564 c 2,4,-1
 1034 521 l 2,5,6
 1034 281 1034 281 903 130 c 128,-1,7
 772 -21 772 -21 562 -21 c 0,8,9
 351 -21 351 -21 219 130 c 128,-1,10
 87 281 87 281 87 520 c 2,11,-1
 87 562 l 2,12,13
 87 789 87 789 218 935 c 128,-1,14
 349 1081 349 1081 559 1082 c 2,15,-1
 560 1082 l 1,16,-1
 571 1082 l 1,17,-1
 1117 1082 l 1,18,-1
 1117 1027 l 1,0,-1
141 520 m 2,19,20
 141 316 141 316 255 174.5 c 128,-1,21
 369 33 369 33 562 33 c 0,22,23
 752 33 752 33 866 175 c 128,-1,24
 980 317 980 317 980 520 c 2,25,-1
 980 562 l 2,26,27
 980 753 980 753 865.5 890 c 128,-1,28
 751 1027 751 1027 560 1027 c 2,29,-1
 559 1027 l 2,30,31
 368 1026 368 1026 254.5 889 c 128,-1,32
 141 752 141 752 141 562 c 2,33,-1
 141 520 l 2,19,20
EndSplineSet
Validated: 1
EndChar

StartChar: tau
Encoding: 964 964 414
Width: 1027
GlyphClass: 1
Flags: W
LayerCount: 2
Fore
SplineSet
954 1027 m 1,0,-1
 530 1027 l 1,1,-1
 530 0 l 1,2,-1
 476 0 l 1,3,-1
 476 1027 l 1,4,-1
 73 1027 l 1,5,-1
 73 1082 l 1,6,-1
 954 1082 l 1,7,-1
 954 1027 l 1,0,-1
EndSplineSet
Validated: 1
EndChar

StartChar: upsilon
Encoding: 965 965 415
Width: 1121
GlyphClass: 1
Flags: W
LayerCount: 2
Fore
SplineSet
222 1082 m 1,0,-1
 222 485 l 2,1,2
 222 253 222 253 313 143 c 128,-1,3
 404 33 404 33 562 33 c 0,4,5
 752 33 752 33 834 164.5 c 128,-1,6
 916 296 916 296 916 500 c 0,7,8
 916 659 916 659 886 803.5 c 128,-1,9
 856 948 856 948 804 1082 c 1,10,-1
 870 1082 l 1,11,12
 918 935 918 935 943.5 812 c 128,-1,13
 969 689 969 689 969 503 c 0,14,15
 969 261 969 261 870 120 c 128,-1,16
 771 -21 771 -21 564 -21 c 0,17,18
 378 -21 378 -21 273 103 c 128,-1,19
 168 227 168 227 168 487 c 2,20,-1
 168 1082 l 1,21,-1
 222 1082 l 1,0,-1
EndSplineSet
Validated: 1
EndChar

StartChar: phi
Encoding: 966 966 416
Width: 1365
GlyphClass: 1
Flags: W
LayerCount: 2
Fore
SplineSet
707 1082 m 2,0,1
 939 1082 939 1082 1086 926.5 c 128,-1,2
 1233 771 1233 771 1233 526 c 0,3,4
 1233 301 1233 301 1094.5 144.5 c 128,-1,5
 956 -12 956 -12 707 -20 c 1,6,-1
 707 -479 l 1,7,-1
 653 -479 l 1,8,-1
 653 -20 l 1,9,10
 391 -10 391 -10 265.5 141 c 128,-1,11
 140 292 140 292 140 546 c 0,12,13
 140 718 140 718 181 832.5 c 128,-1,14
 222 947 222 947 300 1082 c 1,15,-1
 366 1082 l 1,16,17
 286 959 286 959 239.5 824.5 c 128,-1,18
 193 690 193 690 193 544 c 0,19,20
 193 328 193 328 297 187 c 128,-1,21
 401 46 401 46 647 40 c 1,22,-1
 653 42 l 1,23,-1
 653 1082 l 1,24,-1
 707 1082 l 2,0,1
1180 524 m 0,25,26
 1180 730 1180 730 1047 878 c 128,-1,27
 914 1026 914 1026 713 1022 c 1,28,-1
 707 1020 l 1,29,-1
 707 41 l 1,30,-1
 713 39 l 1,31,32
 934 41 934 41 1057 183 c 128,-1,33
 1180 325 1180 325 1180 524 c 0,25,26
EndSplineSet
Validated: 33
EndChar

StartChar: chi
Encoding: 967 967 417
Width: 1121
GlyphClass: 1
Flags: W
LayerCount: 2
Fore
SplineSet
122 1090 m 0,0,1
 216 1090 216 1090 260.5 1031.5 c 128,-1,2
 305 973 305 973 370 848 c 1,3,-1
 562 422 l 1,4,-1
 924 1082 l 1,5,-1
 987 1082 l 1,6,-1
 590 361 l 1,7,-1
 814 -136 l 1,8,9
 893 -295 893 -295 915 -330.5 c 128,-1,10
 937 -366 937 -366 990 -366 c 0,11,12
 1001 -366 1001 -366 1024 -363.5 c 128,-1,13
 1047 -361 1047 -361 1059 -359 c 1,14,-1
 1068 -409 l 1,15,16
 1056 -413 1056 -413 1032 -416 c 128,-1,17
 1008 -419 1008 -419 990 -419 c 0,18,19
 918 -419 918 -419 878 -367 c 128,-1,20
 838 -315 838 -315 764 -162 c 1,21,-1
 556 300 l 1,22,-1
 163 -414 l 1,23,-1
 104 -414 l 1,24,-1
 529 361 l 1,25,-1
 315 838 l 1,26,27
 252 962 252 962 224 999 c 128,-1,28
 196 1036 196 1036 123 1036 c 0,29,30
 110 1036 110 1036 87.5 1033.5 c 128,-1,31
 65 1031 65 1031 55 1028 c 1,32,-1
 46 1080 l 1,33,34
 57 1084 57 1084 80.5 1087 c 128,-1,35
 104 1090 104 1090 122 1090 c 0,0,1
EndSplineSet
Validated: 1
EndChar

StartChar: psi
Encoding: 968 968 418
Width: 1366
GlyphClass: 1
Flags: W
LayerCount: 2
Fore
SplineSet
707 1081 m 1,0,-1
 707 42 l 1,1,-1
 713 40 l 1,2,3
 965 42 965 42 1072.5 196 c 128,-1,4
 1180 350 1180 350 1180 588 c 0,5,6
 1180 722 1180 722 1138.5 846 c 128,-1,7
 1097 970 1097 970 1028 1082 c 1,8,-1
 1095 1082 l 1,9,10
 1162 956 1162 956 1198 851.5 c 128,-1,11
 1234 747 1234 747 1234 590 c 0,12,13
 1234 313 1234 313 1104.5 150 c 128,-1,14
 975 -13 975 -13 707 -20 c 1,15,-1
 707 -415 l 1,16,-1
 653 -415 l 1,17,-1
 653 -20 l 1,18,19
 416 -10 416 -10 282 139.5 c 128,-1,20
 148 289 148 289 148 590 c 2,21,-1
 148 1082 l 1,22,-1
 202 1082 l 1,23,-1
 202 588 l 2,24,25
 202 315 202 315 321.5 179.5 c 128,-1,26
 441 44 441 44 647 41 c 1,27,-1
 653 43 l 1,28,-1
 653 1081 l 1,29,-1
 707 1081 l 1,0,-1
EndSplineSet
Validated: 1
EndChar

StartChar: omega
Encoding: 969 969 419
Width: 1772
GlyphClass: 1
Flags: W
LayerCount: 2
Fore
SplineSet
357 1082 m 1,0,1
 286 947 286 947 245.5 803 c 128,-1,2
 205 659 205 659 205 500 c 0,3,4
 205 305 205 305 289.5 169 c 128,-1,5
 374 33 374 33 539 33 c 0,6,7
 682 33 682 33 767.5 137 c 128,-1,8
 853 241 853 241 858 461 c 1,9,-1
 858 487 l 1,10,-1
 858 770 l 1,11,-1
 914 770 l 1,12,-1
 914 487 l 2,13,14
 914 482 914 482 913.5 473 c 128,-1,15
 913 464 913 464 913 461 c 0,16,17
 918 241 918 241 1003.5 137 c 128,-1,18
 1089 33 1089 33 1233 33 c 0,19,20
 1397 33 1397 33 1482 169 c 128,-1,21
 1567 305 1567 305 1567 500 c 0,22,23
 1567 658 1567 658 1526 802 c 128,-1,24
 1485 946 1485 946 1415 1082 c 1,25,-1
 1481 1082 l 1,26,27
 1549 932 1549 932 1584.5 810 c 128,-1,28
 1620 688 1620 688 1620 503 c 0,29,30
 1620 269 1620 269 1518 124 c 128,-1,31
 1416 -21 1416 -21 1234 -21 c 0,32,33
 1104 -21 1104 -21 1014 46.5 c 128,-1,34
 924 114 924 114 886 254 c 1,35,36
 846 114 846 114 756 46.5 c 128,-1,37
 666 -21 666 -21 537 -21 c 0,38,39
 354 -21 354 -21 253 124 c 128,-1,40
 152 269 152 269 152 503 c 0,41,42
 152 689 152 689 187.5 812 c 128,-1,43
 223 935 223 935 291 1082 c 1,44,-1
 357 1082 l 1,0,1
EndSplineSet
Validated: 1
EndChar

StartChar: uni03D1
Encoding: 977 977 425
Width: 1254
GlyphClass: 2
Flags: W
LayerCount: 2
Fore
SplineSet
558 1036 m 1,0,-1
 558 1098 l 2,1,2
 558 1270 558 1270 635.5 1373.5 c 128,-1,3
 713 1477 713 1477 835 1477 c 0,4,5
 965 1477 965 1477 1039.5 1376 c 128,-1,6
 1114 1275 1114 1275 1114 1098 c 2,7,-1
 1114 511 l 2,8,9
 1114 255 1114 255 980.5 117 c 128,-1,10
 847 -21 847 -21 621 -21 c 0,11,12
 408 -21 408 -21 279 123 c 128,-1,13
 150 267 150 267 150 511 c 2,14,-1
 150 1252 l 1,15,-1
 204 1254 l 1,16,-1
 204 511 l 2,17,18
 204 289 204 289 316 161 c 128,-1,19
 428 33 428 33 621 33 c 0,20,21
 832 33 832 33 946 154 c 128,-1,22
 1060 275 1060 275 1060 511 c 2,23,-1
 1060 585 l 1,24,25
 834 593 834 593 696 718.5 c 128,-1,26
 558 844 558 844 558 1036 c 1,27,-1
 558 1036 l 1,0,-1
1060 1098 m 2,28,29
 1060 1257 1060 1257 1002.5 1340 c 128,-1,30
 945 1423 945 1423 835 1423 c 0,31,32
 733 1423 733 1423 672.5 1341 c 128,-1,33
 612 1259 612 1259 612 1098 c 2,34,-1
 612 1034 l 2,35,36
 612 869 612 869 730 759 c 128,-1,37
 848 649 848 649 1055 645 c 1,38,-1
 1060 647 l 1,39,-1
 1060 1098 l 2,28,29
EndSplineSet
Validated: 5
EndChar

StartChar: uni03D2
Encoding: 978 978 426
Width: 1106
GlyphClass: 1
Flags: W
LayerCount: 2
Fore
SplineSet
812 1239 m 2,0,1
 864 1363 864 1363 924 1415 c 128,-1,2
 984 1467 984 1467 1075 1467 c 0,3,4
 1104 1467 1104 1467 1131 1458.5 c 128,-1,5
 1158 1450 1158 1450 1177 1439 c 1,6,-1
 1154 1398 l 1,7,8
 1140 1406 1140 1406 1118.5 1413 c 128,-1,9
 1097 1420 1097 1420 1071 1420 c 0,10,11
 1011 1420 1011 1420 960.5 1380.5 c 128,-1,12
 910 1341 910 1341 856 1215 c 2,13,-1
 590 617 l 1,14,-1
 590 0 l 1,15,-1
 535 0 l 1,16,-1
 535 623 l 1,17,-1
 264 1215 l 2,18,19
 207 1341 207 1341 158 1380.5 c 128,-1,20
 109 1420 109 1420 50 1420 c 0,21,22
 23 1420 23 1420 1.5 1413 c 128,-1,23
 -20 1406 -20 1406 -34 1398 c 1,24,-1
 -57 1439 l 1,25,26
 -37 1450 -37 1450 -10.5 1458.5 c 128,-1,27
 16 1467 16 1467 46 1467 c 0,28,29
 136 1467 136 1467 196 1415 c 128,-1,30
 256 1363 256 1363 308 1239 c 2,31,-1
 507 796 l 1,32,-1
 557 672 l 1,33,-1
 563 672 l 1,34,-1
 614 796 l 1,35,-1
 812 1239 l 2,0,1
EndSplineSet
Validated: 1
EndChar

StartChar: uni03D6
Encoding: 982 982 427
Width: 1612
GlyphClass: 1
Flags: W
LayerCount: 2
Fore
SplineSet
1584 1028 m 1,0,-1
 1386 1028 l 1,1,2
 1439 908 1439 908 1469.5 788.5 c 128,-1,3
 1500 669 1500 669 1500 503 c 0,4,5
 1500 268 1500 268 1404 123.5 c 128,-1,6
 1308 -21 1308 -21 1135 -21 c 0,7,8
 1013 -21 1013 -21 928 45 c 128,-1,9
 843 111 843 111 806 249 c 1,10,11
 768 111 768 111 683 45 c 128,-1,12
 598 -21 598 -21 477 -21 c 0,13,14
 304 -21 304 -21 208 124 c 128,-1,15
 112 269 112 269 112 503 c 0,16,17
 112 668 112 668 142 787 c 128,-1,18
 172 906 172 906 226 1028 c 1,19,-1
 39 1028 l 1,20,-1
 39 1083 l 1,21,-1
 1584 1083 l 1,22,-1
 1584 1028 l 1,0,-1
1447 500 m 0,23,24
 1447 642 1447 642 1413.5 772.5 c 128,-1,25
 1380 903 1380 903 1322 1028 c 1,26,-1
 290 1028 l 1,27,28
 231 903 231 903 198 772.5 c 128,-1,29
 165 642 165 642 165 500 c 0,30,31
 165 305 165 305 244.5 169 c 128,-1,32
 324 33 324 33 479 33 c 0,33,34
 617 33 617 33 697.5 143 c 128,-1,35
 778 253 778 253 778 485 c 2,36,-1
 778 772 l 1,37,-1
 834 772 l 1,38,-1
 834 487 l 2,39,40
 834 475 834 475 833.5 467.5 c 128,-1,41
 833 460 833 460 833 453 c 0,42,43
 838 238 838 238 919 135.5 c 128,-1,44
 1000 33 1000 33 1133 33 c 0,45,46
 1287 33 1287 33 1367 169 c 128,-1,47
 1447 305 1447 305 1447 500 c 0,23,24
EndSplineSet
Validated: 1
EndChar

StartChar: uni0402
Encoding: 1026 1026 430
Width: 1577
GlyphClass: 1
Flags: W
LayerCount: 2
Fore
SplineSet
1147 1402 m 1,0,-1
 637 1402 l 1,1,-1
 637 0 l 1,2,-1
 583 0 l 1,3,-1
 583 1402 l 1,4,-1
 37 1402 l 1,5,-1
 37 1456 l 1,6,-1
 1147 1456 l 1,7,-1
 1147 1402 l 1,0,-1
673 840 m 1,8,-1
 922 840 l 2,9,10
 1160 840 1160 840 1301 733.5 c 128,-1,11
 1442 627 1442 627 1442 395 c 0,12,13
 1445 268 1445 268 1358.5 142 c 128,-1,14
 1272 16 1272 16 1078 -21 c 1,15,-1
 1062 21 l 1,16,17
 1235 55 1235 55 1309.5 162.5 c 128,-1,18
 1384 270 1384 270 1388 395 c 0,19,20
 1394 594 1394 594 1264 690.5 c 128,-1,21
 1134 787 1134 787 922 787 c 2,22,-1
 673 787 l 1,23,-1
 673 840 l 1,8,-1
EndSplineSet
Validated: 33
EndChar

StartChar: uni0404
Encoding: 1028 1028 432
Width: 1325
GlyphClass: 1
Flags: W
LayerCount: 2
Fore
SplineSet
1172 447 m 1,0,-1
 1174 441 l 1,1,2
 1178 217 1178 217 1038.5 98.5 c 128,-1,3
 899 -20 899 -20 671 -20 c 0,4,5
 432 -20 432 -20 288 156.5 c 128,-1,6
 144 333 144 333 144 620 c 2,7,-1
 144 838 l 2,8,9
 144 1124 144 1124 288 1301 c 128,-1,10
 432 1478 432 1478 671 1478 c 0,11,12
 899 1478 899 1478 1038.5 1359 c 128,-1,13
 1178 1240 1178 1240 1174 1019 c 1,14,-1
 1172 1013 l 1,15,-1
 1126 1013 l 1,16,17
 1126 1210 1126 1210 1003.5 1317 c 128,-1,18
 881 1424 881 1424 671 1424 c 0,19,20
 458 1424 458 1424 328 1263 c 128,-1,21
 198 1102 198 1102 198 840 c 2,22,-1
 198 766 l 1,23,-1
 782 766 l 1,24,-1
 782 712 l 1,25,-1
 198 712 l 1,26,-1
 198 620 l 2,27,28
 198 355 198 355 328 194.5 c 128,-1,29
 458 34 458 34 671 34 c 0,30,31
 881 34 881 34 1003.5 137 c 128,-1,32
 1126 240 1126 240 1126 447 c 1,33,-1
 1172 447 l 1,0,-1
EndSplineSet
Validated: 33
EndChar

StartChar: uni0405
Encoding: 1029 1029 433
Width: 1223
GlyphClass: 1
Flags: W
LayerCount: 2
Fore
SplineSet
1060 343 m 0,0,1
 1060 468 1060 468 957.5 544.5 c 128,-1,2
 855 621 855 621 608 702 c 1,3,4
 362 777 362 777 245.5 861 c 128,-1,5
 129 945 129 945 129 1110 c 0,6,7
 129 1274 129 1274 265.5 1375.5 c 128,-1,8
 402 1477 402 1477 612 1477 c 0,9,10
 830 1477 830 1477 962.5 1365 c 128,-1,11
 1095 1253 1095 1253 1091 1052 c 1,12,-1
 1089 1046 l 1,13,-1
 1043 1046 l 1,14,15
 1043 1209 1043 1209 923 1316 c 128,-1,16
 803 1423 803 1423 612 1423 c 0,17,18
 415 1423 415 1423 299 1330.5 c 128,-1,19
 183 1238 183 1238 183 1112 c 256,20,21
 183 986 183 986 276.5 907.5 c 128,-1,22
 370 829 370 829 625 754 c 1,23,24
 873 676 873 676 994 592 c 128,-1,25
 1115 508 1115 508 1115 345 c 0,26,27
 1115 179 1115 179 972 79 c 128,-1,28
 829 -21 829 -21 619 -21 c 0,29,30
 400 -21 400 -21 242 81.5 c 128,-1,31
 84 184 84 184 89 404 c 1,32,-1
 91 410 l 1,33,-1
 136 410 l 1,34,35
 136 212 136 212 282 122.5 c 128,-1,36
 428 33 428 33 619 33 c 256,37,38
 810 33 810 33 935 121.5 c 128,-1,39
 1060 210 1060 210 1060 343 c 0,0,1
EndSplineSet
Validated: 33
EndChar

StartChar: uni0409
Encoding: 1033 1033 437
Width: 2209
GlyphClass: 1
Flags: W
LayerCount: 2
Fore
SplineSet
1233 1456 m 1,0,-1
 1233 808 l 1,1,-1
 1602 808 l 2,2,3
 1829 808 1829 808 1951.5 696 c 128,-1,4
 2074 584 2074 584 2074 404 c 0,5,6
 2074 223 2074 223 1951 111.5 c 128,-1,7
 1828 0 1828 0 1602 0 c 2,8,-1
 1179 0 l 1,9,-1
 1179 1402 l 1,10,-1
 570 1402 l 1,11,-1
 532 822 l 2,12,13
 501 350 501 350 415 175 c 128,-1,14
 329 0 329 0 86 0 c 2,15,-1
 54 0 l 1,16,-1
 54 54 l 1,17,-1
 89 54 l 2,18,19
 287 54 287 54 367.5 207 c 128,-1,20
 448 360 448 360 478 822 c 2,21,-1
 520 1456 l 1,22,-1
 1233 1456 l 1,0,-1
1233 754 m 1,23,-1
 1233 54 l 1,24,-1
 1602 54 l 2,25,26
 1810 54 1810 54 1915 154.5 c 128,-1,27
 2020 255 2020 255 2020 406 c 0,28,29
 2020 551 2020 551 1914.5 652.5 c 128,-1,30
 1809 754 1809 754 1602 754 c 2,31,-1
 1233 754 l 1,23,-1
EndSplineSet
Validated: 1
EndChar

StartChar: uni040A
Encoding: 1034 1034 438
Width: 2209
GlyphClass: 1
Flags: W
LayerCount: 2
Fore
SplineSet
249 748 m 1,0,-1
 1179 748 l 1,1,-1
 1179 1456 l 1,2,-1
 1233 1456 l 1,3,-1
 1233 810 l 1,4,-1
 1602 810 l 2,5,6
 1829 810 1829 810 1951.5 698 c 128,-1,7
 2074 586 2074 586 2074 405 c 256,8,9
 2074 224 2074 224 1951 112 c 128,-1,10
 1828 0 1828 0 1602 0 c 2,11,-1
 1179 0 l 1,12,-1
 1179 694 l 1,13,-1
 249 694 l 1,14,-1
 249 0 l 1,15,-1
 195 0 l 1,16,-1
 195 1456 l 1,17,-1
 249 1456 l 1,18,-1
 249 748 l 1,0,-1
1233 756 m 1,19,-1
 1233 53 l 1,20,-1
 1602 53 l 2,21,22
 1810 53 1810 53 1915 154 c 128,-1,23
 2020 255 2020 255 2020 407 c 0,24,25
 2020 552 2020 552 1914.5 654 c 128,-1,26
 1809 756 1809 756 1602 756 c 2,27,-1
 1233 756 l 1,19,-1
EndSplineSet
Validated: 1
EndChar

StartChar: uni040B
Encoding: 1035 1035 439
Width: 1606
GlyphClass: 1
Flags: W
LayerCount: 2
Fore
SplineSet
1140 1402 m 1,0,-1
 630 1402 l 1,1,-1
 630 920 l 1,2,-1
 957 920 l 2,3,4
 1195 920 1195 920 1316 805.5 c 128,-1,5
 1437 691 1437 691 1437 432 c 2,6,-1
 1437 0 l 1,7,-1
 1383 0 l 1,8,-1
 1383 432 l 2,9,10
 1383 658 1383 658 1276 761.5 c 128,-1,11
 1169 865 1169 865 957 865 c 2,12,-1
 630 865 l 1,13,-1
 630 0 l 1,14,-1
 576 0 l 1,15,-1
 576 1402 l 1,16,-1
 30 1402 l 1,17,-1
 30 1456 l 1,18,-1
 1140 1456 l 1,19,-1
 1140 1402 l 1,0,-1
EndSplineSet
Validated: 1
EndChar

StartChar: uni040F
Encoding: 1039 1039 443
Width: 1428
GlyphClass: 1
Flags: W
LayerCount: 2
Fore
SplineSet
195 1456 m 1,0,-1
 249 1456 l 1,1,-1
 249 54 l 1,2,-1
 1179 54 l 1,3,-1
 1179 1456 l 1,4,-1
 1233 1456 l 1,5,-1
 1233 0 l 1,6,-1
 745 0 l 1,7,-1
 745 -349 l 1,8,-1
 691 -349 l 1,9,-1
 691 0 l 1,10,-1
 195 0 l 1,11,-1
 195 1456 l 1,0,-1
EndSplineSet
Validated: 1
EndChar

StartChar: uni0411
Encoding: 1041 1041 445
Width: 1280
GlyphClass: 1
Flags: W
LayerCount: 2
Fore
SplineSet
1055 1402 m 1,0,-1
 247 1402 l 1,1,-1
 247 808 l 1,2,-1
 616 808 l 2,3,4
 842 808 842 808 964.5 696 c 128,-1,5
 1087 584 1087 584 1087 404 c 0,6,7
 1087 223 1087 223 964.5 111.5 c 128,-1,8
 842 0 842 0 616 0 c 2,9,-1
 193 0 l 1,10,-1
 193 1456 l 1,11,-1
 1055 1456 l 1,12,-1
 1055 1402 l 1,0,-1
247 754 m 1,13,-1
 247 54 l 1,14,-1
 616 54 l 2,15,16
 824 54 824 54 928 154.5 c 128,-1,17
 1032 255 1032 255 1032 406 c 0,18,19
 1032 551 1032 551 927.5 652.5 c 128,-1,20
 823 754 823 754 616 754 c 2,21,-1
 247 754 l 1,13,-1
EndSplineSet
Validated: 1
EndChar

StartChar: uni0414
Encoding: 1044 1044 448
Width: 1425
GlyphClass: 1
Flags: W
LayerCount: 2
Fore
SplineSet
1232 54 m 1,0,-1
 1352 54 l 1,1,-1
 1352 -349 l 1,2,-1
 1297 -349 l 1,3,-1
 1297 0 l 1,4,-1
 108 0 l 1,5,-1
 108 -349 l 1,6,-1
 54 -349 l 1,7,-1
 54 0 l 1,8,-1
 53 0 l 1,9,-1
 53 54 l 1,10,-1
 88 54 l 2,11,12
 234 54 234 54 337.5 294.5 c 128,-1,13
 441 535 441 535 471 991 c 1,14,-1
 512 1456 l 1,15,-1
 1232 1456 l 1,16,-1
 1232 54 l 1,0,-1
525 991 m 1,17,18
 501 633 501 633 427.5 390 c 128,-1,19
 354 147 354 147 235 54 c 1,20,-1
 1178 54 l 1,21,-1
 1178 1402 l 1,22,-1
 561 1402 l 1,23,-1
 525 991 l 1,17,18
EndSplineSet
Validated: 1
EndChar

StartChar: uni0416
Encoding: 1046 1046 450
Width: 1615
GlyphClass: 1
Flags: W
LayerCount: 2
Fore
SplineSet
936 720 m 1,0,-1
 835 720 l 1,1,-1
 835 0 l 1,2,-1
 781 0 l 1,3,-1
 781 720 l 1,4,-1
 678 720 l 1,5,-1
 101 0 l 1,6,-1
 36 0 l 1,7,-1
 33 5 l 1,8,-1
 621 737 l 1,9,-1
 64 1456 l 1,10,-1
 135 1456 l 1,11,-1
 664 774 l 1,12,-1
 781 774 l 1,13,-1
 781 1456 l 1,14,-1
 835 1456 l 1,15,-1
 835 774 l 1,16,-1
 951 774 l 1,17,-1
 1480 1456 l 1,18,-1
 1550 1456 l 1,19,-1
 993 737 l 1,20,-1
 1582 5 l 1,21,-1
 1579 0 l 1,22,-1
 1514 0 l 1,23,-1
 936 720 l 1,0,-1
EndSplineSet
Validated: 1
EndChar

StartChar: uni0417
Encoding: 1047 1047 451
Width: 1325
GlyphClass: 1
Flags: W
LayerCount: 2
Fore
SplineSet
655 771 m 2,0,1
 903 771 903 771 1021 853 c 128,-1,2
 1139 935 1139 935 1139 1087 c 0,3,4
 1139 1240 1139 1240 1019.5 1331.5 c 128,-1,5
 900 1423 900 1423 660 1423 c 0,6,7
 463 1423 463 1423 332.5 1328 c 128,-1,8
 202 1233 202 1233 202 1075 c 1,9,-1
 157 1075 l 1,10,-1
 155 1081 l 1,11,12
 149 1257 149 1257 296.5 1367 c 128,-1,13
 444 1477 444 1477 660 1477 c 0,14,15
 907 1477 907 1477 1050 1375 c 128,-1,16
 1193 1273 1193 1273 1193 1083 c 0,17,18
 1193 965 1193 965 1111.5 874.5 c 128,-1,19
 1030 784 1030 784 879 745 c 1,20,21
 1048 711 1048 711 1132 620.5 c 128,-1,22
 1216 530 1216 530 1216 386 c 0,23,24
 1216 196 1216 196 1062 87.5 c 128,-1,25
 908 -21 908 -21 660 -21 c 0,26,27
 444 -21 444 -21 286.5 88 c 128,-1,28
 129 197 129 197 134 398 c 1,29,-1
 136 404 l 1,30,-1
 182 404 l 1,31,32
 182 240 182 240 313.5 136.5 c 128,-1,33
 445 33 445 33 660 33 c 0,34,35
 899 33 899 33 1030.5 125.5 c 128,-1,36
 1162 218 1162 218 1162 382 c 0,37,38
 1162 556 1162 556 1035 635.5 c 128,-1,39
 908 715 908 715 655 715 c 2,40,-1
 471 715 l 1,41,-1
 471 771 l 1,42,-1
 655 771 l 2,0,1
EndSplineSet
Validated: 33
EndChar

StartChar: uni0418
Encoding: 1048 1048 452
Width: 1449
GlyphClass: 1
Flags: W
LayerCount: 2
Fore
SplineSet
1195 1456 m 1,0,-1
 1249 1456 l 1,1,-1
 1249 0 l 1,2,-1
 1195 0 l 1,3,-1
 1195 1354 l 1,4,-1
 1189 1356 l 1,5,-1
 254 0 l 1,6,-1
 200 0 l 1,7,-1
 200 1456 l 1,8,-1
 254 1456 l 1,9,-1
 254 105 l 1,10,-1
 260 103 l 1,11,-1
 1195 1456 l 1,0,-1
EndSplineSet
Validated: 1
EndChar

StartChar: uni041B
Encoding: 1051 1051 455
Width: 1428
GlyphClass: 1
Flags: W
LayerCount: 2
Fore
SplineSet
1233 1456 m 1,0,-1
 1233 0 l 1,1,-1
 1179 0 l 1,2,-1
 1179 1402 l 1,3,-1
 470 1402 l 1,4,-1
 432 822 l 1,5,6
 408 350 408 350 337 175 c 128,-1,7
 266 0 266 0 66 0 c 2,8,-1
 34 0 l 1,9,-1
 34 54 l 1,10,-1
 69 54 l 2,11,12
 226 54 226 54 290 206.5 c 128,-1,13
 354 359 354 359 378 822 c 1,14,-1
 420 1456 l 1,15,-1
 1233 1456 l 1,0,-1
EndSplineSet
Validated: 1
EndChar

StartChar: uni0423
Encoding: 1059 1059 463
Width: 1347
GlyphClass: 1
Flags: W
LayerCount: 2
Fore
SplineSet
614 557 m 1,0,-1
 669 456 l 1,1,-1
 689 496 l 1,2,-1
 1195 1456 l 1,3,-1
 1261 1456 l 1,4,-1
 632 257 l 2,5,6
 573 143 573 143 491.5 61 c 128,-1,7
 410 -21 410 -21 269 -21 c 0,8,9
 219 -21 219 -21 155 -6 c 128,-1,10
 91 9 91 9 62 32 c 1,11,-1
 77 83 l 1,12,13
 113 61 113 61 168 47 c 128,-1,14
 223 33 223 33 274 33 c 0,15,16
 375 33 375 33 447 96 c 128,-1,17
 519 159 519 159 573 266 c 2,18,-1
 638 394 l 1,19,-1
 43 1456 l 1,20,-1
 110 1456 l 1,21,-1
 614 557 l 1,0,-1
EndSplineSet
Validated: 1
EndChar

StartChar: uni0426
Encoding: 1062 1062 466
Width: 1426
GlyphClass: 1
Flags: W
LayerCount: 2
Fore
SplineSet
1285 -351 m 1,0,-1
 1231 -351 l 1,1,-1
 1231 85 l 1,2,-1
 1285 85 l 1,3,-1
 1285 -351 l 1,0,-1
184 1456 m 1,4,-1
 238 1456 l 1,5,-1
 238 54 l 1,6,-1
 1168 54 l 1,7,-1
 1168 1456 l 1,8,-1
 1222 1456 l 1,9,-1
 1222 0 l 1,10,-1
 184 0 l 1,11,-1
 184 1456 l 1,4,-1
EndSplineSet
Validated: 1
EndChar

StartChar: uni0427
Encoding: 1063 1063 467
Width: 1325
GlyphClass: 1
Flags: W
LayerCount: 2
Fore
SplineSet
1130 1456 m 1,0,-1
 1130 0 l 1,1,-1
 1076 0 l 1,2,-1
 1076 719 l 1,3,4
 972 690 972 690 871 674 c 128,-1,5
 770 658 770 658 674 658 c 0,6,7
 435 658 435 658 315 762.5 c 128,-1,8
 195 867 195 867 195 1105 c 2,9,-1
 195 1456 l 1,10,-1
 249 1456 l 1,11,-1
 249 1105 l 2,12,13
 249 899 249 899 355.5 805.5 c 128,-1,14
 462 712 462 712 674 712 c 0,15,16
 773 712 773 712 873 727 c 128,-1,17
 973 742 973 742 1076 772 c 1,18,-1
 1076 1456 l 1,19,-1
 1130 1456 l 1,0,-1
EndSplineSet
Validated: 1
EndChar

StartChar: uni0428
Encoding: 1064 1064 468
Width: 2039
GlyphClass: 1
Flags: W
LayerCount: 2
Fore
SplineSet
243 1456 m 1,0,-1
 243 54 l 1,1,-1
 976 54 l 1,2,-1
 976 1456 l 1,3,-1
 1031 1456 l 1,4,-1
 1031 54 l 1,5,-1
 1764 54 l 1,6,-1
 1764 1456 l 1,7,-1
 1818 1456 l 1,8,-1
 1818 0 l 1,9,-1
 188 0 l 1,10,-1
 188 1456 l 1,11,-1
 243 1456 l 1,0,-1
EndSplineSet
Validated: 1
EndChar

StartChar: uni0429
Encoding: 1065 1065 469
Width: 2038
GlyphClass: 1
Flags: W
LayerCount: 2
Fore
SplineSet
243 1456 m 1,0,-1
 243 54 l 1,1,-1
 976 54 l 1,2,-1
 976 1456 l 1,3,-1
 1031 1456 l 1,4,-1
 1031 54 l 1,5,-1
 1764 54 l 1,6,-1
 1764 1456 l 1,7,-1
 1818 1456 l 1,8,-1
 1818 85 l 1,9,-1
 1871 85 l 1,10,-1
 1871 -351 l 1,11,-1
 1817 -351 l 1,12,-1
 1817 0 l 1,13,-1
 188 0 l 1,14,-1
 188 1456 l 1,15,-1
 243 1456 l 1,0,-1
EndSplineSet
Validated: 1
EndChar

StartChar: uni042A
Encoding: 1066 1066 470
Width: 1585
GlyphClass: 1
Flags: W
LayerCount: 2
Fore
SplineSet
-29 1456 m 1,0,-1
 552 1456 l 1,1,-1
 552 808 l 1,2,-1
 921 808 l 2,3,4
 1147 808 1147 808 1269.5 696 c 128,-1,5
 1392 584 1392 584 1392 404 c 0,6,7
 1392 223 1392 223 1269.5 111.5 c 128,-1,8
 1147 0 1147 0 921 0 c 2,9,-1
 498 0 l 1,10,-1
 498 1402 l 1,11,-1
 -29 1402 l 1,12,-1
 -29 1456 l 1,0,-1
552 754 m 1,13,-1
 552 54 l 1,14,-1
 921 54 l 2,15,16
 1129 54 1129 54 1233 154.5 c 128,-1,17
 1337 255 1337 255 1337 406 c 0,18,19
 1337 551 1337 551 1232.5 652.5 c 128,-1,20
 1128 754 1128 754 921 754 c 2,21,-1
 552 754 l 1,13,-1
EndSplineSet
Validated: 1
EndChar

StartChar: uni042B
Encoding: 1067 1067 471
Width: 1648
GlyphClass: 1
Flags: W
LayerCount: 2
Fore
SplineSet
247 808 m 1,0,-1
 616 808 l 2,1,2
 842 808 842 808 964.5 696 c 128,-1,3
 1087 584 1087 584 1087 404 c 0,4,5
 1087 223 1087 223 964.5 111.5 c 128,-1,6
 842 0 842 0 616 0 c 2,7,-1
 193 0 l 1,8,-1
 193 1456 l 1,9,-1
 247 1456 l 1,10,-1
 247 808 l 1,0,-1
247 754 m 1,11,-1
 247 54 l 1,12,-1
 616 54 l 2,13,14
 824 54 824 54 928 154.5 c 128,-1,15
 1032 255 1032 255 1032 406 c 0,16,17
 1032 551 1032 551 927.5 652.5 c 128,-1,18
 823 754 823 754 616 754 c 2,19,-1
 247 754 l 1,11,-1
1447 0 m 1,20,-1
 1393 0 l 1,21,-1
 1393 1456 l 1,22,-1
 1447 1456 l 1,23,-1
 1447 0 l 1,20,-1
EndSplineSet
Validated: 1
EndChar

StartChar: uni042C
Encoding: 1068 1068 472
Width: 1223
GlyphClass: 1
Flags: W
LayerCount: 2
Fore
SplineSet
247 808 m 1,0,-1
 616 808 l 2,1,2
 842 808 842 808 964.5 696 c 128,-1,3
 1087 584 1087 584 1087 404 c 0,4,5
 1087 223 1087 223 964.5 111.5 c 128,-1,6
 842 0 842 0 616 0 c 2,7,-1
 193 0 l 1,8,-1
 193 1456 l 1,9,-1
 247 1456 l 1,10,-1
 247 808 l 1,0,-1
247 754 m 1,11,-1
 247 54 l 1,12,-1
 616 54 l 2,13,14
 824 54 824 54 928 154.5 c 128,-1,15
 1032 255 1032 255 1032 406 c 0,16,17
 1032 551 1032 551 927.5 652.5 c 128,-1,18
 823 754 823 754 616 754 c 2,19,-1
 247 754 l 1,11,-1
EndSplineSet
Validated: 1
EndChar

StartChar: uni042D
Encoding: 1069 1069 473
Width: 1325
GlyphClass: 1
Flags: W
LayerCount: 2
Fore
SplineSet
152 1011 m 1,0,-1
 150 1017 l 1,1,2
 145 1240 145 1240 284.5 1359 c 128,-1,3
 424 1478 424 1478 654 1478 c 0,4,5
 892 1478 892 1478 1036.5 1301 c 128,-1,6
 1181 1124 1181 1124 1181 838 c 2,7,-1
 1181 620 l 2,8,9
 1181 333 1181 333 1036.5 156.5 c 128,-1,10
 892 -20 892 -20 654 -20 c 0,11,12
 425 -20 425 -20 285 98.5 c 128,-1,13
 145 217 145 217 150 439 c 1,14,-1
 152 445 l 1,15,-1
 198 445 l 1,16,17
 198 248 198 248 320.5 141 c 128,-1,18
 443 34 443 34 654 34 c 0,19,20
 866 34 866 34 996.5 194.5 c 128,-1,21
 1127 355 1127 355 1127 618 c 2,22,-1
 1127 730 l 1,23,-1
 545 730 l 1,24,-1
 545 784 l 1,25,-1
 1127 784 l 1,26,-1
 1127 838 l 2,27,28
 1127 1102 1127 1102 996.5 1263 c 128,-1,29
 866 1424 866 1424 654 1424 c 256,30,31
 442 1424 442 1424 320 1320.5 c 128,-1,32
 198 1217 198 1217 198 1011 c 1,33,-1
 152 1011 l 1,0,-1
EndSplineSet
Validated: 33
EndChar

StartChar: uni042E
Encoding: 1070 1070 474
Width: 1896
GlyphClass: 1
Flags: W
LayerCount: 2
Fore
SplineSet
1735 619 m 2,0,1
 1735 324 1735 324 1589 151.5 c 128,-1,2
 1443 -21 1443 -21 1187 -21 c 0,3,4
 930 -21 930 -21 783.5 151.5 c 128,-1,5
 637 324 637 324 637 619 c 2,6,-1
 637 693 l 1,7,-1
 270 693 l 1,8,-1
 270 0 l 1,9,-1
 216 0 l 1,10,-1
 216 1456 l 1,11,-1
 270 1456 l 1,12,-1
 270 747 l 1,13,-1
 637 747 l 1,14,-1
 637 837 l 2,15,16
 637 1131 637 1131 782.5 1304 c 128,-1,17
 928 1477 928 1477 1185 1477 c 0,18,19
 1441 1477 1441 1477 1588 1304 c 128,-1,20
 1735 1131 1735 1131 1735 837 c 2,21,-1
 1735 619 l 2,0,1
1681 839 m 2,22,23
 1681 1107 1681 1107 1552 1265 c 128,-1,24
 1423 1423 1423 1423 1185 1423 c 0,25,26
 948 1423 948 1423 820 1265 c 128,-1,27
 692 1107 692 1107 692 839 c 2,28,-1
 692 619 l 2,29,30
 692 349 692 349 820.5 191 c 128,-1,31
 949 33 949 33 1187 33 c 256,32,33
 1425 33 1425 33 1553 190.5 c 128,-1,34
 1681 348 1681 348 1681 619 c 2,35,-1
 1681 839 l 2,22,23
EndSplineSet
Validated: 1
EndChar

StartChar: uni042F
Encoding: 1071 1071 475
Width: 1200
GlyphClass: 1
Flags: W
LayerCount: 2
Fore
SplineSet
157 0 m 1,0,-1
 95 0 l 1,1,-1
 444 674 l 1,2,-1
 437 684 l 1,3,4
 297 723 297 723 222.5 815 c 128,-1,5
 148 907 148 907 148 1038 c 0,6,7
 148 1237 148 1237 274 1346.5 c 128,-1,8
 400 1456 400 1456 622 1456 c 2,9,-1
 1048 1456 l 1,10,-1
 1048 0 l 1,11,-1
 993 0 l 1,12,-1
 993 659 l 1,13,-1
 492 659 l 1,14,-1
 157 0 l 1,0,-1
993 1402 m 1,15,-1
 622 1402 l 2,16,17
 416 1402 416 1402 309 1307 c 128,-1,18
 202 1212 202 1212 202 1040 c 0,19,20
 202 893 202 893 298 803.5 c 128,-1,21
 394 714 394 714 560 714 c 2,22,-1
 993 714 l 1,23,-1
 993 1402 l 1,15,-1
EndSplineSet
Validated: 1
EndChar

StartChar: uni0431
Encoding: 1073 1073 477
Width: 1122
GlyphClass: 1
Flags: W
LayerCount: 2
Fore
SplineSet
570 1102 m 0,0,1
 781 1102 781 1102 913 951 c 128,-1,2
 1045 800 1045 800 1045 562 c 2,3,-1
 1045 520 l 2,4,5
 1045 281 1045 281 913.5 130 c 128,-1,6
 782 -21 782 -21 572 -21 c 0,7,8
 361 -21 361 -21 229 130 c 128,-1,9
 97 281 97 281 97 520 c 2,10,-1
 97 892 l 2,11,12
 97 1147 97 1147 247.5 1279.5 c 128,-1,13
 398 1412 398 1412 675 1420 c 0,14,15
 828 1423 828 1423 905.5 1454.5 c 128,-1,16
 983 1486 983 1486 983 1553 c 1,17,-1
 1024 1553 l 1,18,-1
 1026 1547 l 1,19,20
 1033 1451 1033 1451 946.5 1409.5 c 128,-1,21
 860 1368 860 1368 681 1366 c 0,22,23
 427 1362 427 1362 289 1242.5 c 128,-1,24
 151 1123 151 1123 151 892 c 2,25,-1
 151 830 l 1,26,27
 208 957 208 957 317.5 1029.5 c 128,-1,28
 427 1102 427 1102 570 1102 c 0,0,1
570 1048 m 0,29,30
 379 1048 379 1048 265 904.5 c 128,-1,31
 151 761 151 761 151 562 c 2,32,-1
 151 520 l 2,33,34
 151 316 151 316 265 174.5 c 128,-1,35
 379 33 379 33 572 33 c 0,36,37
 762 33 762 33 876 175 c 128,-1,38
 990 317 990 317 990 520 c 2,39,-1
 990 562 l 2,40,41
 990 761 990 761 875 904.5 c 128,-1,42
 760 1048 760 1048 570 1048 c 0,29,30
EndSplineSet
Validated: 33
EndChar

StartChar: uni0432
Encoding: 1074 1074 478
Width: 1121
GlyphClass: 1
Flags: W
LayerCount: 2
Fore
SplineSet
181 0 m 1,0,-1
 181 1082 l 1,1,-1
 553 1082 l 2,2,3
 746 1082 746 1082 852.5 1012 c 128,-1,4
 959 942 959 942 959 802 c 0,5,6
 959 711 959 711 902.5 644 c 128,-1,7
 846 577 846 577 745 555 c 1,8,-1
 746 555 l 1,9,10
 857 543 857 543 931.5 467.5 c 128,-1,11
 1006 392 1006 392 1006 293 c 0,12,13
 1006 151 1006 151 901.5 75.5 c 128,-1,14
 797 0 797 0 622 0 c 2,15,-1
 181 0 l 1,0,-1
235 521 m 1,16,-1
 235 54 l 1,17,-1
 622 54 l 2,18,19
 777 54 777 54 865 115.5 c 128,-1,20
 953 177 953 177 953 292 c 0,21,22
 953 394 953 394 863 457.5 c 128,-1,23
 773 521 773 521 622 521 c 2,24,-1
 235 521 l 1,16,-1
235 575 m 1,25,-1
 573 575 l 2,26,27
 735 575 735 575 820 633 c 128,-1,28
 905 691 905 691 905 805 c 256,29,30
 905 919 905 919 816.5 973 c 128,-1,31
 728 1027 728 1027 553 1027 c 2,32,-1
 235 1027 l 1,33,-1
 235 575 l 1,25,-1
EndSplineSet
Validated: 1
EndChar

StartChar: uni0433
Encoding: 1075 1075 479
Width: 867
GlyphClass: 1
Flags: W
LayerCount: 2
Fore
SplineSet
822 1027 m 1,0,-1
 226 1027 l 1,1,-1
 226 0 l 1,2,-1
 172 0 l 1,3,-1
 172 1082 l 1,4,-1
 822 1082 l 1,5,-1
 822 1027 l 1,0,-1
EndSplineSet
Validated: 1
EndChar

StartChar: uni0434
Encoding: 1076 1076 480
Width: 1118
GlyphClass: 1
Flags: W
LayerCount: 2
Fore
SplineSet
137 54 m 2,0,1
 217 54 217 54 271 224 c 128,-1,2
 325 394 325 394 337 706 c 1,3,-1
 357 1082 l 1,4,-1
 948 1082 l 1,5,-1
 948 54 l 1,6,-1
 1014 54 l 1,7,-1
 1014 -348 l 1,8,-1
 960 -348 l 1,9,-1
 960 0 l 1,10,-1
 99 0 l 1,11,-1
 99 -348 l 1,12,-1
 55 -348 l 1,13,-1
 55 54 l 1,14,-1
 137 54 l 2,0,1
391 706 m 2,15,16
 381 465 381 465 343.5 296.5 c 128,-1,17
 306 128 306 128 241 54 c 1,18,-1
 894 54 l 1,19,-1
 894 1028 l 1,20,-1
 408 1028 l 1,21,-1
 391 706 l 2,15,16
EndSplineSet
Validated: 1
EndChar

StartChar: uni0436
Encoding: 1078 1078 482
Width: 1508
GlyphClass: 1
Flags: W
LayerCount: 2
Fore
SplineSet
895 528 m 1,0,-1
 779 528 l 1,1,-1
 779 0 l 1,2,-1
 725 0 l 1,3,-1
 725 528 l 1,4,-1
 610 528 l 1,5,-1
 112 0 l 1,6,-1
 48 0 l 1,7,-1
 46 5 l 1,8,-1
 552 552 l 1,9,-1
 109 1077 l 1,10,-1
 111 1082 l 1,11,-1
 171 1082 l 1,12,-1
 601 582 l 1,13,-1
 725 582 l 1,14,-1
 725 1082 l 1,15,-1
 779 1082 l 1,16,-1
 779 582 l 1,17,-1
 906 582 l 1,18,-1
 1335 1082 l 1,19,-1
 1397 1082 l 1,20,-1
 1399 1077 l 1,21,-1
 953 552 l 1,22,-1
 1461 6 l 1,23,-1
 1458 0 l 1,24,-1
 1395 0 l 1,25,-1
 895 528 l 1,0,-1
EndSplineSet
Validated: 1
EndChar

StartChar: uni0437
Encoding: 1079 1079 483
Width: 1122
GlyphClass: 1
Flags: W
LayerCount: 2
Fore
SplineSet
978 802 m 0,0,1
 978 718 978 718 918 651.5 c 128,-1,2
 858 585 858 585 748 554 c 1,3,4
 871 527 871 527 934 460 c 128,-1,5
 997 393 997 393 997 290 c 0,6,7
 997 147 997 147 876.5 65 c 128,-1,8
 756 -17 756 -17 563 -17 c 0,9,10
 382 -17 382 -17 250 64 c 128,-1,11
 118 145 118 145 124 295 c 1,12,-1
 126 301 l 1,13,-1
 171 301 l 1,14,15
 171 185 171 185 279.5 111.5 c 128,-1,16
 388 38 388 38 563 38 c 0,17,18
 743 38 743 38 842.5 103.5 c 128,-1,19
 942 169 942 169 942 287 c 0,20,21
 942 410 942 410 846 467.5 c 128,-1,22
 750 525 750 525 560 525 c 2,23,-1
 395 525 l 1,24,-1
 395 580 l 1,25,-1
 560 580 l 2,26,27
 746 580 746 580 834.5 638.5 c 128,-1,28
 923 697 923 697 923 805 c 256,29,30
 923 913 923 913 833 978.5 c 128,-1,31
 743 1044 743 1044 563 1044 c 0,32,33
 402 1044 402 1044 295.5 976.5 c 128,-1,34
 189 909 189 909 189 799 c 1,35,-1
 144 799 l 1,36,-1
 142 805 l 1,37,38
 136 935 136 935 258.5 1016.5 c 128,-1,39
 381 1098 381 1098 563 1098 c 0,40,41
 755 1098 755 1098 866.5 1021 c 128,-1,42
 978 944 978 944 978 802 c 0,0,1
EndSplineSet
Validated: 33
EndChar

StartChar: uni0438
Encoding: 1080 1080 484
Width: 1121
GlyphClass: 1
Flags: W
LayerCount: 2
Fore
SplineSet
895 1082 m 1,0,-1
 950 1082 l 1,1,-1
 950 0 l 1,2,-1
 895 0 l 1,3,-1
 895 976 l 1,4,-1
 889 978 l 1,5,-1
 226 0 l 1,6,-1
 172 0 l 1,7,-1
 172 1082 l 1,8,-1
 226 1082 l 1,9,-1
 226 106 l 1,10,-1
 232 104 l 1,11,-1
 895 1082 l 1,0,-1
EndSplineSet
Validated: 1
EndChar

StartChar: uni043A
Encoding: 1082 1082 486
Width: 1046
GlyphClass: 1
Flags: W
LayerCount: 2
Fore
SplineSet
394 529 m 1,0,-1
 226 529 l 1,1,-1
 226 0 l 1,2,-1
 171 0 l 1,3,-1
 171 1082 l 1,4,-1
 226 1082 l 1,5,-1
 226 582 l 1,6,-1
 404 582 l 1,7,-1
 863 1082 l 1,8,-1
 934 1082 l 1,9,-1
 936 1077 l 1,10,-1
 453 553 l 1,11,-1
 998 6 l 1,12,-1
 996 0 l 1,13,-1
 923 0 l 1,14,-1
 394 529 l 1,0,-1
EndSplineSet
Validated: 1
EndChar

StartChar: uni043B
Encoding: 1083 1083 487
Width: 1122
GlyphClass: 1
Flags: W
LayerCount: 2
Fore
SplineSet
950 1082 m 1,0,-1
 950 0 l 1,1,-1
 895 0 l 1,2,-1
 895 1027 l 1,3,-1
 359 1027 l 1,4,-1
 359 590 l 2,5,6
 359 272 359 272 294 136 c 128,-1,7
 229 0 229 0 76 0 c 2,8,-1
 44 0 l 1,9,-1
 44 53 l 1,10,-1
 79 53 l 2,11,12
 193 53 193 53 249 170 c 128,-1,13
 305 287 305 287 305 590 c 2,14,-1
 305 1082 l 1,15,-1
 950 1082 l 1,0,-1
EndSplineSet
Validated: 1
EndChar

StartChar: uni043C
Encoding: 1084 1084 488
Width: 1476
GlyphClass: 1
Flags: W
LayerCount: 2
Fore
SplineSet
747 82 m 1,0,-1
 1239 1082 l 1,1,-1
 1304 1082 l 1,2,-1
 1304 0 l 1,3,-1
 1249 0 l 1,4,-1
 1249 965 l 1,5,-1
 1243 966 l 1,6,-1
 768 0 l 1,7,-1
 726 0 l 1,8,-1
 241 990 l 1,9,-1
 235 989 l 1,10,-1
 235 0 l 1,11,-1
 181 0 l 1,12,-1
 181 1082 l 1,13,-1
 255 1082 l 1,14,-1
 747 82 l 1,0,-1
EndSplineSet
Validated: 1
EndChar

StartChar: uni043D
Encoding: 1085 1085 489
Width: 1121
GlyphClass: 1
Flags: W
LayerCount: 2
Fore
SplineSet
950 0 m 1,0,-1
 895 0 l 1,1,-1
 895 529 l 1,2,-1
 226 529 l 1,3,-1
 226 0 l 1,4,-1
 172 0 l 1,5,-1
 172 1082 l 1,6,-1
 226 1082 l 1,7,-1
 226 583 l 1,8,-1
 895 583 l 1,9,-1
 895 1082 l 1,10,-1
 950 1082 l 1,11,-1
 950 0 l 1,0,-1
EndSplineSet
Validated: 1
EndChar

StartChar: uni043F
Encoding: 1087 1087 491
Width: 1121
GlyphClass: 1
Flags: W
LayerCount: 2
Fore
SplineSet
950 0 m 1,0,-1
 895 0 l 1,1,-1
 895 1027 l 1,2,-1
 226 1027 l 1,3,-1
 226 0 l 1,4,-1
 172 0 l 1,5,-1
 172 1082 l 1,6,-1
 950 1082 l 1,7,-1
 950 0 l 1,0,-1
EndSplineSet
Validated: 1
EndChar

StartChar: uni0441
Encoding: 1089 1089 493
Width: 1039
GlyphClass: 1
Flags: W
LayerCount: 2
Fore
SplineSet
539 33 m 0,0,1
 676 33 676 33 781 108 c 128,-1,2
 886 183 886 183 886 333 c 1,3,-1
 932 333 l 1,4,-1
 934 327 l 1,5,6
 938 168 938 168 817.5 73.5 c 128,-1,7
 697 -21 697 -21 539 -21 c 0,8,9
 332 -21 332 -21 214.5 128 c 128,-1,10
 97 277 97 277 97 520 c 2,11,-1
 97 562 l 2,12,13
 97 804 97 804 214 953 c 128,-1,14
 331 1102 331 1102 537 1102 c 0,15,16
 705 1102 705 1102 821.5 1003.5 c 128,-1,17
 938 905 938 905 934 726 c 1,18,-1
 932 720 l 1,19,-1
 886 720 l 1,20,21
 886 879 886 879 784 963.5 c 128,-1,22
 682 1048 682 1048 537 1048 c 0,23,24
 347 1048 347 1048 249 912 c 128,-1,25
 151 776 151 776 151 562 c 2,26,-1
 151 520 l 2,27,28
 151 304 151 304 249 168.5 c 128,-1,29
 347 33 347 33 539 33 c 0,0,1
EndSplineSet
Validated: 33
EndChar

StartChar: uni0442
Encoding: 1090 1090 494
Width: 1028
GlyphClass: 1
Flags: W
LayerCount: 2
Fore
SplineSet
955 1027 m 1,0,-1
 530 1027 l 1,1,-1
 530 0 l 1,2,-1
 476 0 l 1,3,-1
 476 1027 l 1,4,-1
 73 1027 l 1,5,-1
 73 1082 l 1,6,-1
 955 1082 l 1,7,-1
 955 1027 l 1,0,-1
EndSplineSet
Validated: 1
EndChar

StartChar: uni0444
Encoding: 1092 1092 496
Width: 1844
GlyphClass: 1
Flags: W
LayerCount: 2
Fore
SplineSet
122 542 m 2,0,1
 122 799 122 799 230 950.5 c 128,-1,2
 338 1102 338 1102 530 1102 c 0,3,4
 655 1102 655 1102 747.5 1045.5 c 128,-1,5
 840 989 840 989 896 890 c 1,6,-1
 896 1560 l 1,7,-1
 950 1560 l 1,8,-1
 950 892 l 1,9,10
 1003 990 1003 990 1095 1046 c 128,-1,11
 1187 1102 1187 1102 1314 1102 c 0,12,13
 1505 1102 1505 1102 1613.5 950.5 c 128,-1,14
 1722 799 1722 799 1722 542 c 2,15,-1
 1722 521 l 2,16,17
 1722 271 1722 271 1614 125 c 128,-1,18
 1506 -21 1506 -21 1316 -21 c 0,19,20
 1190 -21 1190 -21 1096.5 29.5 c 128,-1,21
 1003 80 1003 80 950 166 c 1,22,-1
 950 -416 l 1,23,-1
 896 -416 l 1,24,-1
 896 166 l 1,25,26
 841 80 841 80 747 29.5 c 128,-1,27
 653 -21 653 -21 528 -21 c 0,28,29
 337 -21 337 -21 229.5 125 c 128,-1,30
 122 271 122 271 122 521 c 2,31,-1
 122 542 l 2,0,1
1668 542 m 2,32,33
 1668 767 1668 767 1577 907.5 c 128,-1,34
 1486 1048 1486 1048 1315 1048 c 0,35,36
 1161 1048 1161 1048 1075 971.5 c 128,-1,37
 989 895 989 895 950 781 c 1,38,-1
 950 749 l 2,39,40
 950 747 950 747 950 746 c 128,-1,41
 950 745 950 745 951 745 c 1,42,-1
 951 304 l 2,43,44
 950 302 950 302 950 301 c 128,-1,45
 950 300 950 300 950 299 c 2,46,-1
 950 263 l 1,47,48
 991 157 991 157 1083.5 95 c 128,-1,49
 1176 33 1176 33 1317 33 c 0,50,51
 1488 33 1488 33 1578 165 c 128,-1,52
 1668 297 1668 297 1668 521 c 2,53,-1
 1668 542 l 2,32,33
178 521 m 2,54,55
 178 297 178 297 266.5 165 c 128,-1,56
 355 33 355 33 527 33 c 0,57,58
 668 33 668 33 761 96.5 c 128,-1,59
 854 160 854 160 896 266 c 1,60,-1
 896 300 l 1,61,62
 895 300 895 300 895 301.5 c 128,-1,63
 895 303 895 303 895 305 c 2,64,-1
 895 745 l 2,65,66
 895 746 895 746 895 747 c 128,-1,67
 895 748 895 748 896 749 c 2,68,-1
 896 778 l 1,69,70
 856 893 856 893 769.5 970.5 c 128,-1,71
 683 1048 683 1048 529 1048 c 0,72,73
 357 1048 357 1048 267.5 907.5 c 128,-1,74
 178 767 178 767 178 542 c 2,75,-1
 178 521 l 2,54,55
EndSplineSet
Validated: 1
EndChar

StartChar: uni0446
Encoding: 1094 1094 498
Width: 1120
GlyphClass: 1
Flags: W
LayerCount: 2
Fore
SplineSet
172 1082 m 1,0,-1
 226 1082 l 1,1,-1
 226 54 l 1,2,-1
 895 54 l 1,3,-1
 895 1082 l 1,4,-1
 950 1082 l 1,5,-1
 950 0 l 1,6,-1
 172 0 l 1,7,-1
 172 1082 l 1,0,-1
1005 -348 m 1,8,-1
 951 -348 l 1,9,-1
 951 54 l 1,10,-1
 1005 54 l 1,11,-1
 1005 -348 l 1,8,-1
EndSplineSet
Validated: 1
EndChar

StartChar: uni0447
Encoding: 1095 1095 499
Width: 1122
GlyphClass: 1
Flags: W
LayerCount: 2
Fore
SplineSet
950 0 m 1,0,-1
 896 0 l 1,1,-1
 896 522 l 1,2,3
 830 489 830 489 740 465.5 c 128,-1,4
 650 442 650 442 581 442 c 0,5,6
 360 442 360 442 266 526.5 c 128,-1,7
 172 611 172 611 172 848 c 2,8,-1
 172 1082 l 1,9,-1
 226 1082 l 1,10,-1
 226 848 l 2,11,12
 226 643 226 643 306 569.5 c 128,-1,13
 386 496 386 496 581 496 c 0,14,15
 660 499 660 499 750.5 521.5 c 128,-1,16
 841 544 841 544 896 573 c 1,17,-1
 896 1082 l 1,18,-1
 950 1082 l 1,19,-1
 950 0 l 1,0,-1
EndSplineSet
Validated: 1
EndChar

StartChar: uni0448
Encoding: 1096 1096 500
Width: 1594
GlyphClass: 1
Flags: W
LayerCount: 2
Fore
SplineSet
226 1082 m 1,0,-1
 226 54 l 1,1,-1
 793 54 l 1,2,-1
 793 1082 l 1,3,-1
 848 1082 l 1,4,-1
 848 54 l 1,5,-1
 1406 54 l 1,6,-1
 1406 1082 l 1,7,-1
 1460 1082 l 1,8,-1
 1460 0 l 1,9,-1
 172 0 l 1,10,-1
 172 1082 l 1,11,-1
 226 1082 l 1,0,-1
EndSplineSet
Validated: 1
EndChar

StartChar: uni0449
Encoding: 1097 1097 501
Width: 1592
GlyphClass: 1
Flags: W
LayerCount: 2
Fore
SplineSet
226 1082 m 1,0,-1
 226 54 l 1,1,-1
 793 54 l 1,2,-1
 793 1082 l 1,3,-1
 848 1082 l 1,4,-1
 848 54 l 1,5,-1
 1406 54 l 1,6,-1
 1406 1082 l 1,7,-1
 1460 1082 l 1,8,-1
 1460 67 l 1,9,-1
 1520 67 l 1,10,-1
 1520 -350 l 1,11,-1
 1457 -350 l 1,12,-1
 1457 0 l 1,13,-1
 172 0 l 1,14,-1
 172 1082 l 1,15,-1
 226 1082 l 1,0,-1
EndSplineSet
Validated: 1
EndChar

StartChar: uni044A
Encoding: 1098 1098 502
Width: 1315
GlyphClass: 1
Flags: W
LayerCount: 2
Fore
SplineSet
26 1082 m 1,0,-1
 469 1082 l 1,1,-1
 469 630 l 1,2,-1
 814 630 l 2,3,4
 996 630 996 630 1098.5 542 c 128,-1,5
 1201 454 1201 454 1201 315 c 0,6,7
 1201 174 1201 174 1098.5 87 c 128,-1,8
 996 0 996 0 814 0 c 2,9,-1
 415 0 l 1,10,-1
 415 1028 l 1,11,-1
 26 1028 l 1,12,-1
 26 1082 l 1,0,-1
469 576 m 1,13,-1
 469 54 l 1,14,-1
 814 54 l 2,15,16
 980 54 980 54 1063.5 129 c 128,-1,17
 1147 204 1147 204 1147 317 c 0,18,19
 1147 425 1147 425 1063 500.5 c 128,-1,20
 979 576 979 576 814 576 c 2,21,-1
 469 576 l 1,13,-1
EndSplineSet
Validated: 1
EndChar

StartChar: uni044B
Encoding: 1099 1099 503
Width: 1486
GlyphClass: 1
Flags: W
LayerCount: 2
Fore
SplineSet
235 630 m 1,0,-1
 580 630 l 2,1,2
 762 630 762 630 864.5 542 c 128,-1,3
 967 454 967 454 967 315 c 0,4,5
 967 174 967 174 864.5 87 c 128,-1,6
 762 0 762 0 580 0 c 2,7,-1
 181 0 l 1,8,-1
 181 1082 l 1,9,-1
 235 1082 l 1,10,-1
 235 630 l 1,0,-1
235 576 m 1,11,-1
 235 54 l 1,12,-1
 580 54 l 2,13,14
 746 54 746 54 829.5 129 c 128,-1,15
 913 204 913 204 913 317 c 0,16,17
 913 425 913 425 829 500.5 c 128,-1,18
 745 576 745 576 580 576 c 2,19,-1
 235 576 l 1,11,-1
1315 0 m 1,20,-1
 1261 0 l 1,21,-1
 1261 1082 l 1,22,-1
 1315 1082 l 1,23,-1
 1315 0 l 1,20,-1
EndSplineSet
Validated: 1
EndChar

StartChar: uni044C
Encoding: 1100 1100 504
Width: 1080
GlyphClass: 1
Flags: W
LayerCount: 2
Fore
SplineSet
235 630 m 1,0,-1
 580 630 l 2,1,2
 762 630 762 630 864.5 542 c 128,-1,3
 967 454 967 454 967 315 c 0,4,5
 967 174 967 174 864.5 87 c 128,-1,6
 762 0 762 0 580 0 c 2,7,-1
 181 0 l 1,8,-1
 181 1082 l 1,9,-1
 235 1082 l 1,10,-1
 235 630 l 1,0,-1
235 576 m 1,11,-1
 235 54 l 1,12,-1
 580 54 l 2,13,14
 746 54 746 54 829.5 129 c 128,-1,15
 913 204 913 204 913 317 c 0,16,17
 913 425 913 425 829 500.5 c 128,-1,18
 745 576 745 576 580 576 c 2,19,-1
 235 576 l 1,11,-1
EndSplineSet
Validated: 1
EndChar

StartChar: uni044D
Encoding: 1101 1101 505
Width: 1089
GlyphClass: 1
Flags: W
LayerCount: 2
Fore
SplineSet
514 1048 m 0,0,1
 377 1048 377 1048 277.5 973.5 c 128,-1,2
 178 899 178 899 178 749 c 1,3,-1
 130 749 l 1,4,-1
 128 755 l 1,5,6
 123 914 123 914 239 1008 c 128,-1,7
 355 1102 355 1102 514 1102 c 0,8,9
 721 1102 721 1102 843.5 952.5 c 128,-1,10
 966 803 966 803 966 562 c 2,11,-1
 966 520 l 2,12,13
 966 278 966 278 844 128.5 c 128,-1,14
 722 -21 722 -21 516 -21 c 0,15,16
 349 -21 349 -21 236 77.5 c 128,-1,17
 123 176 123 176 128 356 c 1,18,-1
 130 362 l 1,19,-1
 178 362 l 1,20,21
 178 201 178 201 275 117 c 128,-1,22
 372 33 372 33 516 33 c 0,23,24
 704 33 704 33 806.5 168.5 c 128,-1,25
 909 304 909 304 908 511 c 1,26,-1
 905 516 l 1,27,-1
 340 516 l 1,28,-1
 340 570 l 1,29,-1
 905 570 l 1,30,-1
 907 575 l 1,31,32
 908 781 908 781 805.5 914.5 c 128,-1,33
 703 1048 703 1048 514 1048 c 0,0,1
EndSplineSet
Validated: 33
EndChar

StartChar: uni044E
Encoding: 1102 1102 506
Width: 1659
GlyphClass: 1
Flags: W
LayerCount: 2
Fore
SplineSet
235 557 m 1,0,-1
 593 557 l 1,1,-1
 593 562 l 2,2,3
 593 800 593 800 724.5 951 c 128,-1,4
 856 1102 856 1102 1066 1102 c 0,5,6
 1277 1102 1277 1102 1408.5 951 c 128,-1,7
 1540 800 1540 800 1540 562 c 2,8,-1
 1540 520 l 2,9,10
 1540 281 1540 281 1408.5 130 c 128,-1,11
 1277 -21 1277 -21 1068 -21 c 0,12,13
 861 -21 861 -21 729.5 125 c 128,-1,14
 598 271 598 271 593 503 c 1,15,-1
 235 503 l 1,16,-1
 235 0 l 1,17,-1
 181 0 l 1,18,-1
 181 1082 l 1,19,-1
 235 1082 l 1,20,-1
 235 557 l 1,0,-1
647 520 m 2,21,22
 647 316 647 316 761 174.5 c 128,-1,23
 875 33 875 33 1068 33 c 0,24,25
 1258 33 1258 33 1372 175 c 128,-1,26
 1486 317 1486 317 1486 520 c 2,27,-1
 1486 562 l 2,28,29
 1486 761 1486 761 1371 904.5 c 128,-1,30
 1256 1048 1256 1048 1066 1048 c 0,31,32
 875 1048 875 1048 761 904.5 c 128,-1,33
 647 761 647 761 647 562 c 2,34,-1
 647 520 l 2,21,22
EndSplineSet
Validated: 1
EndChar

StartChar: uni044F
Encoding: 1103 1103 507
Width: 1101
GlyphClass: 1
Flags: W
LayerCount: 2
Fore
SplineSet
924 1082 m 1,0,-1
 924 0 l 1,1,-1
 870 0 l 1,2,-1
 870 450 l 1,3,-1
 482 450 l 1,4,-1
 474 450 l 1,5,-1
 203 0 l 1,6,-1
 139 0 l 1,7,-1
 412 455 l 1,8,9
 291 474 291 474 225 558 c 128,-1,10
 159 642 159 642 159 766 c 0,11,12
 159 906 159 906 255 994 c 128,-1,13
 351 1082 351 1082 524 1082 c 2,14,-1
 924 1082 l 1,0,-1
213 764 m 0,15,16
 213 654 213 654 280 579.5 c 128,-1,17
 347 505 347 505 482 505 c 2,18,-1
 870 505 l 1,19,-1
 870 1027 l 1,20,-1
 524 1027 l 2,21,22
 367 1027 367 1027 290 952.5 c 128,-1,23
 213 878 213 878 213 764 c 0,15,16
EndSplineSet
Validated: 1
EndChar

StartChar: uni0452
Encoding: 1106 1106 510
Width: 1121
GlyphClass: 1
Flags: W
LayerCount: 2
Fore
SplineSet
601 1283 m 1,0,-1
 226 1283 l 1,1,-1
 226 857 l 1,2,3
 277 973 277 973 374 1037.5 c 128,-1,4
 471 1102 471 1102 610 1102 c 0,5,6
 779 1102 779 1102 866.5 995 c 128,-1,7
 954 888 954 888 954 658 c 2,8,-1
 954 -89 l 2,9,10
 954 -256 954 -256 878.5 -346.5 c 128,-1,11
 803 -437 803 -437 668 -437 c 0,12,13
 633 -437 633 -437 602 -432 c 128,-1,14
 571 -427 571 -427 536 -417 c 1,15,-1
 549 -365 l 1,16,17
 569 -371 569 -371 603 -377 c 128,-1,18
 637 -383 637 -383 668 -383 c 0,19,20
 778 -383 778 -383 838.5 -306.5 c 128,-1,21
 899 -230 899 -230 899 -89 c 2,22,-1
 899 660 l 2,23,24
 899 873 899 873 820.5 960.5 c 128,-1,25
 742 1048 742 1048 611 1048 c 0,26,27
 439 1048 439 1048 345.5 947 c 128,-1,28
 252 846 252 846 226 688 c 1,29,-1
 226 0 l 1,30,-1
 172 0 l 1,31,-1
 172 554 l 1,32,-1
 170 554 l 1,33,34
 170 575 170 575 170 589 c 128,-1,35
 170 603 170 603 172 617 c 2,36,-1
 172 1283 l 1,37,-1
 11 1283 l 1,38,-1
 11 1337 l 1,39,-1
 172 1337 l 1,40,-1
 172 1560 l 1,41,-1
 226 1560 l 1,42,-1
 226 1337 l 1,43,-1
 601 1337 l 1,44,-1
 601 1283 l 1,0,-1
EndSplineSet
Validated: 1
EndChar

StartChar: uni0454
Encoding: 1108 1108 512
Width: 1089
GlyphClass: 1
Flags: W
LayerCount: 2
Fore
SplineSet
554 33 m 0,0,1
 691 33 691 33 796 108 c 128,-1,2
 901 183 901 183 901 333 c 1,3,-1
 947 333 l 1,4,-1
 949 327 l 1,5,6
 953 168 953 168 832.5 73.5 c 128,-1,7
 712 -21 712 -21 554 -21 c 0,8,9
 347 -21 347 -21 229.5 128 c 128,-1,10
 112 277 112 277 112 520 c 2,11,-1
 112 562 l 2,12,13
 112 804 112 804 229 953 c 128,-1,14
 346 1102 346 1102 552 1102 c 0,15,16
 720 1102 720 1102 836.5 1003.5 c 128,-1,17
 953 905 953 905 949 726 c 1,18,-1
 947 720 l 1,19,-1
 901 720 l 1,20,21
 901 879 901 879 799 963.5 c 128,-1,22
 697 1048 697 1048 552 1048 c 0,23,24
 363 1048 363 1048 265.5 914.5 c 128,-1,25
 168 781 168 781 170 575 c 1,26,-1
 173 570 l 1,27,-1
 747 570 l 1,28,-1
 747 516 l 1,29,-1
 173 516 l 1,30,-1
 170 511 l 1,31,32
 167 301 167 301 265 167 c 128,-1,33
 363 33 363 33 554 33 c 0,0,1
EndSplineSet
Validated: 33
EndChar

StartChar: uni0459
Encoding: 1113 1113 517
Width: 1764
GlyphClass: 1
Flags: W
LayerCount: 2
Fore
SplineSet
950 1082 m 1,0,-1
 950 630 l 1,1,-1
 1295 630 l 2,2,3
 1477 630 1477 630 1579.5 542 c 128,-1,4
 1682 454 1682 454 1682 315 c 0,5,6
 1682 174 1682 174 1579.5 87 c 128,-1,7
 1477 0 1477 0 1295 0 c 2,8,-1
 895 0 l 1,9,-1
 895 1027 l 1,10,-1
 349 1027 l 1,11,-1
 349 590 l 2,12,13
 349 272 349 272 284 136 c 128,-1,14
 219 0 219 0 66 0 c 2,15,-1
 34 0 l 1,16,-1
 34 54 l 1,17,-1
 69 54 l 2,18,19
 183 54 183 54 239 170.5 c 128,-1,20
 295 287 295 287 295 590 c 2,21,-1
 295 1082 l 1,22,-1
 950 1082 l 1,0,-1
950 576 m 1,23,-1
 950 54 l 1,24,-1
 1295 54 l 2,25,26
 1461 54 1461 54 1544.5 129 c 128,-1,27
 1628 204 1628 204 1628 317 c 0,28,29
 1628 425 1628 425 1544 500.5 c 128,-1,30
 1460 576 1460 576 1295 576 c 2,31,-1
 950 576 l 1,23,-1
EndSplineSet
Validated: 1
EndChar

StartChar: uni045A
Encoding: 1114 1114 518
Width: 1764
GlyphClass: 1
Flags: W
LayerCount: 2
Fore
SplineSet
226 632 m 1,0,-1
 895 632 l 1,1,-1
 895 1082 l 1,2,-1
 950 1082 l 1,3,-1
 950 630 l 1,4,-1
 1295 630 l 2,5,6
 1477 630 1477 630 1579.5 542 c 128,-1,7
 1682 454 1682 454 1682 315 c 0,8,9
 1682 174 1682 174 1579.5 87 c 128,-1,10
 1477 0 1477 0 1295 0 c 2,11,-1
 895 0 l 1,12,-1
 895 578 l 1,13,-1
 226 578 l 1,14,-1
 226 0 l 1,15,-1
 172 0 l 1,16,-1
 172 1082 l 1,17,-1
 226 1082 l 1,18,-1
 226 632 l 1,0,-1
950 576 m 1,19,-1
 950 54 l 1,20,-1
 1295 54 l 2,21,22
 1461 54 1461 54 1544.5 129 c 128,-1,23
 1628 204 1628 204 1628 317 c 0,24,25
 1628 425 1628 425 1544 500.5 c 128,-1,26
 1460 576 1460 576 1295 576 c 2,27,-1
 950 576 l 1,19,-1
EndSplineSet
Validated: 1
EndChar

StartChar: uni045B
Encoding: 1115 1115 519
Width: 1121
GlyphClass: 1
Flags: W
LayerCount: 2
Fore
SplineSet
558 1280 m 1,0,-1
 226 1280 l 1,1,-1
 226 857 l 1,2,3
 277 973 277 973 374 1037.5 c 128,-1,4
 471 1102 471 1102 610 1102 c 0,5,6
 779 1102 779 1102 866.5 995 c 128,-1,7
 954 888 954 888 954 658 c 2,8,-1
 954 0 l 1,9,-1
 899 0 l 1,10,-1
 899 660 l 2,11,12
 899 873 899 873 820.5 960.5 c 128,-1,13
 742 1048 742 1048 611 1048 c 0,14,15
 439 1048 439 1048 345.5 947 c 128,-1,16
 252 846 252 846 226 688 c 1,17,-1
 226 0 l 1,18,-1
 172 0 l 1,19,-1
 172 554 l 1,20,-1
 170 554 l 1,21,22
 170 575 170 575 170 589 c 128,-1,23
 170 603 170 603 172 617 c 2,24,-1
 172 1280 l 1,25,-1
 -29 1280 l 1,26,-1
 -29 1334 l 1,27,-1
 172 1334 l 1,28,-1
 172 1560 l 1,29,-1
 226 1560 l 1,30,-1
 226 1334 l 1,31,-1
 558 1334 l 1,32,-1
 558 1280 l 1,0,-1
EndSplineSet
Validated: 1
EndChar

StartChar: uni045F
Encoding: 1119 1119 523
Width: 1121
GlyphClass: 1
Flags: W
LayerCount: 2
Fore
SplineSet
226 1082 m 1,0,-1
 226 54 l 1,1,-1
 895 54 l 1,2,-1
 895 1082 l 1,3,-1
 950 1082 l 1,4,-1
 950 0 l 1,5,-1
 592 0 l 1,6,-1
 592 -350 l 1,7,-1
 538 -350 l 1,8,-1
 538 0 l 1,9,-1
 172 0 l 1,10,-1
 172 1082 l 1,11,-1
 226 1082 l 1,0,-1
EndSplineSet
Validated: 1
EndChar

StartChar: uni0460
Encoding: 1120 1120 524
Width: 1947
GlyphClass: 1
Flags: W
LayerCount: 2
Fore
SplineSet
1072 1419 m 1,0,1
 1135 1447 1135 1447 1214 1462 c 128,-1,2
 1293 1477 1293 1477 1386 1477 c 0,3,4
 1591 1477 1591 1477 1720.5 1304.5 c 128,-1,5
 1850 1132 1850 1132 1850 858 c 2,6,-1
 1850 620 l 2,7,8
 1850 335 1850 335 1716 157 c 128,-1,9
 1582 -21 1582 -21 1369 -21 c 0,10,11
 1231 -21 1231 -21 1131.5 20.5 c 128,-1,12
 1032 62 1032 62 979 120 c 1,13,14
 925 62 925 62 825 20.5 c 128,-1,15
 725 -21 725 -21 589 -21 c 0,16,17
 375 -21 375 -21 241.5 157 c 128,-1,18
 108 335 108 335 108 620 c 2,19,-1
 108 858 l 2,20,21
 108 1132 108 1132 237 1304.5 c 128,-1,22
 366 1477 366 1477 572 1477 c 0,23,24
 664 1477 664 1477 743 1462 c 128,-1,25
 822 1447 822 1447 886 1419 c 1,26,-1
 871 1367 l 1,27,28
 813 1393 813 1393 738 1408 c 128,-1,29
 663 1423 663 1423 572 1423 c 0,30,31
 387 1423 387 1423 274.5 1265.5 c 128,-1,32
 162 1108 162 1108 162 860 c 2,33,-1
 162 620 l 2,34,35
 162 360 162 360 278.5 196.5 c 128,-1,36
 395 33 395 33 589 33 c 0,37,38
 731 33 731 33 825 78 c 128,-1,39
 919 123 919 123 952 181 c 1,40,-1
 952 635 l 1,41,-1
 647 635 l 1,42,-1
 647 690 l 1,43,-1
 1311 690 l 1,44,-1
 1311 635 l 1,45,-1
 1006 635 l 1,46,-1
 1006 181 l 1,47,48
 1038 123 1038 123 1132 78 c 128,-1,49
 1226 33 1226 33 1369 33 c 0,50,51
 1562 33 1562 33 1679 196.5 c 128,-1,52
 1796 360 1796 360 1796 620 c 2,53,-1
 1796 860 l 2,54,55
 1796 1108 1796 1108 1683 1265.5 c 128,-1,56
 1570 1423 1570 1423 1386 1423 c 0,57,58
 1294 1423 1294 1423 1219 1408 c 128,-1,59
 1144 1393 1144 1393 1087 1367 c 1,60,-1
 1072 1419 l 1,0,1
EndSplineSet
Validated: 1
EndChar

StartChar: uni0461
Encoding: 1121 1121 525
Width: 1367
GlyphClass: 1
Flags: W
LayerCount: 2
Fore
SplineSet
435 229 m 1,0,-1
 486 83 l 1,1,-1
 492 83 l 1,2,-1
 544 229 l 1,3,-1
 714 633 l 1,4,-1
 716 633 l 1,5,-1
 563 1082 l 1,6,-1
 621 1082 l 1,7,-1
 770 633 l 1,8,-1
 772 633 l 1,9,-1
 771 631 l 1,10,-1
 905 229 l 1,11,-1
 961 67 l 1,12,-1
 967 67 l 1,13,-1
 1009 148 l 2,14,15
 1109 347 1109 347 1172.5 580 c 128,-1,16
 1236 813 1236 813 1266 1082 c 1,17,-1
 1315 1082 l 1,18,19
 1287 791 1287 791 1206.5 516.5 c 128,-1,20
 1126 242 1126 242 984 1 c 1,21,-1
 985 0 l 1,22,-1
 933 0 l 1,23,-1
 745 551 l 1,24,-1
 739 551 l 1,25,-1
 514 1 l 1,26,-1
 515 0 l 1,27,-1
 463 0 l 1,28,-1
 43 1082 l 1,29,-1
 101 1082 l 1,30,-1
 435 229 l 1,0,-1
EndSplineSet
Validated: 1
EndChar

StartChar: uni0462
Encoding: 1122 1122 526
Width: 1223
GlyphClass: 1
Flags: W
LayerCount: 2
Fore
SplineSet
625 1151 m 1,0,-1
 247 1151 l 1,1,-1
 247 808 l 1,2,-1
 616 808 l 2,3,4
 842 808 842 808 964.5 696 c 128,-1,5
 1087 584 1087 584 1087 404 c 0,6,7
 1087 223 1087 223 964.5 111.5 c 128,-1,8
 842 0 842 0 616 0 c 2,9,-1
 193 0 l 1,10,-1
 193 1151 l 1,11,-1
 38 1151 l 1,12,-1
 38 1205 l 1,13,-1
 193 1205 l 1,14,-1
 193 1456 l 1,15,-1
 247 1456 l 1,16,-1
 247 1205 l 1,17,-1
 625 1205 l 1,18,-1
 625 1151 l 1,0,-1
247 754 m 1,19,-1
 247 54 l 1,20,-1
 616 54 l 2,21,22
 824 54 824 54 928 154.5 c 128,-1,23
 1032 255 1032 255 1032 406 c 0,24,25
 1032 551 1032 551 927.5 652.5 c 128,-1,26
 823 754 823 754 616 754 c 2,27,-1
 247 754 l 1,19,-1
EndSplineSet
Validated: 1
EndChar

StartChar: uni0463
Encoding: 1123 1123 527
Width: 1080
GlyphClass: 1
Flags: W
LayerCount: 2
Fore
SplineSet
564 1125 m 1,0,-1
 235 1125 l 1,1,-1
 235 630 l 1,2,-1
 580 630 l 2,3,4
 762 630 762 630 864.5 542 c 128,-1,5
 967 454 967 454 967 315 c 0,6,7
 967 174 967 174 864.5 87 c 128,-1,8
 762 0 762 0 580 0 c 2,9,-1
 181 0 l 1,10,-1
 181 1125 l 1,11,-1
 -23 1125 l 1,12,-1
 -23 1179 l 1,13,-1
 181 1179 l 1,14,-1
 181 1562 l 1,15,-1
 235 1562 l 1,16,-1
 235 1179 l 1,17,-1
 564 1179 l 1,18,-1
 564 1125 l 1,0,-1
235 576 m 1,19,-1
 235 54 l 1,20,-1
 580 54 l 2,21,22
 746 54 746 54 829.5 129 c 128,-1,23
 913 204 913 204 913 317 c 0,24,25
 913 425 913 425 829 500.5 c 128,-1,26
 745 576 745 576 580 576 c 2,27,-1
 235 576 l 1,19,-1
EndSplineSet
Validated: 1
EndChar

StartChar: uni0464
Encoding: 1124 1124 528
Width: 1825
GlyphClass: 1
Flags: W
LayerCount: 2
Fore
SplineSet
1190 685 m 1,0,-1
 665 685 l 1,1,-1
 665 620 l 2,2,3
 665 355 665 355 795 194.5 c 128,-1,4
 925 34 925 34 1138 34 c 0,5,6
 1348 34 1348 34 1470.5 137 c 128,-1,7
 1593 240 1593 240 1593 447 c 1,8,-1
 1639 447 l 1,9,-1
 1641 441 l 1,10,11
 1645 217 1645 217 1505.5 98.5 c 128,-1,12
 1366 -20 1366 -20 1138 -20 c 0,13,14
 899 -20 899 -20 755 156.5 c 128,-1,15
 611 333 611 333 611 620 c 2,16,-1
 611 685 l 1,17,-1
 291 685 l 1,18,-1
 291 0 l 1,19,-1
 237 0 l 1,20,-1
 237 1456 l 1,21,-1
 291 1456 l 1,22,-1
 291 739 l 1,23,-1
 611 739 l 1,24,-1
 611 838 l 2,25,26
 611 1124 611 1124 755 1301 c 128,-1,27
 899 1478 899 1478 1138 1478 c 0,28,29
 1366 1478 1366 1478 1505.5 1359 c 128,-1,30
 1645 1240 1645 1240 1641 1019 c 1,31,-1
 1639 1013 l 1,32,-1
 1593 1013 l 1,33,34
 1593 1210 1593 1210 1470.5 1317 c 128,-1,35
 1348 1424 1348 1424 1138 1424 c 0,36,37
 925 1424 925 1424 795 1263 c 128,-1,38
 665 1102 665 1102 665 840 c 2,39,-1
 665 739 l 1,40,-1
 1190 739 l 1,41,-1
 1190 685 l 1,0,-1
EndSplineSet
Validated: 33
EndChar

StartChar: uni0465
Encoding: 1125 1125 529
Width: 1518
GlyphClass: 1
Flags: W
LayerCount: 2
Fore
SplineSet
904 534 m 1,0,-1
 593 534 l 1,1,-1
 593 520 l 2,2,3
 593 304 593 304 691 168.5 c 128,-1,4
 789 33 789 33 981 33 c 0,5,6
 1118 33 1118 33 1223 108 c 128,-1,7
 1328 183 1328 183 1328 333 c 1,8,-1
 1374 333 l 1,9,-1
 1376 327 l 1,10,11
 1380 168 1380 168 1259.5 73.5 c 128,-1,12
 1139 -21 1139 -21 981 -21 c 0,13,14
 774 -21 774 -21 656.5 128 c 128,-1,15
 539 277 539 277 539 520 c 2,16,-1
 539 534 l 1,17,-1
 233 534 l 1,18,-1
 233 0 l 1,19,-1
 179 0 l 1,20,-1
 179 1082 l 1,21,-1
 233 1082 l 1,22,-1
 233 588 l 1,23,-1
 539 588 l 1,24,25
 545 820 545 820 661.5 961 c 128,-1,26
 778 1102 778 1102 979 1102 c 0,27,28
 1147 1102 1147 1102 1263.5 1003.5 c 128,-1,29
 1380 905 1380 905 1376 726 c 1,30,-1
 1374 720 l 1,31,-1
 1328 720 l 1,32,33
 1328 879 1328 879 1226 963.5 c 128,-1,34
 1124 1048 1124 1048 979 1048 c 0,35,36
 794 1048 794 1048 697 920.5 c 128,-1,37
 600 793 600 793 598 593 c 1,38,-1
 600 588 l 1,39,-1
 904 588 l 1,40,-1
 904 534 l 1,0,-1
EndSplineSet
Validated: 33
EndChar

StartChar: uni0466
Encoding: 1126 1126 530
Width: 1224
GlyphClass: 1
Flags: W
LayerCount: 2
Fore
SplineSet
939 508 m 1,0,-1
 632 508 l 1,1,-1
 632 0 l 1,2,-1
 578 0 l 1,3,-1
 578 508 l 1,4,-1
 283 508 l 1,5,-1
 93 0 l 1,6,-1
 34 0 l 1,7,-1
 578 1456 l 1,8,-1
 644 1456 l 1,9,-1
 1189 0 l 1,10,-1
 1130 0 l 1,11,-1
 939 508 l 1,0,-1
303 562 m 1,12,-1
 919 562 l 1,13,-1
 642 1304 l 1,14,-1
 614 1389 l 1,15,-1
 608 1389 l 1,16,-1
 581 1304 l 1,17,-1
 303 562 l 1,12,-1
EndSplineSet
Validated: 1
EndChar

StartChar: uni0467
Encoding: 1127 1127 531
Width: 1067
GlyphClass: 1
Flags: W
LayerCount: 2
Fore
SplineSet
778 395 m 1,0,-1
 554 395 l 1,1,-1
 554 0 l 1,2,-1
 500 0 l 1,3,-1
 500 395 l 1,4,-1
 267 395 l 1,5,-1
 95 0 l 1,6,-1
 36 0 l 1,7,-1
 497 1080 l 1,8,-1
 497 1082 l 1,9,-1
 549 1082 l 1,10,-1
 1010 0 l 1,11,-1
 952 0 l 1,12,-1
 778 395 l 1,0,-1
291 449 m 1,13,-1
 754 449 l 1,14,-1
 577 853 l 1,15,-1
 526 999 l 1,16,-1
 520 999 l 1,17,-1
 468 853 l 1,18,-1
 291 449 l 1,13,-1
EndSplineSet
Validated: 1
EndChar

StartChar: uni0468
Encoding: 1128 1128 532
Width: 1793
GlyphClass: 1
Flags: W
LayerCount: 2
Fore
SplineSet
309 562 m 1,0,-1
 773 562 l 1,1,-1
 1107 1456 l 1,2,-1
 1173 1456 l 1,3,-1
 1718 0 l 1,4,-1
 1659 0 l 1,5,-1
 1468 508 l 1,6,-1
 1161 508 l 1,7,-1
 1161 0 l 1,8,-1
 1107 0 l 1,9,-1
 1107 508 l 1,10,-1
 812 508 l 1,11,-1
 622 0 l 1,12,-1
 563 0 l 1,13,-1
 753 508 l 1,14,-1
 309 508 l 1,15,-1
 309 0 l 1,16,-1
 255 0 l 1,17,-1
 255 1456 l 1,18,-1
 309 1456 l 1,19,-1
 309 562 l 1,0,-1
832 562 m 1,20,-1
 1448 562 l 1,21,-1
 1171 1304 l 1,22,-1
 1143 1389 l 1,23,-1
 1137 1389 l 1,24,-1
 1110 1304 l 1,25,-1
 832 562 l 1,20,-1
EndSplineSet
Validated: 1
EndChar

StartChar: uni0469
Encoding: 1129 1129 533
Width: 1537
GlyphClass: 1
Flags: W
LayerCount: 2
Fore
SplineSet
268 449 m 1,0,-1
 674 449 l 1,1,-1
 944 1080 l 1,2,-1
 944 1082 l 1,3,-1
 996 1082 l 1,4,-1
 1457 0 l 1,5,-1
 1399 0 l 1,6,-1
 1225 395 l 1,7,-1
 1001 395 l 1,8,-1
 1001 0 l 1,9,-1
 947 0 l 1,10,-1
 947 395 l 1,11,-1
 714 395 l 1,12,-1
 542 0 l 1,13,-1
 483 0 l 1,14,-1
 651 395 l 1,15,-1
 268 395 l 1,16,-1
 268 0 l 1,17,-1
 214 0 l 1,18,-1
 214 1082 l 1,19,-1
 268 1082 l 1,20,-1
 268 449 l 1,0,-1
738 449 m 1,21,-1
 1201 449 l 1,22,-1
 1024 853 l 1,23,-1
 973 999 l 1,24,-1
 967 999 l 1,25,-1
 915 853 l 1,26,-1
 738 449 l 1,21,-1
EndSplineSet
Validated: 1
EndChar

StartChar: uni046A
Encoding: 1130 1130 534
Width: 1593
GlyphClass: 1
Flags: W
LayerCount: 2
Fore
SplineSet
1271 1456 m 1,0,-1
 1328 1456 l 1,1,-1
 854 749 l 1,2,-1
 1019 749 l 2,3,4
 1217 749 1217 749 1321 663 c 128,-1,5
 1425 577 1425 577 1425 389 c 2,6,-1
 1425 0 l 1,7,-1
 1371 0 l 1,8,-1
 1371 389 l 2,9,10
 1371 555 1371 555 1287 625 c 128,-1,11
 1203 695 1203 695 1019 695 c 2,12,-1
 822 695 l 1,13,-1
 822 0 l 1,14,-1
 768 0 l 1,15,-1
 768 695 l 1,16,-1
 574 695 l 2,17,18
 390 695 390 695 306 625 c 128,-1,19
 222 555 222 555 222 389 c 2,20,-1
 222 0 l 1,21,-1
 167 0 l 1,22,-1
 167 389 l 2,23,24
 167 577 167 577 271.5 663 c 128,-1,25
 376 749 376 749 574 749 c 2,26,-1
 735 749 l 1,27,-1
 262 1456 l 1,28,-1
 314 1456 l 1,29,-1
 314 1457 l 1,30,-1
 1271 1457 l 1,31,-1
 1271 1456 l 1,0,-1
1227 1403 m 1,32,-1
 361 1403 l 1,33,-1
 768 783 l 1,34,-1
 789 749 l 1,35,-1
 800 749 l 1,36,-1
 821 783 l 1,37,-1
 1227 1403 l 1,32,-1
EndSplineSet
Validated: 1
EndChar

StartChar: uni046B
Encoding: 1131 1131 535
Width: 1389
GlyphClass: 1
Flags: W
LayerCount: 2
Fore
SplineSet
1080 1082 m 1,0,-1
 1141 1082 l 1,1,-1
 771 585 l 1,2,-1
 815 585 l 2,3,4
 1013 585 1013 585 1117.5 499 c 128,-1,5
 1222 413 1222 413 1222 225 c 2,6,-1
 1222 0 l 1,7,-1
 1168 0 l 1,8,-1
 1168 225 l 2,9,10
 1168 390 1168 390 1083.5 460 c 128,-1,11
 999 530 999 530 815 530 c 2,12,-1
 730 530 l 1,13,-1
 723 520 l 1,14,-1
 723 0 l 1,15,-1
 669 0 l 1,16,-1
 669 521 l 1,17,-1
 663 530 l 1,18,-1
 575 530 l 2,19,20
 390 530 390 530 306 460 c 128,-1,21
 222 390 222 390 222 225 c 2,22,-1
 222 0 l 1,23,-1
 167 0 l 1,24,-1
 167 225 l 2,25,26
 167 414 167 414 271.5 499.5 c 128,-1,27
 376 585 376 585 575 585 c 2,28,-1
 622 585 l 1,29,-1
 252 1082 l 1,30,-1
 316 1082 l 1,31,-1
 316 1083 l 1,32,-1
 1080 1083 l 1,33,-1
 1080 1082 l 1,0,-1
1035 1028 m 1,34,-1
 357 1028 l 1,35,-1
 680 596 l 1,36,-1
 685 585 l 1,37,-1
 707 585 l 1,38,-1
 713 597 l 1,39,-1
 1035 1028 l 1,34,-1
EndSplineSet
Validated: 1
EndChar

StartChar: uni046C
Encoding: 1132 1132 536
Width: 2119
GlyphClass: 1
Flags: W
LayerCount: 2
Fore
SplineSet
1130 693 m 1,0,-1
 240 693 l 1,1,-1
 240 747 l 1,2,-1
 1130 747 l 1,3,-1
 1130 693 l 1,0,-1
290 0 m 1,4,-1
 236 0 l 1,5,-1
 236 1456 l 1,6,-1
 290 1456 l 1,7,-1
 290 0 l 1,4,-1
1796 1456 m 1,8,-1
 1853 1456 l 1,9,-1
 1379 749 l 1,10,-1
 1544 749 l 2,11,12
 1742 749 1742 749 1846 663 c 128,-1,13
 1950 577 1950 577 1950 389 c 2,14,-1
 1950 0 l 1,15,-1
 1896 0 l 1,16,-1
 1896 389 l 2,17,18
 1896 555 1896 555 1812 625 c 128,-1,19
 1728 695 1728 695 1544 695 c 2,20,-1
 1347 695 l 1,21,-1
 1347 0 l 1,22,-1
 1293 0 l 1,23,-1
 1293 695 l 1,24,-1
 1099 695 l 2,25,26
 915 695 915 695 831 625 c 128,-1,27
 747 555 747 555 747 389 c 2,28,-1
 747 0 l 1,29,-1
 692 0 l 1,30,-1
 692 389 l 2,31,32
 692 577 692 577 796.5 663 c 128,-1,33
 901 749 901 749 1099 749 c 2,34,-1
 1260 749 l 1,35,-1
 787 1456 l 1,36,-1
 839 1456 l 1,37,-1
 839 1457 l 1,38,-1
 1796 1457 l 1,39,-1
 1796 1456 l 1,8,-1
1752 1403 m 1,40,-1
 886 1403 l 1,41,-1
 1293 783 l 1,42,-1
 1314 749 l 1,43,-1
 1325 749 l 1,44,-1
 1346 783 l 1,45,-1
 1752 1403 l 1,40,-1
EndSplineSet
Validated: 5
EndChar

